G04 #@! TF.GenerationSoftware,KiCad,Pcbnew,(5.1.5)-3*
G04 #@! TF.CreationDate,2021-03-29T22:58:56-05:00*
G04 #@! TF.ProjectId,Sable_Bias_Voltage,5361626c-655f-4426-9961-735f566f6c74,rev?*
G04 #@! TF.SameCoordinates,Original*
G04 #@! TF.FileFunction,Soldermask,Bot*
G04 #@! TF.FilePolarity,Negative*
%FSLAX46Y46*%
G04 Gerber Fmt 4.6, Leading zero omitted, Abs format (unit mm)*
G04 Created by KiCad (PCBNEW (5.1.5)-3) date 2021-03-29 22:58:56*
%MOMM*%
%LPD*%
G04 APERTURE LIST*
%ADD10C,0.100000*%
G04 APERTURE END LIST*
D10*
G36*
X150028228Y-117291703D02*
G01*
X150183100Y-117355853D01*
X150322481Y-117448985D01*
X150441015Y-117567519D01*
X150534147Y-117706900D01*
X150598297Y-117861772D01*
X150631000Y-118026184D01*
X150631000Y-118193816D01*
X150598297Y-118358228D01*
X150534147Y-118513100D01*
X150441015Y-118652481D01*
X150322481Y-118771015D01*
X150183100Y-118864147D01*
X150028228Y-118928297D01*
X149863816Y-118961000D01*
X149696184Y-118961000D01*
X149531772Y-118928297D01*
X149376900Y-118864147D01*
X149237519Y-118771015D01*
X149118985Y-118652481D01*
X149025853Y-118513100D01*
X148961703Y-118358228D01*
X148929000Y-118193816D01*
X148929000Y-118026184D01*
X148961703Y-117861772D01*
X149025853Y-117706900D01*
X149118985Y-117567519D01*
X149237519Y-117448985D01*
X149376900Y-117355853D01*
X149531772Y-117291703D01*
X149696184Y-117259000D01*
X149863816Y-117259000D01*
X150028228Y-117291703D01*
G37*
G36*
X145028228Y-117291703D02*
G01*
X145183100Y-117355853D01*
X145322481Y-117448985D01*
X145441015Y-117567519D01*
X145534147Y-117706900D01*
X145598297Y-117861772D01*
X145631000Y-118026184D01*
X145631000Y-118193816D01*
X145598297Y-118358228D01*
X145534147Y-118513100D01*
X145441015Y-118652481D01*
X145322481Y-118771015D01*
X145183100Y-118864147D01*
X145028228Y-118928297D01*
X144863816Y-118961000D01*
X144696184Y-118961000D01*
X144531772Y-118928297D01*
X144376900Y-118864147D01*
X144237519Y-118771015D01*
X144118985Y-118652481D01*
X144025853Y-118513100D01*
X143961703Y-118358228D01*
X143929000Y-118193816D01*
X143929000Y-118026184D01*
X143961703Y-117861772D01*
X144025853Y-117706900D01*
X144118985Y-117567519D01*
X144237519Y-117448985D01*
X144376900Y-117355853D01*
X144531772Y-117291703D01*
X144696184Y-117259000D01*
X144863816Y-117259000D01*
X145028228Y-117291703D01*
G37*
G36*
X141730589Y-117348876D02*
G01*
X141829893Y-117368629D01*
X141970206Y-117426748D01*
X142096484Y-117511125D01*
X142203875Y-117618516D01*
X142288252Y-117744794D01*
X142346371Y-117885107D01*
X142376000Y-118034063D01*
X142376000Y-118185937D01*
X142346371Y-118334893D01*
X142288252Y-118475206D01*
X142203875Y-118601484D01*
X142096484Y-118708875D01*
X141970206Y-118793252D01*
X141829893Y-118851371D01*
X141765663Y-118864147D01*
X141680938Y-118881000D01*
X141529062Y-118881000D01*
X141444337Y-118864147D01*
X141380107Y-118851371D01*
X141239794Y-118793252D01*
X141113516Y-118708875D01*
X141006125Y-118601484D01*
X140921748Y-118475206D01*
X140863629Y-118334893D01*
X140834000Y-118185937D01*
X140834000Y-118034063D01*
X140863629Y-117885107D01*
X140921748Y-117744794D01*
X141006125Y-117618516D01*
X141113516Y-117511125D01*
X141239794Y-117426748D01*
X141380107Y-117368629D01*
X141479411Y-117348876D01*
X141529062Y-117339000D01*
X141680938Y-117339000D01*
X141730589Y-117348876D01*
G37*
G36*
X159604059Y-117387860D02*
G01*
X159740732Y-117444472D01*
X159863735Y-117526660D01*
X159968340Y-117631265D01*
X160050528Y-117754268D01*
X160107140Y-117890941D01*
X160136000Y-118036033D01*
X160136000Y-118183967D01*
X160107140Y-118329059D01*
X160050528Y-118465732D01*
X159968340Y-118588735D01*
X159863735Y-118693340D01*
X159740732Y-118775528D01*
X159740731Y-118775529D01*
X159740730Y-118775529D01*
X159604059Y-118832140D01*
X159458968Y-118861000D01*
X159311032Y-118861000D01*
X159165941Y-118832140D01*
X159029270Y-118775529D01*
X159029269Y-118775529D01*
X159029268Y-118775528D01*
X158906265Y-118693340D01*
X158801660Y-118588735D01*
X158719472Y-118465732D01*
X158662860Y-118329059D01*
X158634000Y-118183967D01*
X158634000Y-118036033D01*
X158662860Y-117890941D01*
X158719472Y-117754268D01*
X158801660Y-117631265D01*
X158906265Y-117526660D01*
X159029268Y-117444472D01*
X159165941Y-117387860D01*
X159311032Y-117359000D01*
X159458968Y-117359000D01*
X159604059Y-117387860D01*
G37*
G36*
X172939059Y-117387860D02*
G01*
X173075732Y-117444472D01*
X173198735Y-117526660D01*
X173303340Y-117631265D01*
X173385528Y-117754268D01*
X173442140Y-117890941D01*
X173471000Y-118036033D01*
X173471000Y-118183967D01*
X173442140Y-118329059D01*
X173385528Y-118465732D01*
X173303340Y-118588735D01*
X173198735Y-118693340D01*
X173075732Y-118775528D01*
X173075731Y-118775529D01*
X173075730Y-118775529D01*
X172939059Y-118832140D01*
X172793968Y-118861000D01*
X172646032Y-118861000D01*
X172500941Y-118832140D01*
X172364270Y-118775529D01*
X172364269Y-118775529D01*
X172364268Y-118775528D01*
X172241265Y-118693340D01*
X172136660Y-118588735D01*
X172054472Y-118465732D01*
X171997860Y-118329059D01*
X171969000Y-118183967D01*
X171969000Y-118036033D01*
X171997860Y-117890941D01*
X172054472Y-117754268D01*
X172136660Y-117631265D01*
X172241265Y-117526660D01*
X172364268Y-117444472D01*
X172500941Y-117387860D01*
X172646032Y-117359000D01*
X172793968Y-117359000D01*
X172939059Y-117387860D01*
G37*
G36*
X167859059Y-117387860D02*
G01*
X167995732Y-117444472D01*
X168118735Y-117526660D01*
X168223340Y-117631265D01*
X168305528Y-117754268D01*
X168362140Y-117890941D01*
X168391000Y-118036033D01*
X168391000Y-118183967D01*
X168362140Y-118329059D01*
X168305528Y-118465732D01*
X168223340Y-118588735D01*
X168118735Y-118693340D01*
X167995732Y-118775528D01*
X167995731Y-118775529D01*
X167995730Y-118775529D01*
X167859059Y-118832140D01*
X167713968Y-118861000D01*
X167566032Y-118861000D01*
X167420941Y-118832140D01*
X167284270Y-118775529D01*
X167284269Y-118775529D01*
X167284268Y-118775528D01*
X167161265Y-118693340D01*
X167056660Y-118588735D01*
X166974472Y-118465732D01*
X166917860Y-118329059D01*
X166889000Y-118183967D01*
X166889000Y-118036033D01*
X166917860Y-117890941D01*
X166974472Y-117754268D01*
X167056660Y-117631265D01*
X167161265Y-117526660D01*
X167284268Y-117444472D01*
X167420941Y-117387860D01*
X167566032Y-117359000D01*
X167713968Y-117359000D01*
X167859059Y-117387860D01*
G37*
G36*
X131791059Y-117387860D02*
G01*
X131927732Y-117444472D01*
X132050735Y-117526660D01*
X132155340Y-117631265D01*
X132237528Y-117754268D01*
X132294140Y-117890941D01*
X132323000Y-118036033D01*
X132323000Y-118183967D01*
X132294140Y-118329059D01*
X132237528Y-118465732D01*
X132155340Y-118588735D01*
X132050735Y-118693340D01*
X131927732Y-118775528D01*
X131927731Y-118775529D01*
X131927730Y-118775529D01*
X131791059Y-118832140D01*
X131645968Y-118861000D01*
X131498032Y-118861000D01*
X131352941Y-118832140D01*
X131216270Y-118775529D01*
X131216269Y-118775529D01*
X131216268Y-118775528D01*
X131093265Y-118693340D01*
X130988660Y-118588735D01*
X130906472Y-118465732D01*
X130849860Y-118329059D01*
X130821000Y-118183967D01*
X130821000Y-118036033D01*
X130849860Y-117890941D01*
X130906472Y-117754268D01*
X130988660Y-117631265D01*
X131093265Y-117526660D01*
X131216268Y-117444472D01*
X131352941Y-117387860D01*
X131498032Y-117359000D01*
X131645968Y-117359000D01*
X131791059Y-117387860D01*
G37*
G36*
X136871059Y-117387860D02*
G01*
X137007732Y-117444472D01*
X137130735Y-117526660D01*
X137235340Y-117631265D01*
X137317528Y-117754268D01*
X137374140Y-117890941D01*
X137403000Y-118036033D01*
X137403000Y-118183967D01*
X137374140Y-118329059D01*
X137317528Y-118465732D01*
X137235340Y-118588735D01*
X137130735Y-118693340D01*
X137007732Y-118775528D01*
X137007731Y-118775529D01*
X137007730Y-118775529D01*
X136871059Y-118832140D01*
X136725968Y-118861000D01*
X136578032Y-118861000D01*
X136432941Y-118832140D01*
X136296270Y-118775529D01*
X136296269Y-118775529D01*
X136296268Y-118775528D01*
X136173265Y-118693340D01*
X136068660Y-118588735D01*
X135986472Y-118465732D01*
X135929860Y-118329059D01*
X135901000Y-118183967D01*
X135901000Y-118036033D01*
X135929860Y-117890941D01*
X135986472Y-117754268D01*
X136068660Y-117631265D01*
X136173265Y-117526660D01*
X136296268Y-117444472D01*
X136432941Y-117387860D01*
X136578032Y-117359000D01*
X136725968Y-117359000D01*
X136871059Y-117387860D01*
G37*
G36*
X154524059Y-117387860D02*
G01*
X154660732Y-117444472D01*
X154783735Y-117526660D01*
X154888340Y-117631265D01*
X154970528Y-117754268D01*
X155027140Y-117890941D01*
X155056000Y-118036033D01*
X155056000Y-118183967D01*
X155027140Y-118329059D01*
X154970528Y-118465732D01*
X154888340Y-118588735D01*
X154783735Y-118693340D01*
X154660732Y-118775528D01*
X154660731Y-118775529D01*
X154660730Y-118775529D01*
X154524059Y-118832140D01*
X154378968Y-118861000D01*
X154231032Y-118861000D01*
X154085941Y-118832140D01*
X153949270Y-118775529D01*
X153949269Y-118775529D01*
X153949268Y-118775528D01*
X153826265Y-118693340D01*
X153721660Y-118588735D01*
X153639472Y-118465732D01*
X153582860Y-118329059D01*
X153554000Y-118183967D01*
X153554000Y-118036033D01*
X153582860Y-117890941D01*
X153639472Y-117754268D01*
X153721660Y-117631265D01*
X153826265Y-117526660D01*
X153949268Y-117444472D01*
X154085941Y-117387860D01*
X154231032Y-117359000D01*
X154378968Y-117359000D01*
X154524059Y-117387860D01*
G37*
G36*
X139190589Y-114808876D02*
G01*
X139289893Y-114828629D01*
X139430206Y-114886748D01*
X139556484Y-114971125D01*
X139663875Y-115078516D01*
X139748252Y-115204794D01*
X139806371Y-115345107D01*
X139836000Y-115494063D01*
X139836000Y-115645937D01*
X139806371Y-115794893D01*
X139748252Y-115935206D01*
X139663875Y-116061484D01*
X139556484Y-116168875D01*
X139430206Y-116253252D01*
X139289893Y-116311371D01*
X139190589Y-116331124D01*
X139140938Y-116341000D01*
X138989062Y-116341000D01*
X138939411Y-116331124D01*
X138840107Y-116311371D01*
X138699794Y-116253252D01*
X138573516Y-116168875D01*
X138466125Y-116061484D01*
X138381748Y-115935206D01*
X138323629Y-115794893D01*
X138294000Y-115645937D01*
X138294000Y-115494063D01*
X138323629Y-115345107D01*
X138381748Y-115204794D01*
X138466125Y-115078516D01*
X138573516Y-114971125D01*
X138699794Y-114886748D01*
X138840107Y-114828629D01*
X138939411Y-114808876D01*
X138989062Y-114799000D01*
X139140938Y-114799000D01*
X139190589Y-114808876D01*
G37*
G36*
X159604059Y-114847860D02*
G01*
X159740732Y-114904472D01*
X159863735Y-114986660D01*
X159968340Y-115091265D01*
X160050528Y-115214268D01*
X160107140Y-115350941D01*
X160136000Y-115496033D01*
X160136000Y-115643967D01*
X160107140Y-115789059D01*
X160050528Y-115925732D01*
X159968340Y-116048735D01*
X159863735Y-116153340D01*
X159740732Y-116235528D01*
X159740731Y-116235529D01*
X159740730Y-116235529D01*
X159604059Y-116292140D01*
X159458968Y-116321000D01*
X159311032Y-116321000D01*
X159165941Y-116292140D01*
X159029270Y-116235529D01*
X159029269Y-116235529D01*
X159029268Y-116235528D01*
X158906265Y-116153340D01*
X158801660Y-116048735D01*
X158719472Y-115925732D01*
X158662860Y-115789059D01*
X158634000Y-115643967D01*
X158634000Y-115496033D01*
X158662860Y-115350941D01*
X158719472Y-115214268D01*
X158801660Y-115091265D01*
X158906265Y-114986660D01*
X159029268Y-114904472D01*
X159165941Y-114847860D01*
X159311032Y-114819000D01*
X159458968Y-114819000D01*
X159604059Y-114847860D01*
G37*
G36*
X154524059Y-114847860D02*
G01*
X154660732Y-114904472D01*
X154783735Y-114986660D01*
X154888340Y-115091265D01*
X154970528Y-115214268D01*
X155027140Y-115350941D01*
X155056000Y-115496033D01*
X155056000Y-115643967D01*
X155027140Y-115789059D01*
X154970528Y-115925732D01*
X154888340Y-116048735D01*
X154783735Y-116153340D01*
X154660732Y-116235528D01*
X154660731Y-116235529D01*
X154660730Y-116235529D01*
X154524059Y-116292140D01*
X154378968Y-116321000D01*
X154231032Y-116321000D01*
X154085941Y-116292140D01*
X153949270Y-116235529D01*
X153949269Y-116235529D01*
X153949268Y-116235528D01*
X153826265Y-116153340D01*
X153721660Y-116048735D01*
X153639472Y-115925732D01*
X153582860Y-115789059D01*
X153554000Y-115643967D01*
X153554000Y-115496033D01*
X153582860Y-115350941D01*
X153639472Y-115214268D01*
X153721660Y-115091265D01*
X153826265Y-114986660D01*
X153949268Y-114904472D01*
X154085941Y-114847860D01*
X154231032Y-114819000D01*
X154378968Y-114819000D01*
X154524059Y-114847860D01*
G37*
G36*
X162779059Y-114847860D02*
G01*
X162915732Y-114904472D01*
X163038735Y-114986660D01*
X163143340Y-115091265D01*
X163225528Y-115214268D01*
X163282140Y-115350941D01*
X163311000Y-115496033D01*
X163311000Y-115643967D01*
X163282140Y-115789059D01*
X163225528Y-115925732D01*
X163143340Y-116048735D01*
X163038735Y-116153340D01*
X162915732Y-116235528D01*
X162915731Y-116235529D01*
X162915730Y-116235529D01*
X162779059Y-116292140D01*
X162633968Y-116321000D01*
X162486032Y-116321000D01*
X162340941Y-116292140D01*
X162204270Y-116235529D01*
X162204269Y-116235529D01*
X162204268Y-116235528D01*
X162081265Y-116153340D01*
X161976660Y-116048735D01*
X161894472Y-115925732D01*
X161837860Y-115789059D01*
X161809000Y-115643967D01*
X161809000Y-115496033D01*
X161837860Y-115350941D01*
X161894472Y-115214268D01*
X161976660Y-115091265D01*
X162081265Y-114986660D01*
X162204268Y-114904472D01*
X162340941Y-114847860D01*
X162486032Y-114819000D01*
X162633968Y-114819000D01*
X162779059Y-114847860D01*
G37*
G36*
X131791059Y-114847860D02*
G01*
X131927732Y-114904472D01*
X132050735Y-114986660D01*
X132155340Y-115091265D01*
X132237528Y-115214268D01*
X132294140Y-115350941D01*
X132323000Y-115496033D01*
X132323000Y-115643967D01*
X132294140Y-115789059D01*
X132237528Y-115925732D01*
X132155340Y-116048735D01*
X132050735Y-116153340D01*
X131927732Y-116235528D01*
X131927731Y-116235529D01*
X131927730Y-116235529D01*
X131791059Y-116292140D01*
X131645968Y-116321000D01*
X131498032Y-116321000D01*
X131352941Y-116292140D01*
X131216270Y-116235529D01*
X131216269Y-116235529D01*
X131216268Y-116235528D01*
X131093265Y-116153340D01*
X130988660Y-116048735D01*
X130906472Y-115925732D01*
X130849860Y-115789059D01*
X130821000Y-115643967D01*
X130821000Y-115496033D01*
X130849860Y-115350941D01*
X130906472Y-115214268D01*
X130988660Y-115091265D01*
X131093265Y-114986660D01*
X131216268Y-114904472D01*
X131352941Y-114847860D01*
X131498032Y-114819000D01*
X131645968Y-114819000D01*
X131791059Y-114847860D01*
G37*
G36*
X136871059Y-114847860D02*
G01*
X137007732Y-114904472D01*
X137130735Y-114986660D01*
X137235340Y-115091265D01*
X137317528Y-115214268D01*
X137374140Y-115350941D01*
X137403000Y-115496033D01*
X137403000Y-115643967D01*
X137374140Y-115789059D01*
X137317528Y-115925732D01*
X137235340Y-116048735D01*
X137130735Y-116153340D01*
X137007732Y-116235528D01*
X137007731Y-116235529D01*
X137007730Y-116235529D01*
X136871059Y-116292140D01*
X136725968Y-116321000D01*
X136578032Y-116321000D01*
X136432941Y-116292140D01*
X136296270Y-116235529D01*
X136296269Y-116235529D01*
X136296268Y-116235528D01*
X136173265Y-116153340D01*
X136068660Y-116048735D01*
X135986472Y-115925732D01*
X135929860Y-115789059D01*
X135901000Y-115643967D01*
X135901000Y-115496033D01*
X135929860Y-115350941D01*
X135986472Y-115214268D01*
X136068660Y-115091265D01*
X136173265Y-114986660D01*
X136296268Y-114904472D01*
X136432941Y-114847860D01*
X136578032Y-114819000D01*
X136725968Y-114819000D01*
X136871059Y-114847860D01*
G37*
G36*
X167859059Y-114847860D02*
G01*
X167995732Y-114904472D01*
X168118735Y-114986660D01*
X168223340Y-115091265D01*
X168305528Y-115214268D01*
X168362140Y-115350941D01*
X168391000Y-115496033D01*
X168391000Y-115643967D01*
X168362140Y-115789059D01*
X168305528Y-115925732D01*
X168223340Y-116048735D01*
X168118735Y-116153340D01*
X167995732Y-116235528D01*
X167995731Y-116235529D01*
X167995730Y-116235529D01*
X167859059Y-116292140D01*
X167713968Y-116321000D01*
X167566032Y-116321000D01*
X167420941Y-116292140D01*
X167284270Y-116235529D01*
X167284269Y-116235529D01*
X167284268Y-116235528D01*
X167161265Y-116153340D01*
X167056660Y-116048735D01*
X166974472Y-115925732D01*
X166917860Y-115789059D01*
X166889000Y-115643967D01*
X166889000Y-115496033D01*
X166917860Y-115350941D01*
X166974472Y-115214268D01*
X167056660Y-115091265D01*
X167161265Y-114986660D01*
X167284268Y-114904472D01*
X167420941Y-114847860D01*
X167566032Y-114819000D01*
X167713968Y-114819000D01*
X167859059Y-114847860D01*
G37*
G36*
X175428228Y-112846703D02*
G01*
X175583100Y-112910853D01*
X175722481Y-113003985D01*
X175841015Y-113122519D01*
X175934147Y-113261900D01*
X175998297Y-113416772D01*
X176031000Y-113581184D01*
X176031000Y-113748816D01*
X175998297Y-113913228D01*
X175934147Y-114068100D01*
X175841015Y-114207481D01*
X175722481Y-114326015D01*
X175583100Y-114419147D01*
X175428228Y-114483297D01*
X175263816Y-114516000D01*
X175096184Y-114516000D01*
X174931772Y-114483297D01*
X174776900Y-114419147D01*
X174637519Y-114326015D01*
X174518985Y-114207481D01*
X174425853Y-114068100D01*
X174361703Y-113913228D01*
X174329000Y-113748816D01*
X174329000Y-113581184D01*
X174361703Y-113416772D01*
X174425853Y-113261900D01*
X174518985Y-113122519D01*
X174637519Y-113003985D01*
X174776900Y-112910853D01*
X174931772Y-112846703D01*
X175096184Y-112814000D01*
X175263816Y-112814000D01*
X175428228Y-112846703D01*
G37*
G36*
X170428228Y-112846703D02*
G01*
X170583100Y-112910853D01*
X170722481Y-113003985D01*
X170841015Y-113122519D01*
X170934147Y-113261900D01*
X170998297Y-113416772D01*
X171031000Y-113581184D01*
X171031000Y-113748816D01*
X170998297Y-113913228D01*
X170934147Y-114068100D01*
X170841015Y-114207481D01*
X170722481Y-114326015D01*
X170583100Y-114419147D01*
X170428228Y-114483297D01*
X170263816Y-114516000D01*
X170096184Y-114516000D01*
X169931772Y-114483297D01*
X169776900Y-114419147D01*
X169637519Y-114326015D01*
X169518985Y-114207481D01*
X169425853Y-114068100D01*
X169361703Y-113913228D01*
X169329000Y-113748816D01*
X169329000Y-113581184D01*
X169361703Y-113416772D01*
X169425853Y-113261900D01*
X169518985Y-113122519D01*
X169637519Y-113003985D01*
X169776900Y-112910853D01*
X169931772Y-112846703D01*
X170096184Y-112814000D01*
X170263816Y-112814000D01*
X170428228Y-112846703D01*
G37*
G36*
X145028228Y-112211703D02*
G01*
X145183100Y-112275853D01*
X145322481Y-112368985D01*
X145441015Y-112487519D01*
X145534147Y-112626900D01*
X145598297Y-112781772D01*
X145631000Y-112946184D01*
X145631000Y-113113816D01*
X145598297Y-113278228D01*
X145534147Y-113433100D01*
X145441015Y-113572481D01*
X145322481Y-113691015D01*
X145183100Y-113784147D01*
X145028228Y-113848297D01*
X144863816Y-113881000D01*
X144696184Y-113881000D01*
X144531772Y-113848297D01*
X144376900Y-113784147D01*
X144237519Y-113691015D01*
X144118985Y-113572481D01*
X144025853Y-113433100D01*
X143961703Y-113278228D01*
X143929000Y-113113816D01*
X143929000Y-112946184D01*
X143961703Y-112781772D01*
X144025853Y-112626900D01*
X144118985Y-112487519D01*
X144237519Y-112368985D01*
X144376900Y-112275853D01*
X144531772Y-112211703D01*
X144696184Y-112179000D01*
X144863816Y-112179000D01*
X145028228Y-112211703D01*
G37*
G36*
X150028228Y-112211703D02*
G01*
X150183100Y-112275853D01*
X150322481Y-112368985D01*
X150441015Y-112487519D01*
X150534147Y-112626900D01*
X150598297Y-112781772D01*
X150631000Y-112946184D01*
X150631000Y-113113816D01*
X150598297Y-113278228D01*
X150534147Y-113433100D01*
X150441015Y-113572481D01*
X150322481Y-113691015D01*
X150183100Y-113784147D01*
X150028228Y-113848297D01*
X149863816Y-113881000D01*
X149696184Y-113881000D01*
X149531772Y-113848297D01*
X149376900Y-113784147D01*
X149237519Y-113691015D01*
X149118985Y-113572481D01*
X149025853Y-113433100D01*
X148961703Y-113278228D01*
X148929000Y-113113816D01*
X148929000Y-112946184D01*
X148961703Y-112781772D01*
X149025853Y-112626900D01*
X149118985Y-112487519D01*
X149237519Y-112368985D01*
X149376900Y-112275853D01*
X149531772Y-112211703D01*
X149696184Y-112179000D01*
X149863816Y-112179000D01*
X150028228Y-112211703D01*
G37*
G36*
X141730589Y-112268876D02*
G01*
X141829893Y-112288629D01*
X141970206Y-112346748D01*
X142096484Y-112431125D01*
X142203875Y-112538516D01*
X142288252Y-112664794D01*
X142346371Y-112805107D01*
X142346371Y-112805109D01*
X142376000Y-112954062D01*
X142376000Y-113105938D01*
X142366124Y-113155589D01*
X142346371Y-113254893D01*
X142288252Y-113395206D01*
X142203875Y-113521484D01*
X142096484Y-113628875D01*
X141970206Y-113713252D01*
X141829893Y-113771371D01*
X141765663Y-113784147D01*
X141680938Y-113801000D01*
X141529062Y-113801000D01*
X141444337Y-113784147D01*
X141380107Y-113771371D01*
X141239794Y-113713252D01*
X141113516Y-113628875D01*
X141006125Y-113521484D01*
X140921748Y-113395206D01*
X140863629Y-113254893D01*
X140843876Y-113155589D01*
X140834000Y-113105938D01*
X140834000Y-112954062D01*
X140863629Y-112805109D01*
X140863629Y-112805107D01*
X140921748Y-112664794D01*
X141006125Y-112538516D01*
X141113516Y-112431125D01*
X141239794Y-112346748D01*
X141380107Y-112288629D01*
X141479411Y-112268876D01*
X141529062Y-112259000D01*
X141680938Y-112259000D01*
X141730589Y-112268876D01*
G37*
G36*
X131791059Y-112307860D02*
G01*
X131927732Y-112364472D01*
X132050735Y-112446660D01*
X132155340Y-112551265D01*
X132237528Y-112674268D01*
X132294140Y-112810941D01*
X132323000Y-112956033D01*
X132323000Y-113103967D01*
X132294140Y-113249059D01*
X132237528Y-113385732D01*
X132155340Y-113508735D01*
X132050735Y-113613340D01*
X131927732Y-113695528D01*
X131927731Y-113695529D01*
X131927730Y-113695529D01*
X131791059Y-113752140D01*
X131645968Y-113781000D01*
X131498032Y-113781000D01*
X131352941Y-113752140D01*
X131216270Y-113695529D01*
X131216269Y-113695529D01*
X131216268Y-113695528D01*
X131093265Y-113613340D01*
X130988660Y-113508735D01*
X130906472Y-113385732D01*
X130849860Y-113249059D01*
X130821000Y-113103967D01*
X130821000Y-112956033D01*
X130849860Y-112810941D01*
X130906472Y-112674268D01*
X130988660Y-112551265D01*
X131093265Y-112446660D01*
X131216268Y-112364472D01*
X131352941Y-112307860D01*
X131498032Y-112279000D01*
X131645968Y-112279000D01*
X131791059Y-112307860D01*
G37*
G36*
X154524059Y-112307860D02*
G01*
X154660732Y-112364472D01*
X154783735Y-112446660D01*
X154888340Y-112551265D01*
X154970528Y-112674268D01*
X155027140Y-112810941D01*
X155056000Y-112956033D01*
X155056000Y-113103967D01*
X155027140Y-113249059D01*
X154970528Y-113385732D01*
X154888340Y-113508735D01*
X154783735Y-113613340D01*
X154660732Y-113695528D01*
X154660731Y-113695529D01*
X154660730Y-113695529D01*
X154524059Y-113752140D01*
X154378968Y-113781000D01*
X154231032Y-113781000D01*
X154085941Y-113752140D01*
X153949270Y-113695529D01*
X153949269Y-113695529D01*
X153949268Y-113695528D01*
X153826265Y-113613340D01*
X153721660Y-113508735D01*
X153639472Y-113385732D01*
X153582860Y-113249059D01*
X153554000Y-113103967D01*
X153554000Y-112956033D01*
X153582860Y-112810941D01*
X153639472Y-112674268D01*
X153721660Y-112551265D01*
X153826265Y-112446660D01*
X153949268Y-112364472D01*
X154085941Y-112307860D01*
X154231032Y-112279000D01*
X154378968Y-112279000D01*
X154524059Y-112307860D01*
G37*
G36*
X159604059Y-112307860D02*
G01*
X159740732Y-112364472D01*
X159863735Y-112446660D01*
X159968340Y-112551265D01*
X160050528Y-112674268D01*
X160107140Y-112810941D01*
X160136000Y-112956033D01*
X160136000Y-113103967D01*
X160107140Y-113249059D01*
X160050528Y-113385732D01*
X159968340Y-113508735D01*
X159863735Y-113613340D01*
X159740732Y-113695528D01*
X159740731Y-113695529D01*
X159740730Y-113695529D01*
X159604059Y-113752140D01*
X159458968Y-113781000D01*
X159311032Y-113781000D01*
X159165941Y-113752140D01*
X159029270Y-113695529D01*
X159029269Y-113695529D01*
X159029268Y-113695528D01*
X158906265Y-113613340D01*
X158801660Y-113508735D01*
X158719472Y-113385732D01*
X158662860Y-113249059D01*
X158634000Y-113103967D01*
X158634000Y-112956033D01*
X158662860Y-112810941D01*
X158719472Y-112674268D01*
X158801660Y-112551265D01*
X158906265Y-112446660D01*
X159029268Y-112364472D01*
X159165941Y-112307860D01*
X159311032Y-112279000D01*
X159458968Y-112279000D01*
X159604059Y-112307860D01*
G37*
G36*
X136871059Y-112307860D02*
G01*
X137007732Y-112364472D01*
X137130735Y-112446660D01*
X137235340Y-112551265D01*
X137317528Y-112674268D01*
X137374140Y-112810941D01*
X137403000Y-112956033D01*
X137403000Y-113103967D01*
X137374140Y-113249059D01*
X137317528Y-113385732D01*
X137235340Y-113508735D01*
X137130735Y-113613340D01*
X137007732Y-113695528D01*
X137007731Y-113695529D01*
X137007730Y-113695529D01*
X136871059Y-113752140D01*
X136725968Y-113781000D01*
X136578032Y-113781000D01*
X136432941Y-113752140D01*
X136296270Y-113695529D01*
X136296269Y-113695529D01*
X136296268Y-113695528D01*
X136173265Y-113613340D01*
X136068660Y-113508735D01*
X135986472Y-113385732D01*
X135929860Y-113249059D01*
X135901000Y-113103967D01*
X135901000Y-112956033D01*
X135929860Y-112810941D01*
X135986472Y-112674268D01*
X136068660Y-112551265D01*
X136173265Y-112446660D01*
X136296268Y-112364472D01*
X136432941Y-112307860D01*
X136578032Y-112279000D01*
X136725968Y-112279000D01*
X136871059Y-112307860D01*
G37*
G36*
X159604059Y-109767860D02*
G01*
X159649845Y-109786825D01*
X159740732Y-109824472D01*
X159863735Y-109906660D01*
X159968340Y-110011265D01*
X160050528Y-110134268D01*
X160107140Y-110270941D01*
X160136000Y-110416033D01*
X160136000Y-110563967D01*
X160107140Y-110709059D01*
X160050528Y-110845732D01*
X159968340Y-110968735D01*
X159863735Y-111073340D01*
X159740732Y-111155528D01*
X159740731Y-111155529D01*
X159740730Y-111155529D01*
X159604059Y-111212140D01*
X159458968Y-111241000D01*
X159311032Y-111241000D01*
X159165941Y-111212140D01*
X159029270Y-111155529D01*
X159029269Y-111155529D01*
X159029268Y-111155528D01*
X158906265Y-111073340D01*
X158801660Y-110968735D01*
X158719472Y-110845732D01*
X158662860Y-110709059D01*
X158634000Y-110563967D01*
X158634000Y-110416033D01*
X158662860Y-110270941D01*
X158719472Y-110134268D01*
X158801660Y-110011265D01*
X158906265Y-109906660D01*
X159029268Y-109824472D01*
X159120156Y-109786825D01*
X159165941Y-109767860D01*
X159311032Y-109739000D01*
X159458968Y-109739000D01*
X159604059Y-109767860D01*
G37*
G36*
X154524059Y-109767860D02*
G01*
X154569845Y-109786825D01*
X154660732Y-109824472D01*
X154783735Y-109906660D01*
X154888340Y-110011265D01*
X154970528Y-110134268D01*
X155027140Y-110270941D01*
X155056000Y-110416033D01*
X155056000Y-110563967D01*
X155027140Y-110709059D01*
X154970528Y-110845732D01*
X154888340Y-110968735D01*
X154783735Y-111073340D01*
X154660732Y-111155528D01*
X154660731Y-111155529D01*
X154660730Y-111155529D01*
X154524059Y-111212140D01*
X154378968Y-111241000D01*
X154231032Y-111241000D01*
X154085941Y-111212140D01*
X153949270Y-111155529D01*
X153949269Y-111155529D01*
X153949268Y-111155528D01*
X153826265Y-111073340D01*
X153721660Y-110968735D01*
X153639472Y-110845732D01*
X153582860Y-110709059D01*
X153554000Y-110563967D01*
X153554000Y-110416033D01*
X153582860Y-110270941D01*
X153639472Y-110134268D01*
X153721660Y-110011265D01*
X153826265Y-109906660D01*
X153949268Y-109824472D01*
X154040156Y-109786825D01*
X154085941Y-109767860D01*
X154231032Y-109739000D01*
X154378968Y-109739000D01*
X154524059Y-109767860D01*
G37*
G36*
X142406823Y-107981313D02*
G01*
X142537380Y-108020917D01*
X142547437Y-108023968D01*
X142567242Y-108029976D01*
X142699906Y-108100886D01*
X142715078Y-108108996D01*
X142844659Y-108215341D01*
X142951004Y-108344922D01*
X142951005Y-108344924D01*
X143030024Y-108492758D01*
X143078687Y-108653178D01*
X143091000Y-108778197D01*
X143091000Y-109661804D01*
X143078687Y-109786823D01*
X143030024Y-109947242D01*
X143015642Y-109974148D01*
X142951004Y-110095078D01*
X142844659Y-110224659D01*
X142715077Y-110331005D01*
X142567241Y-110410024D01*
X142567238Y-110410025D01*
X142547432Y-110416033D01*
X142406822Y-110458687D01*
X142240000Y-110475117D01*
X142073177Y-110458687D01*
X141932567Y-110416033D01*
X141912761Y-110410025D01*
X141912758Y-110410024D01*
X141764924Y-110331005D01*
X141764922Y-110331004D01*
X141635341Y-110224659D01*
X141528995Y-110095077D01*
X141449976Y-109947241D01*
X141401313Y-109786822D01*
X141389000Y-109661803D01*
X141389000Y-108778197D01*
X141401314Y-108653177D01*
X141449977Y-108492758D01*
X141528996Y-108344924D01*
X141528997Y-108344922D01*
X141635342Y-108215341D01*
X141764923Y-108108996D01*
X141780095Y-108100886D01*
X141912759Y-108029976D01*
X141932565Y-108023968D01*
X141942621Y-108020917D01*
X142073178Y-107981313D01*
X142240000Y-107964883D01*
X142406823Y-107981313D01*
G37*
G36*
X139866823Y-107981313D02*
G01*
X139997380Y-108020917D01*
X140007437Y-108023968D01*
X140027242Y-108029976D01*
X140159906Y-108100886D01*
X140175078Y-108108996D01*
X140304659Y-108215341D01*
X140411004Y-108344922D01*
X140411005Y-108344924D01*
X140490024Y-108492758D01*
X140538687Y-108653178D01*
X140551000Y-108778197D01*
X140551000Y-109661804D01*
X140538687Y-109786823D01*
X140490024Y-109947242D01*
X140475642Y-109974148D01*
X140411004Y-110095078D01*
X140304659Y-110224659D01*
X140175077Y-110331005D01*
X140027241Y-110410024D01*
X140027238Y-110410025D01*
X140007432Y-110416033D01*
X139866822Y-110458687D01*
X139700000Y-110475117D01*
X139533177Y-110458687D01*
X139392567Y-110416033D01*
X139372761Y-110410025D01*
X139372758Y-110410024D01*
X139224924Y-110331005D01*
X139224922Y-110331004D01*
X139095341Y-110224659D01*
X138988995Y-110095077D01*
X138909976Y-109947241D01*
X138861313Y-109786822D01*
X138849000Y-109661803D01*
X138849000Y-108778197D01*
X138861314Y-108653177D01*
X138909977Y-108492758D01*
X138988996Y-108344924D01*
X138988997Y-108344922D01*
X139095342Y-108215341D01*
X139224923Y-108108996D01*
X139240095Y-108100886D01*
X139372759Y-108029976D01*
X139392565Y-108023968D01*
X139402621Y-108020917D01*
X139533178Y-107981313D01*
X139700000Y-107964883D01*
X139866823Y-107981313D01*
G37*
G36*
X137326823Y-107981313D02*
G01*
X137457380Y-108020917D01*
X137467437Y-108023968D01*
X137487242Y-108029976D01*
X137619906Y-108100886D01*
X137635078Y-108108996D01*
X137764659Y-108215341D01*
X137871004Y-108344922D01*
X137871005Y-108344924D01*
X137950024Y-108492758D01*
X137998687Y-108653178D01*
X138011000Y-108778197D01*
X138011000Y-109661804D01*
X137998687Y-109786823D01*
X137950024Y-109947242D01*
X137935642Y-109974148D01*
X137871004Y-110095078D01*
X137764659Y-110224659D01*
X137635077Y-110331005D01*
X137487241Y-110410024D01*
X137487238Y-110410025D01*
X137467432Y-110416033D01*
X137326822Y-110458687D01*
X137160000Y-110475117D01*
X136993177Y-110458687D01*
X136852567Y-110416033D01*
X136832761Y-110410025D01*
X136832758Y-110410024D01*
X136684924Y-110331005D01*
X136684922Y-110331004D01*
X136555341Y-110224659D01*
X136448995Y-110095077D01*
X136369976Y-109947241D01*
X136321313Y-109786822D01*
X136309000Y-109661803D01*
X136309000Y-108778197D01*
X136321314Y-108653177D01*
X136369977Y-108492758D01*
X136448996Y-108344924D01*
X136448997Y-108344922D01*
X136555342Y-108215341D01*
X136684923Y-108108996D01*
X136700095Y-108100886D01*
X136832759Y-108029976D01*
X136852565Y-108023968D01*
X136862621Y-108020917D01*
X136993178Y-107981313D01*
X137160000Y-107964883D01*
X137326823Y-107981313D01*
G37*
G36*
X134786823Y-107981313D02*
G01*
X134917380Y-108020917D01*
X134927437Y-108023968D01*
X134947242Y-108029976D01*
X135079906Y-108100886D01*
X135095078Y-108108996D01*
X135224659Y-108215341D01*
X135331004Y-108344922D01*
X135331005Y-108344924D01*
X135410024Y-108492758D01*
X135458687Y-108653178D01*
X135471000Y-108778197D01*
X135471000Y-109661804D01*
X135458687Y-109786823D01*
X135410024Y-109947242D01*
X135395642Y-109974148D01*
X135331004Y-110095078D01*
X135224659Y-110224659D01*
X135095077Y-110331005D01*
X134947241Y-110410024D01*
X134947238Y-110410025D01*
X134927432Y-110416033D01*
X134786822Y-110458687D01*
X134620000Y-110475117D01*
X134453177Y-110458687D01*
X134312567Y-110416033D01*
X134292761Y-110410025D01*
X134292758Y-110410024D01*
X134144924Y-110331005D01*
X134144922Y-110331004D01*
X134015341Y-110224659D01*
X133908995Y-110095077D01*
X133829976Y-109947241D01*
X133781313Y-109786822D01*
X133769000Y-109661803D01*
X133769000Y-108778197D01*
X133781314Y-108653177D01*
X133829977Y-108492758D01*
X133908996Y-108344924D01*
X133908997Y-108344922D01*
X134015342Y-108215341D01*
X134144923Y-108108996D01*
X134160095Y-108100886D01*
X134292759Y-108029976D01*
X134312565Y-108023968D01*
X134322621Y-108020917D01*
X134453178Y-107981313D01*
X134620000Y-107964883D01*
X134786823Y-107981313D01*
G37*
G36*
X175428228Y-108401703D02*
G01*
X175583100Y-108465853D01*
X175722481Y-108558985D01*
X175841015Y-108677519D01*
X175934147Y-108816900D01*
X175998297Y-108971772D01*
X176031000Y-109136184D01*
X176031000Y-109303816D01*
X175998297Y-109468228D01*
X175934147Y-109623100D01*
X175841015Y-109762481D01*
X175722481Y-109881015D01*
X175583100Y-109974147D01*
X175428228Y-110038297D01*
X175263816Y-110071000D01*
X175096184Y-110071000D01*
X174931772Y-110038297D01*
X174776900Y-109974147D01*
X174637519Y-109881015D01*
X174518985Y-109762481D01*
X174425853Y-109623100D01*
X174361703Y-109468228D01*
X174329000Y-109303816D01*
X174329000Y-109136184D01*
X174361703Y-108971772D01*
X174425853Y-108816900D01*
X174518985Y-108677519D01*
X174637519Y-108558985D01*
X174776900Y-108465853D01*
X174931772Y-108401703D01*
X175096184Y-108369000D01*
X175263816Y-108369000D01*
X175428228Y-108401703D01*
G37*
G36*
X170428228Y-108401703D02*
G01*
X170583100Y-108465853D01*
X170722481Y-108558985D01*
X170841015Y-108677519D01*
X170934147Y-108816900D01*
X170998297Y-108971772D01*
X171031000Y-109136184D01*
X171031000Y-109303816D01*
X170998297Y-109468228D01*
X170934147Y-109623100D01*
X170841015Y-109762481D01*
X170722481Y-109881015D01*
X170583100Y-109974147D01*
X170428228Y-110038297D01*
X170263816Y-110071000D01*
X170096184Y-110071000D01*
X169931772Y-110038297D01*
X169776900Y-109974147D01*
X169637519Y-109881015D01*
X169518985Y-109762481D01*
X169425853Y-109623100D01*
X169361703Y-109468228D01*
X169329000Y-109303816D01*
X169329000Y-109136184D01*
X169361703Y-108971772D01*
X169425853Y-108816900D01*
X169518985Y-108677519D01*
X169637519Y-108558985D01*
X169776900Y-108465853D01*
X169931772Y-108401703D01*
X170096184Y-108369000D01*
X170263816Y-108369000D01*
X170428228Y-108401703D01*
G37*
G36*
X151378228Y-108401703D02*
G01*
X151533100Y-108465853D01*
X151672481Y-108558985D01*
X151791015Y-108677519D01*
X151884147Y-108816900D01*
X151948297Y-108971772D01*
X151981000Y-109136184D01*
X151981000Y-109303816D01*
X151948297Y-109468228D01*
X151884147Y-109623100D01*
X151791015Y-109762481D01*
X151672481Y-109881015D01*
X151533100Y-109974147D01*
X151378228Y-110038297D01*
X151213816Y-110071000D01*
X151046184Y-110071000D01*
X150881772Y-110038297D01*
X150726900Y-109974147D01*
X150587519Y-109881015D01*
X150468985Y-109762481D01*
X150375853Y-109623100D01*
X150311703Y-109468228D01*
X150279000Y-109303816D01*
X150279000Y-109136184D01*
X150311703Y-108971772D01*
X150375853Y-108816900D01*
X150468985Y-108677519D01*
X150587519Y-108558985D01*
X150726900Y-108465853D01*
X150881772Y-108401703D01*
X151046184Y-108369000D01*
X151213816Y-108369000D01*
X151378228Y-108401703D01*
G37*
G36*
X146933228Y-107686703D02*
G01*
X147088100Y-107750853D01*
X147227481Y-107843985D01*
X147346015Y-107962519D01*
X147439147Y-108101900D01*
X147503297Y-108256772D01*
X147536000Y-108421184D01*
X147536000Y-108588816D01*
X147503297Y-108753228D01*
X147439147Y-108908100D01*
X147346015Y-109047481D01*
X147227481Y-109166015D01*
X147088100Y-109259147D01*
X146933228Y-109323297D01*
X146768816Y-109356000D01*
X146601184Y-109356000D01*
X146436772Y-109323297D01*
X146281900Y-109259147D01*
X146142519Y-109166015D01*
X146023985Y-109047481D01*
X145930853Y-108908100D01*
X145866703Y-108753228D01*
X145834000Y-108588816D01*
X145834000Y-108421184D01*
X145866703Y-108256772D01*
X145930853Y-108101900D01*
X146023985Y-107962519D01*
X146142519Y-107843985D01*
X146281900Y-107750853D01*
X146436772Y-107686703D01*
X146601184Y-107654000D01*
X146768816Y-107654000D01*
X146933228Y-107686703D01*
G37*
G36*
X154524059Y-107227860D02*
G01*
X154660732Y-107284472D01*
X154783735Y-107366660D01*
X154888340Y-107471265D01*
X154970528Y-107594268D01*
X154970529Y-107594270D01*
X155027140Y-107730941D01*
X155056000Y-107876032D01*
X155056000Y-108023968D01*
X155040498Y-108101903D01*
X155027140Y-108169059D01*
X154970528Y-108305732D01*
X154888340Y-108428735D01*
X154783735Y-108533340D01*
X154660732Y-108615528D01*
X154660731Y-108615529D01*
X154660730Y-108615529D01*
X154524059Y-108672140D01*
X154378968Y-108701000D01*
X154231032Y-108701000D01*
X154085941Y-108672140D01*
X153949270Y-108615529D01*
X153949269Y-108615529D01*
X153949268Y-108615528D01*
X153826265Y-108533340D01*
X153721660Y-108428735D01*
X153639472Y-108305732D01*
X153582860Y-108169059D01*
X153569502Y-108101903D01*
X153554000Y-108023968D01*
X153554000Y-107876032D01*
X153582860Y-107730941D01*
X153639471Y-107594270D01*
X153639472Y-107594268D01*
X153721660Y-107471265D01*
X153826265Y-107366660D01*
X153949268Y-107284472D01*
X154085941Y-107227860D01*
X154231032Y-107199000D01*
X154378968Y-107199000D01*
X154524059Y-107227860D01*
G37*
G36*
X159604059Y-107227860D02*
G01*
X159740732Y-107284472D01*
X159863735Y-107366660D01*
X159968340Y-107471265D01*
X160050528Y-107594268D01*
X160050529Y-107594270D01*
X160107140Y-107730941D01*
X160136000Y-107876032D01*
X160136000Y-108023968D01*
X160120498Y-108101903D01*
X160107140Y-108169059D01*
X160050528Y-108305732D01*
X159968340Y-108428735D01*
X159863735Y-108533340D01*
X159740732Y-108615528D01*
X159740731Y-108615529D01*
X159740730Y-108615529D01*
X159604059Y-108672140D01*
X159458968Y-108701000D01*
X159311032Y-108701000D01*
X159165941Y-108672140D01*
X159029270Y-108615529D01*
X159029269Y-108615529D01*
X159029268Y-108615528D01*
X158906265Y-108533340D01*
X158801660Y-108428735D01*
X158719472Y-108305732D01*
X158662860Y-108169059D01*
X158649502Y-108101903D01*
X158634000Y-108023968D01*
X158634000Y-107876032D01*
X158662860Y-107730941D01*
X158719471Y-107594270D01*
X158719472Y-107594268D01*
X158801660Y-107471265D01*
X158906265Y-107366660D01*
X159029268Y-107284472D01*
X159165941Y-107227860D01*
X159311032Y-107199000D01*
X159458968Y-107199000D01*
X159604059Y-107227860D01*
G37*
G36*
X131693228Y-105861703D02*
G01*
X131848100Y-105925853D01*
X131987481Y-106018985D01*
X132106015Y-106137519D01*
X132199147Y-106276900D01*
X132263297Y-106431772D01*
X132296000Y-106596184D01*
X132296000Y-106763816D01*
X132263297Y-106928228D01*
X132199147Y-107083100D01*
X132106015Y-107222481D01*
X131987481Y-107341015D01*
X131848100Y-107434147D01*
X131693228Y-107498297D01*
X131528816Y-107531000D01*
X131361184Y-107531000D01*
X131196772Y-107498297D01*
X131041900Y-107434147D01*
X130902519Y-107341015D01*
X130783985Y-107222481D01*
X130690853Y-107083100D01*
X130626703Y-106928228D01*
X130594000Y-106763816D01*
X130594000Y-106596184D01*
X130626703Y-106431772D01*
X130690853Y-106276900D01*
X130783985Y-106137519D01*
X130902519Y-106018985D01*
X131041900Y-105925853D01*
X131196772Y-105861703D01*
X131361184Y-105829000D01*
X131528816Y-105829000D01*
X131693228Y-105861703D01*
G37*
G36*
X162779059Y-104687860D02*
G01*
X162915732Y-104744472D01*
X163038735Y-104826660D01*
X163143340Y-104931265D01*
X163225528Y-105054268D01*
X163282140Y-105190941D01*
X163311000Y-105336033D01*
X163311000Y-105483967D01*
X163282140Y-105629059D01*
X163225528Y-105765732D01*
X163143340Y-105888735D01*
X163038735Y-105993340D01*
X162915732Y-106075528D01*
X162915731Y-106075529D01*
X162915730Y-106075529D01*
X162779059Y-106132140D01*
X162633968Y-106161000D01*
X162486032Y-106161000D01*
X162340941Y-106132140D01*
X162204270Y-106075529D01*
X162204269Y-106075529D01*
X162204268Y-106075528D01*
X162081265Y-105993340D01*
X161976660Y-105888735D01*
X161894472Y-105765732D01*
X161837860Y-105629059D01*
X161809000Y-105483967D01*
X161809000Y-105336033D01*
X161837860Y-105190941D01*
X161894472Y-105054268D01*
X161976660Y-104931265D01*
X162081265Y-104826660D01*
X162204268Y-104744472D01*
X162340941Y-104687860D01*
X162486032Y-104659000D01*
X162633968Y-104659000D01*
X162779059Y-104687860D01*
G37*
G36*
X167859059Y-104687860D02*
G01*
X167995732Y-104744472D01*
X168118735Y-104826660D01*
X168223340Y-104931265D01*
X168305528Y-105054268D01*
X168362140Y-105190941D01*
X168391000Y-105336033D01*
X168391000Y-105483967D01*
X168362140Y-105629059D01*
X168305528Y-105765732D01*
X168223340Y-105888735D01*
X168118735Y-105993340D01*
X167995732Y-106075528D01*
X167995731Y-106075529D01*
X167995730Y-106075529D01*
X167859059Y-106132140D01*
X167713968Y-106161000D01*
X167566032Y-106161000D01*
X167420941Y-106132140D01*
X167284270Y-106075529D01*
X167284269Y-106075529D01*
X167284268Y-106075528D01*
X167161265Y-105993340D01*
X167056660Y-105888735D01*
X166974472Y-105765732D01*
X166917860Y-105629059D01*
X166889000Y-105483967D01*
X166889000Y-105336033D01*
X166917860Y-105190941D01*
X166974472Y-105054268D01*
X167056660Y-104931265D01*
X167161265Y-104826660D01*
X167284268Y-104744472D01*
X167420941Y-104687860D01*
X167566032Y-104659000D01*
X167713968Y-104659000D01*
X167859059Y-104687860D01*
G37*
G36*
X154524059Y-104687860D02*
G01*
X154660732Y-104744472D01*
X154783735Y-104826660D01*
X154888340Y-104931265D01*
X154970528Y-105054268D01*
X155027140Y-105190941D01*
X155056000Y-105336033D01*
X155056000Y-105483967D01*
X155027140Y-105629059D01*
X154970528Y-105765732D01*
X154888340Y-105888735D01*
X154783735Y-105993340D01*
X154660732Y-106075528D01*
X154660731Y-106075529D01*
X154660730Y-106075529D01*
X154524059Y-106132140D01*
X154378968Y-106161000D01*
X154231032Y-106161000D01*
X154085941Y-106132140D01*
X153949270Y-106075529D01*
X153949269Y-106075529D01*
X153949268Y-106075528D01*
X153826265Y-105993340D01*
X153721660Y-105888735D01*
X153639472Y-105765732D01*
X153582860Y-105629059D01*
X153554000Y-105483967D01*
X153554000Y-105336033D01*
X153582860Y-105190941D01*
X153639472Y-105054268D01*
X153721660Y-104931265D01*
X153826265Y-104826660D01*
X153949268Y-104744472D01*
X154085941Y-104687860D01*
X154231032Y-104659000D01*
X154378968Y-104659000D01*
X154524059Y-104687860D01*
G37*
G36*
X159604059Y-104687860D02*
G01*
X159740732Y-104744472D01*
X159863735Y-104826660D01*
X159968340Y-104931265D01*
X160050528Y-105054268D01*
X160107140Y-105190941D01*
X160136000Y-105336033D01*
X160136000Y-105483967D01*
X160107140Y-105629059D01*
X160050528Y-105765732D01*
X159968340Y-105888735D01*
X159863735Y-105993340D01*
X159740732Y-106075528D01*
X159740731Y-106075529D01*
X159740730Y-106075529D01*
X159604059Y-106132140D01*
X159458968Y-106161000D01*
X159311032Y-106161000D01*
X159165941Y-106132140D01*
X159029270Y-106075529D01*
X159029269Y-106075529D01*
X159029268Y-106075528D01*
X158906265Y-105993340D01*
X158801660Y-105888735D01*
X158719472Y-105765732D01*
X158662860Y-105629059D01*
X158634000Y-105483967D01*
X158634000Y-105336033D01*
X158662860Y-105190941D01*
X158719472Y-105054268D01*
X158801660Y-104931265D01*
X158906265Y-104826660D01*
X159029268Y-104744472D01*
X159165941Y-104687860D01*
X159311032Y-104659000D01*
X159458968Y-104659000D01*
X159604059Y-104687860D01*
G37*
G36*
X175428228Y-103956703D02*
G01*
X175583100Y-104020853D01*
X175722481Y-104113985D01*
X175841015Y-104232519D01*
X175934147Y-104371900D01*
X175998297Y-104526772D01*
X176031000Y-104691184D01*
X176031000Y-104858816D01*
X175998297Y-105023228D01*
X175934147Y-105178100D01*
X175841015Y-105317481D01*
X175722481Y-105436015D01*
X175583100Y-105529147D01*
X175428228Y-105593297D01*
X175263816Y-105626000D01*
X175096184Y-105626000D01*
X174931772Y-105593297D01*
X174776900Y-105529147D01*
X174637519Y-105436015D01*
X174518985Y-105317481D01*
X174425853Y-105178100D01*
X174361703Y-105023228D01*
X174329000Y-104858816D01*
X174329000Y-104691184D01*
X174361703Y-104526772D01*
X174425853Y-104371900D01*
X174518985Y-104232519D01*
X174637519Y-104113985D01*
X174776900Y-104020853D01*
X174931772Y-103956703D01*
X175096184Y-103924000D01*
X175263816Y-103924000D01*
X175428228Y-103956703D01*
G37*
G36*
X170428228Y-103956703D02*
G01*
X170583100Y-104020853D01*
X170722481Y-104113985D01*
X170841015Y-104232519D01*
X170934147Y-104371900D01*
X170998297Y-104526772D01*
X171031000Y-104691184D01*
X171031000Y-104858816D01*
X170998297Y-105023228D01*
X170934147Y-105178100D01*
X170841015Y-105317481D01*
X170722481Y-105436015D01*
X170583100Y-105529147D01*
X170428228Y-105593297D01*
X170263816Y-105626000D01*
X170096184Y-105626000D01*
X169931772Y-105593297D01*
X169776900Y-105529147D01*
X169637519Y-105436015D01*
X169518985Y-105317481D01*
X169425853Y-105178100D01*
X169361703Y-105023228D01*
X169329000Y-104858816D01*
X169329000Y-104691184D01*
X169361703Y-104526772D01*
X169425853Y-104371900D01*
X169518985Y-104232519D01*
X169637519Y-104113985D01*
X169776900Y-104020853D01*
X169931772Y-103956703D01*
X170096184Y-103924000D01*
X170263816Y-103924000D01*
X170428228Y-103956703D01*
G37*
G36*
X151378228Y-103401703D02*
G01*
X151533100Y-103465853D01*
X151672481Y-103558985D01*
X151791015Y-103677519D01*
X151884147Y-103816900D01*
X151948297Y-103971772D01*
X151981000Y-104136184D01*
X151981000Y-104303816D01*
X151948297Y-104468228D01*
X151884147Y-104623100D01*
X151791015Y-104762481D01*
X151672481Y-104881015D01*
X151533100Y-104974147D01*
X151378228Y-105038297D01*
X151213816Y-105071000D01*
X151046184Y-105071000D01*
X150881772Y-105038297D01*
X150726900Y-104974147D01*
X150587519Y-104881015D01*
X150468985Y-104762481D01*
X150375853Y-104623100D01*
X150311703Y-104468228D01*
X150279000Y-104303816D01*
X150279000Y-104136184D01*
X150311703Y-103971772D01*
X150375853Y-103816900D01*
X150468985Y-103677519D01*
X150587519Y-103558985D01*
X150726900Y-103465853D01*
X150881772Y-103401703D01*
X151046184Y-103369000D01*
X151213816Y-103369000D01*
X151378228Y-103401703D01*
G37*
G36*
X146933228Y-102686703D02*
G01*
X147088100Y-102750853D01*
X147227481Y-102843985D01*
X147346015Y-102962519D01*
X147439147Y-103101900D01*
X147503297Y-103256772D01*
X147536000Y-103421184D01*
X147536000Y-103588816D01*
X147503297Y-103753228D01*
X147439147Y-103908100D01*
X147346015Y-104047481D01*
X147227481Y-104166015D01*
X147088100Y-104259147D01*
X146933228Y-104323297D01*
X146768816Y-104356000D01*
X146601184Y-104356000D01*
X146436772Y-104323297D01*
X146281900Y-104259147D01*
X146142519Y-104166015D01*
X146023985Y-104047481D01*
X145930853Y-103908100D01*
X145866703Y-103753228D01*
X145834000Y-103588816D01*
X145834000Y-103421184D01*
X145866703Y-103256772D01*
X145930853Y-103101900D01*
X146023985Y-102962519D01*
X146142519Y-102843985D01*
X146281900Y-102750853D01*
X146436772Y-102686703D01*
X146601184Y-102654000D01*
X146768816Y-102654000D01*
X146933228Y-102686703D01*
G37*
G36*
X137326823Y-100361313D02*
G01*
X137487242Y-100409976D01*
X137619906Y-100480886D01*
X137635078Y-100488996D01*
X137764659Y-100595341D01*
X137871004Y-100724922D01*
X137871005Y-100724924D01*
X137950024Y-100872758D01*
X137950025Y-100872761D01*
X137968745Y-100934472D01*
X137998687Y-101033178D01*
X138011000Y-101158197D01*
X138011000Y-102041804D01*
X137998687Y-102166823D01*
X137950024Y-102327242D01*
X137942662Y-102341015D01*
X137871004Y-102475078D01*
X137764659Y-102604659D01*
X137635077Y-102711005D01*
X137487241Y-102790024D01*
X137326822Y-102838687D01*
X137160000Y-102855117D01*
X136993177Y-102838687D01*
X136832758Y-102790024D01*
X136684924Y-102711005D01*
X136684922Y-102711004D01*
X136555341Y-102604659D01*
X136448995Y-102475077D01*
X136369976Y-102327241D01*
X136321313Y-102166822D01*
X136309000Y-102041803D01*
X136309000Y-101158197D01*
X136321314Y-101033177D01*
X136369977Y-100872758D01*
X136448996Y-100724924D01*
X136448997Y-100724922D01*
X136555342Y-100595341D01*
X136684923Y-100488996D01*
X136700095Y-100480886D01*
X136832759Y-100409976D01*
X136993178Y-100361313D01*
X137160000Y-100344883D01*
X137326823Y-100361313D01*
G37*
G36*
X134786823Y-100361313D02*
G01*
X134947242Y-100409976D01*
X135079906Y-100480886D01*
X135095078Y-100488996D01*
X135224659Y-100595341D01*
X135331004Y-100724922D01*
X135331005Y-100724924D01*
X135410024Y-100872758D01*
X135410025Y-100872761D01*
X135428745Y-100934472D01*
X135458687Y-101033178D01*
X135471000Y-101158197D01*
X135471000Y-102041804D01*
X135458687Y-102166823D01*
X135410024Y-102327242D01*
X135402662Y-102341015D01*
X135331004Y-102475078D01*
X135224659Y-102604659D01*
X135095077Y-102711005D01*
X134947241Y-102790024D01*
X134786822Y-102838687D01*
X134620000Y-102855117D01*
X134453177Y-102838687D01*
X134292758Y-102790024D01*
X134144924Y-102711005D01*
X134144922Y-102711004D01*
X134015341Y-102604659D01*
X133908995Y-102475077D01*
X133829976Y-102327241D01*
X133781313Y-102166822D01*
X133769000Y-102041803D01*
X133769000Y-101158197D01*
X133781314Y-101033177D01*
X133829977Y-100872758D01*
X133908996Y-100724924D01*
X133908997Y-100724922D01*
X134015342Y-100595341D01*
X134144923Y-100488996D01*
X134160095Y-100480886D01*
X134292759Y-100409976D01*
X134453178Y-100361313D01*
X134620000Y-100344883D01*
X134786823Y-100361313D01*
G37*
G36*
X139866823Y-100361313D02*
G01*
X140027242Y-100409976D01*
X140159906Y-100480886D01*
X140175078Y-100488996D01*
X140304659Y-100595341D01*
X140411004Y-100724922D01*
X140411005Y-100724924D01*
X140490024Y-100872758D01*
X140490025Y-100872761D01*
X140508745Y-100934472D01*
X140538687Y-101033178D01*
X140551000Y-101158197D01*
X140551000Y-102041804D01*
X140538687Y-102166823D01*
X140490024Y-102327242D01*
X140482662Y-102341015D01*
X140411004Y-102475078D01*
X140304659Y-102604659D01*
X140175077Y-102711005D01*
X140027241Y-102790024D01*
X139866822Y-102838687D01*
X139700000Y-102855117D01*
X139533177Y-102838687D01*
X139372758Y-102790024D01*
X139224924Y-102711005D01*
X139224922Y-102711004D01*
X139095341Y-102604659D01*
X138988995Y-102475077D01*
X138909976Y-102327241D01*
X138861313Y-102166822D01*
X138849000Y-102041803D01*
X138849000Y-101158197D01*
X138861314Y-101033177D01*
X138909977Y-100872758D01*
X138988996Y-100724924D01*
X138988997Y-100724922D01*
X139095342Y-100595341D01*
X139224923Y-100488996D01*
X139240095Y-100480886D01*
X139372759Y-100409976D01*
X139533178Y-100361313D01*
X139700000Y-100344883D01*
X139866823Y-100361313D01*
G37*
G36*
X143091000Y-102851000D02*
G01*
X141389000Y-102851000D01*
X141389000Y-100349000D01*
X143091000Y-100349000D01*
X143091000Y-102851000D01*
G37*
G36*
X131693228Y-100861703D02*
G01*
X131848100Y-100925853D01*
X131987481Y-101018985D01*
X132106015Y-101137519D01*
X132199147Y-101276900D01*
X132263297Y-101431772D01*
X132296000Y-101596184D01*
X132296000Y-101763816D01*
X132263297Y-101928228D01*
X132199147Y-102083100D01*
X132106015Y-102222481D01*
X131987481Y-102341015D01*
X131848100Y-102434147D01*
X131693228Y-102498297D01*
X131528816Y-102531000D01*
X131361184Y-102531000D01*
X131196772Y-102498297D01*
X131041900Y-102434147D01*
X130902519Y-102341015D01*
X130783985Y-102222481D01*
X130690853Y-102083100D01*
X130626703Y-101928228D01*
X130594000Y-101763816D01*
X130594000Y-101596184D01*
X130626703Y-101431772D01*
X130690853Y-101276900D01*
X130783985Y-101137519D01*
X130902519Y-101018985D01*
X131041900Y-100925853D01*
X131196772Y-100861703D01*
X131361184Y-100829000D01*
X131528816Y-100829000D01*
X131693228Y-100861703D01*
G37*
G36*
X162779059Y-100877860D02*
G01*
X162861401Y-100911967D01*
X162915732Y-100934472D01*
X163038735Y-101016660D01*
X163143340Y-101121265D01*
X163191761Y-101193732D01*
X163225529Y-101244270D01*
X163282140Y-101380941D01*
X163311000Y-101526032D01*
X163311000Y-101673968D01*
X163293128Y-101763816D01*
X163282140Y-101819059D01*
X163225528Y-101955732D01*
X163143340Y-102078735D01*
X163038735Y-102183340D01*
X162915732Y-102265528D01*
X162915731Y-102265529D01*
X162915730Y-102265529D01*
X162779059Y-102322140D01*
X162633968Y-102351000D01*
X162486032Y-102351000D01*
X162340941Y-102322140D01*
X162204270Y-102265529D01*
X162204269Y-102265529D01*
X162204268Y-102265528D01*
X162081265Y-102183340D01*
X161976660Y-102078735D01*
X161894472Y-101955732D01*
X161837860Y-101819059D01*
X161826872Y-101763816D01*
X161809000Y-101673968D01*
X161809000Y-101526032D01*
X161837860Y-101380941D01*
X161894471Y-101244270D01*
X161928239Y-101193732D01*
X161976660Y-101121265D01*
X162081265Y-101016660D01*
X162204268Y-100934472D01*
X162258600Y-100911967D01*
X162340941Y-100877860D01*
X162486032Y-100849000D01*
X162633968Y-100849000D01*
X162779059Y-100877860D01*
G37*
G36*
X167859059Y-100877860D02*
G01*
X167941401Y-100911967D01*
X167995732Y-100934472D01*
X168118735Y-101016660D01*
X168223340Y-101121265D01*
X168271761Y-101193732D01*
X168305529Y-101244270D01*
X168362140Y-101380941D01*
X168391000Y-101526032D01*
X168391000Y-101673968D01*
X168373128Y-101763816D01*
X168362140Y-101819059D01*
X168305528Y-101955732D01*
X168223340Y-102078735D01*
X168118735Y-102183340D01*
X167995732Y-102265528D01*
X167995731Y-102265529D01*
X167995730Y-102265529D01*
X167859059Y-102322140D01*
X167713968Y-102351000D01*
X167566032Y-102351000D01*
X167420941Y-102322140D01*
X167284270Y-102265529D01*
X167284269Y-102265529D01*
X167284268Y-102265528D01*
X167161265Y-102183340D01*
X167056660Y-102078735D01*
X166974472Y-101955732D01*
X166917860Y-101819059D01*
X166906872Y-101763816D01*
X166889000Y-101673968D01*
X166889000Y-101526032D01*
X166917860Y-101380941D01*
X166974471Y-101244270D01*
X167008239Y-101193732D01*
X167056660Y-101121265D01*
X167161265Y-101016660D01*
X167284268Y-100934472D01*
X167338600Y-100911967D01*
X167420941Y-100877860D01*
X167566032Y-100849000D01*
X167713968Y-100849000D01*
X167859059Y-100877860D01*
G37*
G36*
X153889059Y-100115860D02*
G01*
X154025732Y-100172472D01*
X154148735Y-100254660D01*
X154253340Y-100359265D01*
X154253341Y-100359267D01*
X154335529Y-100482270D01*
X154392140Y-100618941D01*
X154413221Y-100724922D01*
X154421000Y-100764033D01*
X154421000Y-100911967D01*
X154392140Y-101057059D01*
X154335528Y-101193732D01*
X154253340Y-101316735D01*
X154148735Y-101421340D01*
X154025732Y-101503528D01*
X154025731Y-101503529D01*
X154025730Y-101503529D01*
X153889059Y-101560140D01*
X153743968Y-101589000D01*
X153596032Y-101589000D01*
X153450941Y-101560140D01*
X153314270Y-101503529D01*
X153314269Y-101503529D01*
X153314268Y-101503528D01*
X153191265Y-101421340D01*
X153086660Y-101316735D01*
X153004472Y-101193732D01*
X152947860Y-101057059D01*
X152919000Y-100911967D01*
X152919000Y-100764033D01*
X152926780Y-100724922D01*
X152947860Y-100618941D01*
X153004471Y-100482270D01*
X153086659Y-100359267D01*
X153086660Y-100359265D01*
X153191265Y-100254660D01*
X153314268Y-100172472D01*
X153450941Y-100115860D01*
X153596032Y-100087000D01*
X153743968Y-100087000D01*
X153889059Y-100115860D01*
G37*
G36*
X158969059Y-100115860D02*
G01*
X159105732Y-100172472D01*
X159228735Y-100254660D01*
X159333340Y-100359265D01*
X159333341Y-100359267D01*
X159415529Y-100482270D01*
X159472140Y-100618941D01*
X159493221Y-100724922D01*
X159501000Y-100764033D01*
X159501000Y-100911967D01*
X159472140Y-101057059D01*
X159415528Y-101193732D01*
X159333340Y-101316735D01*
X159228735Y-101421340D01*
X159105732Y-101503528D01*
X159105731Y-101503529D01*
X159105730Y-101503529D01*
X158969059Y-101560140D01*
X158823968Y-101589000D01*
X158676032Y-101589000D01*
X158530941Y-101560140D01*
X158394270Y-101503529D01*
X158394269Y-101503529D01*
X158394268Y-101503528D01*
X158271265Y-101421340D01*
X158166660Y-101316735D01*
X158084472Y-101193732D01*
X158027860Y-101057059D01*
X157999000Y-100911967D01*
X157999000Y-100764033D01*
X158006780Y-100724922D01*
X158027860Y-100618941D01*
X158084471Y-100482270D01*
X158166659Y-100359267D01*
X158166660Y-100359265D01*
X158271265Y-100254660D01*
X158394268Y-100172472D01*
X158530941Y-100115860D01*
X158676032Y-100087000D01*
X158823968Y-100087000D01*
X158969059Y-100115860D01*
G37*
G36*
X151349059Y-97575860D02*
G01*
X151485732Y-97632472D01*
X151608735Y-97714660D01*
X151713340Y-97819265D01*
X151774788Y-97911229D01*
X151795529Y-97942270D01*
X151846820Y-98066097D01*
X151852140Y-98078941D01*
X151881000Y-98224033D01*
X151881000Y-98371967D01*
X151852140Y-98517059D01*
X151795528Y-98653732D01*
X151713340Y-98776735D01*
X151608735Y-98881340D01*
X151485732Y-98963528D01*
X151485731Y-98963529D01*
X151485730Y-98963529D01*
X151349059Y-99020140D01*
X151203968Y-99049000D01*
X151056032Y-99049000D01*
X150910941Y-99020140D01*
X150774270Y-98963529D01*
X150774269Y-98963529D01*
X150774268Y-98963528D01*
X150651265Y-98881340D01*
X150546660Y-98776735D01*
X150464472Y-98653732D01*
X150407860Y-98517059D01*
X150379000Y-98371967D01*
X150379000Y-98224033D01*
X150407860Y-98078941D01*
X150413180Y-98066097D01*
X150464471Y-97942270D01*
X150485212Y-97911229D01*
X150546660Y-97819265D01*
X150651265Y-97714660D01*
X150774268Y-97632472D01*
X150910941Y-97575860D01*
X151056032Y-97547000D01*
X151203968Y-97547000D01*
X151349059Y-97575860D01*
G37*
G36*
X146269059Y-97575860D02*
G01*
X146405732Y-97632472D01*
X146528735Y-97714660D01*
X146633340Y-97819265D01*
X146694788Y-97911229D01*
X146715529Y-97942270D01*
X146766820Y-98066097D01*
X146772140Y-98078941D01*
X146801000Y-98224033D01*
X146801000Y-98371967D01*
X146772140Y-98517059D01*
X146715528Y-98653732D01*
X146633340Y-98776735D01*
X146528735Y-98881340D01*
X146405732Y-98963528D01*
X146405731Y-98963529D01*
X146405730Y-98963529D01*
X146269059Y-99020140D01*
X146123968Y-99049000D01*
X145976032Y-99049000D01*
X145830941Y-99020140D01*
X145694270Y-98963529D01*
X145694269Y-98963529D01*
X145694268Y-98963528D01*
X145571265Y-98881340D01*
X145466660Y-98776735D01*
X145384472Y-98653732D01*
X145327860Y-98517059D01*
X145299000Y-98371967D01*
X145299000Y-98224033D01*
X145327860Y-98078941D01*
X145333180Y-98066097D01*
X145384471Y-97942270D01*
X145405212Y-97911229D01*
X145466660Y-97819265D01*
X145571265Y-97714660D01*
X145694268Y-97632472D01*
X145830941Y-97575860D01*
X145976032Y-97547000D01*
X146123968Y-97547000D01*
X146269059Y-97575860D01*
G37*
G36*
X173928228Y-96971703D02*
G01*
X174083100Y-97035853D01*
X174222481Y-97128985D01*
X174341015Y-97247519D01*
X174434147Y-97386900D01*
X174498297Y-97541772D01*
X174531000Y-97706184D01*
X174531000Y-97873816D01*
X174498297Y-98038228D01*
X174434147Y-98193100D01*
X174341015Y-98332481D01*
X174222481Y-98451015D01*
X174083100Y-98544147D01*
X173928228Y-98608297D01*
X173763816Y-98641000D01*
X173596184Y-98641000D01*
X173431772Y-98608297D01*
X173276900Y-98544147D01*
X173137519Y-98451015D01*
X173018985Y-98332481D01*
X172925853Y-98193100D01*
X172861703Y-98038228D01*
X172829000Y-97873816D01*
X172829000Y-97706184D01*
X172861703Y-97541772D01*
X172925853Y-97386900D01*
X173018985Y-97247519D01*
X173137519Y-97128985D01*
X173276900Y-97035853D01*
X173431772Y-96971703D01*
X173596184Y-96939000D01*
X173763816Y-96939000D01*
X173928228Y-96971703D01*
G37*
G36*
X171031000Y-98641000D02*
G01*
X169329000Y-98641000D01*
X169329000Y-96939000D01*
X171031000Y-96939000D01*
X171031000Y-98641000D01*
G37*
G36*
X161538228Y-96844703D02*
G01*
X161693100Y-96908853D01*
X161832481Y-97001985D01*
X161951015Y-97120519D01*
X162044147Y-97259900D01*
X162108297Y-97414772D01*
X162141000Y-97579184D01*
X162141000Y-97746816D01*
X162108297Y-97911228D01*
X162044147Y-98066100D01*
X161951015Y-98205481D01*
X161832481Y-98324015D01*
X161693100Y-98417147D01*
X161538228Y-98481297D01*
X161373816Y-98514000D01*
X161206184Y-98514000D01*
X161041772Y-98481297D01*
X160886900Y-98417147D01*
X160747519Y-98324015D01*
X160628985Y-98205481D01*
X160535853Y-98066100D01*
X160471703Y-97911228D01*
X160439000Y-97746816D01*
X160439000Y-97579184D01*
X160471703Y-97414772D01*
X160535853Y-97259900D01*
X160628985Y-97120519D01*
X160747519Y-97001985D01*
X160886900Y-96908853D01*
X161041772Y-96844703D01*
X161206184Y-96812000D01*
X161373816Y-96812000D01*
X161538228Y-96844703D01*
G37*
G36*
X166538228Y-96844703D02*
G01*
X166693100Y-96908853D01*
X166832481Y-97001985D01*
X166951015Y-97120519D01*
X167044147Y-97259900D01*
X167108297Y-97414772D01*
X167141000Y-97579184D01*
X167141000Y-97746816D01*
X167108297Y-97911228D01*
X167044147Y-98066100D01*
X166951015Y-98205481D01*
X166832481Y-98324015D01*
X166693100Y-98417147D01*
X166538228Y-98481297D01*
X166373816Y-98514000D01*
X166206184Y-98514000D01*
X166041772Y-98481297D01*
X165886900Y-98417147D01*
X165747519Y-98324015D01*
X165628985Y-98205481D01*
X165535853Y-98066100D01*
X165471703Y-97911228D01*
X165439000Y-97746816D01*
X165439000Y-97579184D01*
X165471703Y-97414772D01*
X165535853Y-97259900D01*
X165628985Y-97120519D01*
X165747519Y-97001985D01*
X165886900Y-96908853D01*
X166041772Y-96844703D01*
X166206184Y-96812000D01*
X166373816Y-96812000D01*
X166538228Y-96844703D01*
G37*
G36*
X158918228Y-96209703D02*
G01*
X159073100Y-96273853D01*
X159212481Y-96366985D01*
X159331015Y-96485519D01*
X159424147Y-96624900D01*
X159488297Y-96779772D01*
X159521000Y-96944184D01*
X159521000Y-97111816D01*
X159488297Y-97276228D01*
X159424147Y-97431100D01*
X159331015Y-97570481D01*
X159212481Y-97689015D01*
X159073100Y-97782147D01*
X158918228Y-97846297D01*
X158753816Y-97879000D01*
X158586184Y-97879000D01*
X158421772Y-97846297D01*
X158266900Y-97782147D01*
X158127519Y-97689015D01*
X158008985Y-97570481D01*
X157915853Y-97431100D01*
X157851703Y-97276228D01*
X157819000Y-97111816D01*
X157819000Y-96944184D01*
X157851703Y-96779772D01*
X157915853Y-96624900D01*
X158008985Y-96485519D01*
X158127519Y-96366985D01*
X158266900Y-96273853D01*
X158421772Y-96209703D01*
X158586184Y-96177000D01*
X158753816Y-96177000D01*
X158918228Y-96209703D01*
G37*
G36*
X153918228Y-96209703D02*
G01*
X154073100Y-96273853D01*
X154212481Y-96366985D01*
X154331015Y-96485519D01*
X154424147Y-96624900D01*
X154488297Y-96779772D01*
X154521000Y-96944184D01*
X154521000Y-97111816D01*
X154488297Y-97276228D01*
X154424147Y-97431100D01*
X154331015Y-97570481D01*
X154212481Y-97689015D01*
X154073100Y-97782147D01*
X153918228Y-97846297D01*
X153753816Y-97879000D01*
X153586184Y-97879000D01*
X153421772Y-97846297D01*
X153266900Y-97782147D01*
X153127519Y-97689015D01*
X153008985Y-97570481D01*
X152915853Y-97431100D01*
X152851703Y-97276228D01*
X152819000Y-97111816D01*
X152819000Y-96944184D01*
X152851703Y-96779772D01*
X152915853Y-96624900D01*
X153008985Y-96485519D01*
X153127519Y-96366985D01*
X153266900Y-96273853D01*
X153421772Y-96209703D01*
X153586184Y-96177000D01*
X153753816Y-96177000D01*
X153918228Y-96209703D01*
G37*
G36*
X138758228Y-96209703D02*
G01*
X138913100Y-96273853D01*
X139052481Y-96366985D01*
X139171015Y-96485519D01*
X139264147Y-96624900D01*
X139328297Y-96779772D01*
X139361000Y-96944184D01*
X139361000Y-97111816D01*
X139328297Y-97276228D01*
X139264147Y-97431100D01*
X139171015Y-97570481D01*
X139052481Y-97689015D01*
X138913100Y-97782147D01*
X138758228Y-97846297D01*
X138593816Y-97879000D01*
X138426184Y-97879000D01*
X138261772Y-97846297D01*
X138106900Y-97782147D01*
X137967519Y-97689015D01*
X137848985Y-97570481D01*
X137755853Y-97431100D01*
X137691703Y-97276228D01*
X137659000Y-97111816D01*
X137659000Y-96944184D01*
X137691703Y-96779772D01*
X137755853Y-96624900D01*
X137848985Y-96485519D01*
X137967519Y-96366985D01*
X138106900Y-96273853D01*
X138261772Y-96209703D01*
X138426184Y-96177000D01*
X138593816Y-96177000D01*
X138758228Y-96209703D01*
G37*
G36*
X143758228Y-96209703D02*
G01*
X143913100Y-96273853D01*
X144052481Y-96366985D01*
X144171015Y-96485519D01*
X144264147Y-96624900D01*
X144328297Y-96779772D01*
X144361000Y-96944184D01*
X144361000Y-97111816D01*
X144328297Y-97276228D01*
X144264147Y-97431100D01*
X144171015Y-97570481D01*
X144052481Y-97689015D01*
X143913100Y-97782147D01*
X143758228Y-97846297D01*
X143593816Y-97879000D01*
X143426184Y-97879000D01*
X143261772Y-97846297D01*
X143106900Y-97782147D01*
X142967519Y-97689015D01*
X142848985Y-97570481D01*
X142755853Y-97431100D01*
X142691703Y-97276228D01*
X142659000Y-97111816D01*
X142659000Y-96944184D01*
X142691703Y-96779772D01*
X142755853Y-96624900D01*
X142848985Y-96485519D01*
X142967519Y-96366985D01*
X143106900Y-96273853D01*
X143261772Y-96209703D01*
X143426184Y-96177000D01*
X143593816Y-96177000D01*
X143758228Y-96209703D01*
G37*
G36*
X151349059Y-95035860D02*
G01*
X151485732Y-95092472D01*
X151608735Y-95174660D01*
X151713340Y-95279265D01*
X151795528Y-95402268D01*
X151852140Y-95538941D01*
X151881000Y-95684033D01*
X151881000Y-95831967D01*
X151852140Y-95977059D01*
X151795528Y-96113732D01*
X151713340Y-96236735D01*
X151608735Y-96341340D01*
X151485732Y-96423528D01*
X151485731Y-96423529D01*
X151485730Y-96423529D01*
X151349059Y-96480140D01*
X151203968Y-96509000D01*
X151056032Y-96509000D01*
X150910941Y-96480140D01*
X150774270Y-96423529D01*
X150774269Y-96423529D01*
X150774268Y-96423528D01*
X150651265Y-96341340D01*
X150546660Y-96236735D01*
X150464472Y-96113732D01*
X150407860Y-95977059D01*
X150379000Y-95831967D01*
X150379000Y-95684033D01*
X150407860Y-95538941D01*
X150464472Y-95402268D01*
X150546660Y-95279265D01*
X150651265Y-95174660D01*
X150774268Y-95092472D01*
X150910941Y-95035860D01*
X151056032Y-95007000D01*
X151203968Y-95007000D01*
X151349059Y-95035860D01*
G37*
G36*
X146269059Y-95035860D02*
G01*
X146405732Y-95092472D01*
X146528735Y-95174660D01*
X146633340Y-95279265D01*
X146715528Y-95402268D01*
X146772140Y-95538941D01*
X146801000Y-95684033D01*
X146801000Y-95831967D01*
X146772140Y-95977059D01*
X146715528Y-96113732D01*
X146633340Y-96236735D01*
X146528735Y-96341340D01*
X146405732Y-96423528D01*
X146405731Y-96423529D01*
X146405730Y-96423529D01*
X146269059Y-96480140D01*
X146123968Y-96509000D01*
X145976032Y-96509000D01*
X145830941Y-96480140D01*
X145694270Y-96423529D01*
X145694269Y-96423529D01*
X145694268Y-96423528D01*
X145571265Y-96341340D01*
X145466660Y-96236735D01*
X145384472Y-96113732D01*
X145327860Y-95977059D01*
X145299000Y-95831967D01*
X145299000Y-95684033D01*
X145327860Y-95538941D01*
X145384472Y-95402268D01*
X145466660Y-95279265D01*
X145571265Y-95174660D01*
X145694268Y-95092472D01*
X145830941Y-95035860D01*
X145976032Y-95007000D01*
X146123968Y-95007000D01*
X146269059Y-95035860D01*
G37*
G36*
X146298228Y-91764703D02*
G01*
X146453100Y-91828853D01*
X146592481Y-91921985D01*
X146711015Y-92040519D01*
X146804147Y-92179900D01*
X146868297Y-92334772D01*
X146901000Y-92499184D01*
X146901000Y-92666816D01*
X146868297Y-92831228D01*
X146804147Y-92986100D01*
X146711015Y-93125481D01*
X146592481Y-93244015D01*
X146453100Y-93337147D01*
X146298228Y-93401297D01*
X146133816Y-93434000D01*
X145966184Y-93434000D01*
X145801772Y-93401297D01*
X145646900Y-93337147D01*
X145507519Y-93244015D01*
X145388985Y-93125481D01*
X145295853Y-92986100D01*
X145231703Y-92831228D01*
X145199000Y-92666816D01*
X145199000Y-92499184D01*
X145231703Y-92334772D01*
X145295853Y-92179900D01*
X145388985Y-92040519D01*
X145507519Y-91921985D01*
X145646900Y-91828853D01*
X145801772Y-91764703D01*
X145966184Y-91732000D01*
X146133816Y-91732000D01*
X146298228Y-91764703D01*
G37*
G36*
X154521000Y-93434000D02*
G01*
X152819000Y-93434000D01*
X152819000Y-91732000D01*
X154521000Y-91732000D01*
X154521000Y-93434000D01*
G37*
G36*
X160903228Y-91454703D02*
G01*
X161058100Y-91518853D01*
X161197481Y-91611985D01*
X161316015Y-91730519D01*
X161409147Y-91869900D01*
X161473297Y-92024772D01*
X161506000Y-92189184D01*
X161506000Y-92356816D01*
X161473297Y-92521228D01*
X161409147Y-92676100D01*
X161316015Y-92815481D01*
X161197481Y-92934015D01*
X161058100Y-93027147D01*
X160903228Y-93091297D01*
X160738816Y-93124000D01*
X160571184Y-93124000D01*
X160406772Y-93091297D01*
X160251900Y-93027147D01*
X160112519Y-92934015D01*
X159993985Y-92815481D01*
X159900853Y-92676100D01*
X159836703Y-92521228D01*
X159804000Y-92356816D01*
X159804000Y-92189184D01*
X159836703Y-92024772D01*
X159900853Y-91869900D01*
X159993985Y-91730519D01*
X160112519Y-91611985D01*
X160251900Y-91518853D01*
X160406772Y-91454703D01*
X160571184Y-91422000D01*
X160738816Y-91422000D01*
X160903228Y-91454703D01*
G37*
G36*
X133459590Y-90797147D02*
G01*
X133612812Y-90827624D01*
X133776784Y-90895544D01*
X133924354Y-90994147D01*
X134049853Y-91119646D01*
X134148456Y-91267216D01*
X134216376Y-91431188D01*
X134251000Y-91605259D01*
X134251000Y-91782741D01*
X134216376Y-91956812D01*
X134148456Y-92120784D01*
X134049853Y-92268354D01*
X133924354Y-92393853D01*
X133776784Y-92492456D01*
X133612812Y-92560376D01*
X133463512Y-92590073D01*
X133438742Y-92595000D01*
X133261258Y-92595000D01*
X133236488Y-92590073D01*
X133087188Y-92560376D01*
X132923216Y-92492456D01*
X132775646Y-92393853D01*
X132650147Y-92268354D01*
X132551544Y-92120784D01*
X132483624Y-91956812D01*
X132449000Y-91782741D01*
X132449000Y-91605259D01*
X132483624Y-91431188D01*
X132551544Y-91267216D01*
X132650147Y-91119646D01*
X132775646Y-90994147D01*
X132923216Y-90895544D01*
X133087188Y-90827624D01*
X133240410Y-90797147D01*
X133261258Y-90793000D01*
X133438742Y-90793000D01*
X133459590Y-90797147D01*
G37*
G36*
X172833512Y-90543927D02*
G01*
X172982812Y-90573624D01*
X173146784Y-90641544D01*
X173294354Y-90740147D01*
X173419853Y-90865646D01*
X173518456Y-91013216D01*
X173586376Y-91177188D01*
X173621000Y-91351259D01*
X173621000Y-91528741D01*
X173586376Y-91702812D01*
X173518456Y-91866784D01*
X173419853Y-92014354D01*
X173294354Y-92139853D01*
X173146784Y-92238456D01*
X172982812Y-92306376D01*
X172840057Y-92334771D01*
X172808742Y-92341000D01*
X172631258Y-92341000D01*
X172599943Y-92334771D01*
X172457188Y-92306376D01*
X172293216Y-92238456D01*
X172145646Y-92139853D01*
X172020147Y-92014354D01*
X171921544Y-91866784D01*
X171853624Y-91702812D01*
X171819000Y-91528741D01*
X171819000Y-91351259D01*
X171853624Y-91177188D01*
X171921544Y-91013216D01*
X172020147Y-90865646D01*
X172145646Y-90740147D01*
X172293216Y-90641544D01*
X172457188Y-90573624D01*
X172606488Y-90543927D01*
X172631258Y-90539000D01*
X172808742Y-90539000D01*
X172833512Y-90543927D01*
G37*
G36*
X171081000Y-92341000D02*
G01*
X169279000Y-92341000D01*
X169279000Y-90539000D01*
X171081000Y-90539000D01*
X171081000Y-92341000D01*
G37*
G36*
X143091000Y-90894000D02*
G01*
X141389000Y-90894000D01*
X141389000Y-89192000D01*
X143091000Y-89192000D01*
X143091000Y-90894000D01*
G37*
G36*
X138988228Y-89224703D02*
G01*
X139143100Y-89288853D01*
X139282481Y-89381985D01*
X139401015Y-89500519D01*
X139494147Y-89639900D01*
X139558297Y-89794772D01*
X139591000Y-89959184D01*
X139591000Y-90126816D01*
X139558297Y-90291228D01*
X139494147Y-90446100D01*
X139401015Y-90585481D01*
X139282481Y-90704015D01*
X139143100Y-90797147D01*
X138988228Y-90861297D01*
X138823816Y-90894000D01*
X138656184Y-90894000D01*
X138491772Y-90861297D01*
X138336900Y-90797147D01*
X138197519Y-90704015D01*
X138078985Y-90585481D01*
X137985853Y-90446100D01*
X137921703Y-90291228D01*
X137889000Y-90126816D01*
X137889000Y-89959184D01*
X137921703Y-89794772D01*
X137985853Y-89639900D01*
X138078985Y-89500519D01*
X138197519Y-89381985D01*
X138336900Y-89288853D01*
X138491772Y-89224703D01*
X138656184Y-89192000D01*
X138823816Y-89192000D01*
X138988228Y-89224703D01*
G37*
G36*
X150691719Y-88371520D02*
G01*
X150879413Y-88428456D01*
X150880883Y-88428902D01*
X150973333Y-88478318D01*
X151055212Y-88522083D01*
X151208015Y-88647485D01*
X151333417Y-88800288D01*
X151426599Y-88974619D01*
X151483980Y-89163780D01*
X151493660Y-89262064D01*
X151496299Y-89288853D01*
X151498500Y-89311206D01*
X151498500Y-89504793D01*
X151483980Y-89652219D01*
X151440737Y-89794772D01*
X151426598Y-89841383D01*
X151377182Y-89933833D01*
X151333417Y-90015712D01*
X151208015Y-90168515D01*
X151055212Y-90293917D01*
X150880881Y-90387099D01*
X150691720Y-90444480D01*
X150495000Y-90463855D01*
X150298281Y-90444480D01*
X150109120Y-90387099D01*
X149934788Y-90293917D01*
X149781985Y-90168515D01*
X149656583Y-90015712D01*
X149563401Y-89841381D01*
X149506020Y-89652220D01*
X149491500Y-89504794D01*
X149491500Y-89311207D01*
X149506020Y-89163781D01*
X149563401Y-88974620D01*
X149563402Y-88974617D01*
X149612818Y-88882167D01*
X149656583Y-88800288D01*
X149781985Y-88647485D01*
X149934788Y-88522083D01*
X150109119Y-88428901D01*
X150298280Y-88371520D01*
X150495000Y-88352145D01*
X150691719Y-88371520D01*
G37*
G36*
X153231719Y-88371520D02*
G01*
X153419413Y-88428456D01*
X153420883Y-88428902D01*
X153513333Y-88478318D01*
X153595212Y-88522083D01*
X153748015Y-88647485D01*
X153873417Y-88800288D01*
X153966599Y-88974619D01*
X154023980Y-89163780D01*
X154033660Y-89262064D01*
X154036299Y-89288853D01*
X154038500Y-89311206D01*
X154038500Y-89504793D01*
X154023980Y-89652219D01*
X153980737Y-89794772D01*
X153966598Y-89841383D01*
X153917182Y-89933833D01*
X153873417Y-90015712D01*
X153748015Y-90168515D01*
X153595212Y-90293917D01*
X153420881Y-90387099D01*
X153231720Y-90444480D01*
X153035000Y-90463855D01*
X152838281Y-90444480D01*
X152649120Y-90387099D01*
X152474788Y-90293917D01*
X152321985Y-90168515D01*
X152196583Y-90015712D01*
X152103401Y-89841381D01*
X152046020Y-89652220D01*
X152031500Y-89504794D01*
X152031500Y-89311207D01*
X152046020Y-89163781D01*
X152103401Y-88974620D01*
X152103402Y-88974617D01*
X152152818Y-88882167D01*
X152196583Y-88800288D01*
X152321985Y-88647485D01*
X152474788Y-88522083D01*
X152649119Y-88428901D01*
X152838280Y-88371520D01*
X153035000Y-88352145D01*
X153231719Y-88371520D01*
G37*
G36*
X148958500Y-90459000D02*
G01*
X146951500Y-90459000D01*
X146951500Y-88357000D01*
X148958500Y-88357000D01*
X148958500Y-90459000D01*
G37*
G36*
X134251000Y-90055000D02*
G01*
X132449000Y-90055000D01*
X132449000Y-88253000D01*
X134251000Y-88253000D01*
X134251000Y-90055000D01*
G37*
G36*
X161506000Y-89624000D02*
G01*
X159804000Y-89624000D01*
X159804000Y-87922000D01*
X161506000Y-87922000D01*
X161506000Y-89624000D01*
G37*
G36*
X172833512Y-86733927D02*
G01*
X172982812Y-86763624D01*
X173146784Y-86831544D01*
X173294354Y-86930147D01*
X173419853Y-87055646D01*
X173518456Y-87203216D01*
X173586376Y-87367188D01*
X173621000Y-87541259D01*
X173621000Y-87718741D01*
X173586376Y-87892812D01*
X173518456Y-88056784D01*
X173419853Y-88204354D01*
X173294354Y-88329853D01*
X173146784Y-88428456D01*
X172982812Y-88496376D01*
X172833512Y-88526073D01*
X172808742Y-88531000D01*
X172631258Y-88531000D01*
X172606488Y-88526073D01*
X172457188Y-88496376D01*
X172293216Y-88428456D01*
X172145646Y-88329853D01*
X172020147Y-88204354D01*
X171921544Y-88056784D01*
X171853624Y-87892812D01*
X171819000Y-87718741D01*
X171819000Y-87541259D01*
X171853624Y-87367188D01*
X171921544Y-87203216D01*
X172020147Y-87055646D01*
X172145646Y-86930147D01*
X172293216Y-86831544D01*
X172457188Y-86763624D01*
X172606488Y-86733927D01*
X172631258Y-86729000D01*
X172808742Y-86729000D01*
X172833512Y-86733927D01*
G37*
G36*
X171081000Y-88531000D02*
G01*
X169279000Y-88531000D01*
X169279000Y-86729000D01*
X171081000Y-86729000D01*
X171081000Y-88531000D01*
G37*
M02*
