M48
; DRILL file {KiCad (5.1.5)-3} date 3/29/2021 10:58:58 PM
; FORMAT={-:-/ absolute / inch / decimal}
; #@! TF.CreationDate,2021-03-29T22:58:58-05:00
; #@! TF.GenerationSoftware,Kicad,Pcbnew,(5.1.5)-3
; #@! TF.FileFunction,Plated,1,2,PTH
FMAT,2
INCH
T1C0.0157
T2C0.0276
T3C0.0315
T4C0.0394
T5C0.0433
%
G90
G05
T1
X6.4Y-4.35
X6.4118Y-4.3
X6.45Y-4.275
T2
X5.18Y-4.55
X5.38Y-4.55
X6.075Y-4.55
X6.275Y-4.55
X6.075Y-4.15
X6.275Y-4.15
X5.75Y-3.87
X5.95Y-3.87
X6.075Y-4.35
X6.275Y-4.35
X6.4Y-4.15
X6.6Y-4.15
X5.75Y-3.77
X5.95Y-3.77
X5.18Y-4.45
X5.38Y-4.45
X5.18Y-4.65
X5.38Y-4.65
X6.05Y-3.97
X6.25Y-3.97
X6.075Y-4.65
X6.275Y-4.65
X6.075Y-4.25
X6.275Y-4.25
X6.6Y-4.65
X6.8Y-4.65
X6.4Y-4.55
X6.6Y-4.55
X6.075Y-4.45
X6.275Y-4.45
X6.4Y-4.0
X6.6Y-4.0
T3
X5.95Y-4.1031
X5.95Y-4.3
X6.325Y-3.495
X6.325Y-3.6328
X6.7Y-4.3
X6.8969Y-4.3
X5.7Y-4.65
X5.8969Y-4.65
X6.35Y-3.845
X6.5469Y-3.845
X5.7Y-4.45
X5.8969Y-4.45
X6.7Y-4.125
X6.8969Y-4.125
X6.7Y-3.85
X6.8378Y-3.85
X5.775Y-4.075
X5.775Y-4.2719
X5.175Y-4.0031
X5.175Y-4.2
X6.7Y-4.475
X6.8969Y-4.475
X5.4531Y-3.82
X5.65Y-3.82
X5.75Y-3.645
X6.05Y-3.645
X5.3Y-4.0
X5.3Y-4.3
X5.4Y-4.0
X5.4Y-4.3
X5.5Y-4.0
X5.5Y-4.3
X5.6Y-4.0
X5.6Y-4.3
X5.4622Y-3.545
X5.6Y-3.545
X5.475Y-4.55
X5.575Y-4.45
X5.575Y-4.65
X6.05Y-3.82
X6.2469Y-3.82
T4
X6.7Y-3.6
X6.8Y-3.6
X6.7Y-3.45
X6.8Y-3.45
X5.25Y-3.51
X5.25Y-3.61
T5
X5.825Y-3.52
X5.925Y-3.52
X6.025Y-3.52
T0
M30
