G04 #@! TF.GenerationSoftware,KiCad,Pcbnew,(5.1.5)-3*
G04 #@! TF.CreationDate,2021-03-29T22:58:55-05:00*
G04 #@! TF.ProjectId,Sable_Bias_Voltage,5361626c-655f-4426-9961-735f566f6c74,rev?*
G04 #@! TF.SameCoordinates,Original*
G04 #@! TF.FileFunction,Legend,Top*
G04 #@! TF.FilePolarity,Positive*
%FSLAX46Y46*%
G04 Gerber Fmt 4.6, Leading zero omitted, Abs format (unit mm)*
G04 Created by KiCad (PCBNEW (5.1.5)-3) date 2021-03-29 22:58:55*
%MOMM*%
%LPD*%
G04 APERTURE LIST*
%ADD10C,0.120000*%
%ADD11C,0.150000*%
G04 APERTURE END LIST*
D10*
X168969961Y-109160039D02*
G75*
G03X168969961Y-109160039I-567961J0D01*
G01*
X130810000Y-89154000D02*
X131826000Y-89154000D01*
X131318000Y-88646000D02*
X131318000Y-89662000D01*
X132842000Y-93472000D02*
X133858000Y-93472000D01*
X174752000Y-90932000D02*
X174752000Y-91948000D01*
X174752000Y-87122000D02*
X174752000Y-88138000D01*
X167132000Y-91440000D02*
X168148000Y-91440000D01*
X167640000Y-90932000D02*
X167640000Y-91948000D01*
X167132000Y-87630000D02*
X168148000Y-87630000D01*
X167640000Y-87122000D02*
X167640000Y-88138000D01*
D11*
X167995000Y-108865000D02*
X167870000Y-108865000D01*
X167995000Y-112115000D02*
X167770000Y-112115000D01*
X164745000Y-112115000D02*
X164970000Y-112115000D01*
X164745000Y-108865000D02*
X164970000Y-108865000D01*
X167995000Y-108865000D02*
X167995000Y-112115000D01*
X164745000Y-108865000D02*
X164745000Y-112115000D01*
X167870000Y-108865000D02*
X167870000Y-107790000D01*
D10*
X163370000Y-86513302D02*
X162570000Y-86513302D01*
X162970000Y-86113302D02*
X162970000Y-86913302D01*
X161188000Y-94604000D02*
X160122000Y-94604000D01*
X161423000Y-94564000D02*
X159887000Y-94564000D01*
X161603000Y-94524000D02*
X159707000Y-94524000D01*
X161753000Y-94484000D02*
X159557000Y-94484000D01*
X161884000Y-94444000D02*
X159426000Y-94444000D01*
X162001000Y-94404000D02*
X159309000Y-94404000D01*
X162108000Y-94364000D02*
X159202000Y-94364000D01*
X162207000Y-94324000D02*
X159103000Y-94324000D01*
X162300000Y-94284000D02*
X159010000Y-94284000D01*
X162386000Y-94244000D02*
X158924000Y-94244000D01*
X162468000Y-94204000D02*
X158842000Y-94204000D01*
X162545000Y-94164000D02*
X158765000Y-94164000D01*
X162619000Y-94124000D02*
X158691000Y-94124000D01*
X162689000Y-94084000D02*
X158621000Y-94084000D01*
X162757000Y-94044000D02*
X158553000Y-94044000D01*
X162821000Y-94004000D02*
X158489000Y-94004000D01*
X162883000Y-93964000D02*
X158427000Y-93964000D01*
X162942000Y-93924000D02*
X158368000Y-93924000D01*
X163000000Y-93884000D02*
X158310000Y-93884000D01*
X163055000Y-93844000D02*
X158255000Y-93844000D01*
X163109000Y-93804000D02*
X158201000Y-93804000D01*
X163160000Y-93764000D02*
X158150000Y-93764000D01*
X163211000Y-93724000D02*
X158099000Y-93724000D01*
X163259000Y-93684000D02*
X158051000Y-93684000D01*
X163306000Y-93644000D02*
X158004000Y-93644000D01*
X163352000Y-93604000D02*
X157958000Y-93604000D01*
X163396000Y-93564000D02*
X157914000Y-93564000D01*
X163439000Y-93524000D02*
X157871000Y-93524000D01*
X163481000Y-93484000D02*
X157829000Y-93484000D01*
X163522000Y-93444000D02*
X157788000Y-93444000D01*
X163562000Y-93404000D02*
X157748000Y-93404000D01*
X163600000Y-93364000D02*
X157710000Y-93364000D01*
X163638000Y-93324000D02*
X157672000Y-93324000D01*
X159615000Y-93284000D02*
X157636000Y-93284000D01*
X163674000Y-93284000D02*
X161695000Y-93284000D01*
X159615000Y-93244000D02*
X157600000Y-93244000D01*
X163710000Y-93244000D02*
X161695000Y-93244000D01*
X159615000Y-93204000D02*
X157565000Y-93204000D01*
X163745000Y-93204000D02*
X161695000Y-93204000D01*
X159615000Y-93164000D02*
X157531000Y-93164000D01*
X163779000Y-93164000D02*
X161695000Y-93164000D01*
X159615000Y-93124000D02*
X157499000Y-93124000D01*
X163811000Y-93124000D02*
X161695000Y-93124000D01*
X159615000Y-93084000D02*
X157466000Y-93084000D01*
X163844000Y-93084000D02*
X161695000Y-93084000D01*
X159615000Y-93044000D02*
X157435000Y-93044000D01*
X163875000Y-93044000D02*
X161695000Y-93044000D01*
X159615000Y-93004000D02*
X157405000Y-93004000D01*
X163905000Y-93004000D02*
X161695000Y-93004000D01*
X159615000Y-92964000D02*
X157375000Y-92964000D01*
X163935000Y-92964000D02*
X161695000Y-92964000D01*
X159615000Y-92924000D02*
X157346000Y-92924000D01*
X163964000Y-92924000D02*
X161695000Y-92924000D01*
X159615000Y-92884000D02*
X157317000Y-92884000D01*
X163993000Y-92884000D02*
X161695000Y-92884000D01*
X159615000Y-92844000D02*
X157290000Y-92844000D01*
X164020000Y-92844000D02*
X161695000Y-92844000D01*
X159615000Y-92804000D02*
X157263000Y-92804000D01*
X164047000Y-92804000D02*
X161695000Y-92804000D01*
X159615000Y-92764000D02*
X157237000Y-92764000D01*
X164073000Y-92764000D02*
X161695000Y-92764000D01*
X159615000Y-92724000D02*
X157211000Y-92724000D01*
X164099000Y-92724000D02*
X161695000Y-92724000D01*
X159615000Y-92684000D02*
X157186000Y-92684000D01*
X164124000Y-92684000D02*
X161695000Y-92684000D01*
X159615000Y-92644000D02*
X157162000Y-92644000D01*
X164148000Y-92644000D02*
X161695000Y-92644000D01*
X159615000Y-92604000D02*
X157138000Y-92604000D01*
X164172000Y-92604000D02*
X161695000Y-92604000D01*
X159615000Y-92564000D02*
X157115000Y-92564000D01*
X164195000Y-92564000D02*
X161695000Y-92564000D01*
X159615000Y-92524000D02*
X157093000Y-92524000D01*
X164217000Y-92524000D02*
X161695000Y-92524000D01*
X159615000Y-92484000D02*
X157071000Y-92484000D01*
X164239000Y-92484000D02*
X161695000Y-92484000D01*
X159615000Y-92444000D02*
X157049000Y-92444000D01*
X164261000Y-92444000D02*
X161695000Y-92444000D01*
X159615000Y-92404000D02*
X157028000Y-92404000D01*
X164282000Y-92404000D02*
X161695000Y-92404000D01*
X159615000Y-92364000D02*
X157008000Y-92364000D01*
X164302000Y-92364000D02*
X161695000Y-92364000D01*
X159615000Y-92324000D02*
X156989000Y-92324000D01*
X164321000Y-92324000D02*
X161695000Y-92324000D01*
X159615000Y-92284000D02*
X156969000Y-92284000D01*
X164341000Y-92284000D02*
X161695000Y-92284000D01*
X159615000Y-92244000D02*
X156951000Y-92244000D01*
X164359000Y-92244000D02*
X161695000Y-92244000D01*
X159615000Y-92204000D02*
X156933000Y-92204000D01*
X164377000Y-92204000D02*
X161695000Y-92204000D01*
X159615000Y-92164000D02*
X156915000Y-92164000D01*
X164395000Y-92164000D02*
X161695000Y-92164000D01*
X159615000Y-92124000D02*
X156898000Y-92124000D01*
X164412000Y-92124000D02*
X161695000Y-92124000D01*
X159615000Y-92084000D02*
X156881000Y-92084000D01*
X164429000Y-92084000D02*
X161695000Y-92084000D01*
X159615000Y-92044000D02*
X156865000Y-92044000D01*
X164445000Y-92044000D02*
X161695000Y-92044000D01*
X159615000Y-92004000D02*
X156850000Y-92004000D01*
X164460000Y-92004000D02*
X161695000Y-92004000D01*
X159615000Y-91964000D02*
X156834000Y-91964000D01*
X164476000Y-91964000D02*
X161695000Y-91964000D01*
X159615000Y-91924000D02*
X156820000Y-91924000D01*
X164490000Y-91924000D02*
X161695000Y-91924000D01*
X159615000Y-91884000D02*
X156805000Y-91884000D01*
X164505000Y-91884000D02*
X161695000Y-91884000D01*
X159615000Y-91844000D02*
X156792000Y-91844000D01*
X164518000Y-91844000D02*
X161695000Y-91844000D01*
X159615000Y-91804000D02*
X156778000Y-91804000D01*
X164532000Y-91804000D02*
X161695000Y-91804000D01*
X159615000Y-91764000D02*
X156766000Y-91764000D01*
X164544000Y-91764000D02*
X161695000Y-91764000D01*
X159615000Y-91724000D02*
X156753000Y-91724000D01*
X164557000Y-91724000D02*
X161695000Y-91724000D01*
X159615000Y-91684000D02*
X156741000Y-91684000D01*
X164569000Y-91684000D02*
X161695000Y-91684000D01*
X159615000Y-91644000D02*
X156730000Y-91644000D01*
X164580000Y-91644000D02*
X161695000Y-91644000D01*
X159615000Y-91604000D02*
X156719000Y-91604000D01*
X164591000Y-91604000D02*
X161695000Y-91604000D01*
X159615000Y-91564000D02*
X156708000Y-91564000D01*
X164602000Y-91564000D02*
X161695000Y-91564000D01*
X159615000Y-91524000D02*
X156698000Y-91524000D01*
X164612000Y-91524000D02*
X161695000Y-91524000D01*
X159615000Y-91484000D02*
X156688000Y-91484000D01*
X164622000Y-91484000D02*
X161695000Y-91484000D01*
X159615000Y-91444000D02*
X156679000Y-91444000D01*
X164631000Y-91444000D02*
X161695000Y-91444000D01*
X159615000Y-91404000D02*
X156670000Y-91404000D01*
X164640000Y-91404000D02*
X161695000Y-91404000D01*
X159615000Y-91364000D02*
X156661000Y-91364000D01*
X164649000Y-91364000D02*
X161695000Y-91364000D01*
X159615000Y-91324000D02*
X156653000Y-91324000D01*
X164657000Y-91324000D02*
X161695000Y-91324000D01*
X159615000Y-91284000D02*
X156645000Y-91284000D01*
X164665000Y-91284000D02*
X161695000Y-91284000D01*
X159615000Y-91244000D02*
X156638000Y-91244000D01*
X164672000Y-91244000D02*
X161695000Y-91244000D01*
X164679000Y-91203000D02*
X156631000Y-91203000D01*
X164685000Y-91163000D02*
X156625000Y-91163000D01*
X164692000Y-91123000D02*
X156618000Y-91123000D01*
X164697000Y-91083000D02*
X156613000Y-91083000D01*
X164703000Y-91043000D02*
X156607000Y-91043000D01*
X164707000Y-91003000D02*
X156603000Y-91003000D01*
X164712000Y-90963000D02*
X156598000Y-90963000D01*
X164716000Y-90923000D02*
X156594000Y-90923000D01*
X164720000Y-90883000D02*
X156590000Y-90883000D01*
X164723000Y-90843000D02*
X156587000Y-90843000D01*
X164726000Y-90803000D02*
X156584000Y-90803000D01*
X164729000Y-90763000D02*
X156581000Y-90763000D01*
X164731000Y-90723000D02*
X156579000Y-90723000D01*
X164732000Y-90683000D02*
X156578000Y-90683000D01*
X164734000Y-90643000D02*
X156576000Y-90643000D01*
X164735000Y-90603000D02*
X156575000Y-90603000D01*
X164735000Y-90563000D02*
X156575000Y-90563000D01*
X164735000Y-90523000D02*
X156575000Y-90523000D01*
X164775000Y-90523000D02*
G75*
G03X164775000Y-90523000I-4120000J0D01*
G01*
X159290000Y-97953000D02*
X159290000Y-99349000D01*
X159290000Y-94707000D02*
X159290000Y-96103000D01*
X153050000Y-97953000D02*
X153050000Y-99349000D01*
X153050000Y-94707000D02*
X153050000Y-96103000D01*
X153050000Y-99349000D02*
X159290000Y-99349000D01*
X153050000Y-94707000D02*
X159290000Y-94707000D01*
X166910000Y-98588000D02*
X166910000Y-99984000D01*
X166910000Y-95342000D02*
X166910000Y-96738000D01*
X160670000Y-98588000D02*
X160670000Y-99984000D01*
X160670000Y-95342000D02*
X160670000Y-96738000D01*
X160670000Y-99984000D02*
X166910000Y-99984000D01*
X160670000Y-95342000D02*
X166910000Y-95342000D01*
X149006000Y-102885000D02*
X149006000Y-109125000D01*
X144364000Y-102885000D02*
X144364000Y-109125000D01*
X149006000Y-102885000D02*
X147610000Y-102885000D01*
X145760000Y-102885000D02*
X144364000Y-102885000D01*
X149006000Y-109125000D02*
X147610000Y-109125000D01*
X145760000Y-109125000D02*
X144364000Y-109125000D01*
X144610000Y-90043000D02*
G75*
G03X144610000Y-90043000I-4120000J0D01*
G01*
X140490000Y-94123000D02*
X140490000Y-85963000D01*
X140450000Y-94123000D02*
X140450000Y-85963000D01*
X140410000Y-94123000D02*
X140410000Y-85963000D01*
X140370000Y-94122000D02*
X140370000Y-85964000D01*
X140330000Y-94120000D02*
X140330000Y-85966000D01*
X140290000Y-94119000D02*
X140290000Y-85967000D01*
X140250000Y-94117000D02*
X140250000Y-85969000D01*
X140210000Y-94114000D02*
X140210000Y-85972000D01*
X140170000Y-94111000D02*
X140170000Y-85975000D01*
X140130000Y-94108000D02*
X140130000Y-85978000D01*
X140090000Y-94104000D02*
X140090000Y-85982000D01*
X140050000Y-94100000D02*
X140050000Y-85986000D01*
X140010000Y-94095000D02*
X140010000Y-85991000D01*
X139970000Y-94091000D02*
X139970000Y-85995000D01*
X139930000Y-94085000D02*
X139930000Y-86001000D01*
X139890000Y-94080000D02*
X139890000Y-86006000D01*
X139850000Y-94073000D02*
X139850000Y-86013000D01*
X139810000Y-94067000D02*
X139810000Y-86019000D01*
X139769000Y-94060000D02*
X139769000Y-91083000D01*
X139769000Y-89003000D02*
X139769000Y-86026000D01*
X139729000Y-94053000D02*
X139729000Y-91083000D01*
X139729000Y-89003000D02*
X139729000Y-86033000D01*
X139689000Y-94045000D02*
X139689000Y-91083000D01*
X139689000Y-89003000D02*
X139689000Y-86041000D01*
X139649000Y-94037000D02*
X139649000Y-91083000D01*
X139649000Y-89003000D02*
X139649000Y-86049000D01*
X139609000Y-94028000D02*
X139609000Y-91083000D01*
X139609000Y-89003000D02*
X139609000Y-86058000D01*
X139569000Y-94019000D02*
X139569000Y-91083000D01*
X139569000Y-89003000D02*
X139569000Y-86067000D01*
X139529000Y-94010000D02*
X139529000Y-91083000D01*
X139529000Y-89003000D02*
X139529000Y-86076000D01*
X139489000Y-94000000D02*
X139489000Y-91083000D01*
X139489000Y-89003000D02*
X139489000Y-86086000D01*
X139449000Y-93990000D02*
X139449000Y-91083000D01*
X139449000Y-89003000D02*
X139449000Y-86096000D01*
X139409000Y-93979000D02*
X139409000Y-91083000D01*
X139409000Y-89003000D02*
X139409000Y-86107000D01*
X139369000Y-93968000D02*
X139369000Y-91083000D01*
X139369000Y-89003000D02*
X139369000Y-86118000D01*
X139329000Y-93957000D02*
X139329000Y-91083000D01*
X139329000Y-89003000D02*
X139329000Y-86129000D01*
X139289000Y-93945000D02*
X139289000Y-91083000D01*
X139289000Y-89003000D02*
X139289000Y-86141000D01*
X139249000Y-93932000D02*
X139249000Y-91083000D01*
X139249000Y-89003000D02*
X139249000Y-86154000D01*
X139209000Y-93920000D02*
X139209000Y-91083000D01*
X139209000Y-89003000D02*
X139209000Y-86166000D01*
X139169000Y-93906000D02*
X139169000Y-91083000D01*
X139169000Y-89003000D02*
X139169000Y-86180000D01*
X139129000Y-93893000D02*
X139129000Y-91083000D01*
X139129000Y-89003000D02*
X139129000Y-86193000D01*
X139089000Y-93878000D02*
X139089000Y-91083000D01*
X139089000Y-89003000D02*
X139089000Y-86208000D01*
X139049000Y-93864000D02*
X139049000Y-91083000D01*
X139049000Y-89003000D02*
X139049000Y-86222000D01*
X139009000Y-93848000D02*
X139009000Y-91083000D01*
X139009000Y-89003000D02*
X139009000Y-86238000D01*
X138969000Y-93833000D02*
X138969000Y-91083000D01*
X138969000Y-89003000D02*
X138969000Y-86253000D01*
X138929000Y-93817000D02*
X138929000Y-91083000D01*
X138929000Y-89003000D02*
X138929000Y-86269000D01*
X138889000Y-93800000D02*
X138889000Y-91083000D01*
X138889000Y-89003000D02*
X138889000Y-86286000D01*
X138849000Y-93783000D02*
X138849000Y-91083000D01*
X138849000Y-89003000D02*
X138849000Y-86303000D01*
X138809000Y-93765000D02*
X138809000Y-91083000D01*
X138809000Y-89003000D02*
X138809000Y-86321000D01*
X138769000Y-93747000D02*
X138769000Y-91083000D01*
X138769000Y-89003000D02*
X138769000Y-86339000D01*
X138729000Y-93729000D02*
X138729000Y-91083000D01*
X138729000Y-89003000D02*
X138729000Y-86357000D01*
X138689000Y-93709000D02*
X138689000Y-91083000D01*
X138689000Y-89003000D02*
X138689000Y-86377000D01*
X138649000Y-93690000D02*
X138649000Y-91083000D01*
X138649000Y-89003000D02*
X138649000Y-86396000D01*
X138609000Y-93670000D02*
X138609000Y-91083000D01*
X138609000Y-89003000D02*
X138609000Y-86416000D01*
X138569000Y-93649000D02*
X138569000Y-91083000D01*
X138569000Y-89003000D02*
X138569000Y-86437000D01*
X138529000Y-93627000D02*
X138529000Y-91083000D01*
X138529000Y-89003000D02*
X138529000Y-86459000D01*
X138489000Y-93605000D02*
X138489000Y-91083000D01*
X138489000Y-89003000D02*
X138489000Y-86481000D01*
X138449000Y-93583000D02*
X138449000Y-91083000D01*
X138449000Y-89003000D02*
X138449000Y-86503000D01*
X138409000Y-93560000D02*
X138409000Y-91083000D01*
X138409000Y-89003000D02*
X138409000Y-86526000D01*
X138369000Y-93536000D02*
X138369000Y-91083000D01*
X138369000Y-89003000D02*
X138369000Y-86550000D01*
X138329000Y-93512000D02*
X138329000Y-91083000D01*
X138329000Y-89003000D02*
X138329000Y-86574000D01*
X138289000Y-93487000D02*
X138289000Y-91083000D01*
X138289000Y-89003000D02*
X138289000Y-86599000D01*
X138249000Y-93461000D02*
X138249000Y-91083000D01*
X138249000Y-89003000D02*
X138249000Y-86625000D01*
X138209000Y-93435000D02*
X138209000Y-91083000D01*
X138209000Y-89003000D02*
X138209000Y-86651000D01*
X138169000Y-93408000D02*
X138169000Y-91083000D01*
X138169000Y-89003000D02*
X138169000Y-86678000D01*
X138129000Y-93381000D02*
X138129000Y-91083000D01*
X138129000Y-89003000D02*
X138129000Y-86705000D01*
X138089000Y-93352000D02*
X138089000Y-91083000D01*
X138089000Y-89003000D02*
X138089000Y-86734000D01*
X138049000Y-93323000D02*
X138049000Y-91083000D01*
X138049000Y-89003000D02*
X138049000Y-86763000D01*
X138009000Y-93293000D02*
X138009000Y-91083000D01*
X138009000Y-89003000D02*
X138009000Y-86793000D01*
X137969000Y-93263000D02*
X137969000Y-91083000D01*
X137969000Y-89003000D02*
X137969000Y-86823000D01*
X137929000Y-93232000D02*
X137929000Y-91083000D01*
X137929000Y-89003000D02*
X137929000Y-86854000D01*
X137889000Y-93199000D02*
X137889000Y-91083000D01*
X137889000Y-89003000D02*
X137889000Y-86887000D01*
X137849000Y-93167000D02*
X137849000Y-91083000D01*
X137849000Y-89003000D02*
X137849000Y-86919000D01*
X137809000Y-93133000D02*
X137809000Y-91083000D01*
X137809000Y-89003000D02*
X137809000Y-86953000D01*
X137769000Y-93098000D02*
X137769000Y-91083000D01*
X137769000Y-89003000D02*
X137769000Y-86988000D01*
X137729000Y-93062000D02*
X137729000Y-91083000D01*
X137729000Y-89003000D02*
X137729000Y-87024000D01*
X137689000Y-93026000D02*
X137689000Y-87060000D01*
X137649000Y-92988000D02*
X137649000Y-87098000D01*
X137609000Y-92950000D02*
X137609000Y-87136000D01*
X137569000Y-92910000D02*
X137569000Y-87176000D01*
X137529000Y-92869000D02*
X137529000Y-87217000D01*
X137489000Y-92827000D02*
X137489000Y-87259000D01*
X137449000Y-92784000D02*
X137449000Y-87302000D01*
X137409000Y-92740000D02*
X137409000Y-87346000D01*
X137369000Y-92694000D02*
X137369000Y-87392000D01*
X137329000Y-92647000D02*
X137329000Y-87439000D01*
X137289000Y-92599000D02*
X137289000Y-87487000D01*
X137249000Y-92548000D02*
X137249000Y-87538000D01*
X137209000Y-92497000D02*
X137209000Y-87589000D01*
X137169000Y-92443000D02*
X137169000Y-87643000D01*
X137129000Y-92388000D02*
X137129000Y-87698000D01*
X137089000Y-92330000D02*
X137089000Y-87756000D01*
X137049000Y-92271000D02*
X137049000Y-87815000D01*
X137009000Y-92209000D02*
X137009000Y-87877000D01*
X136969000Y-92145000D02*
X136969000Y-87941000D01*
X136929000Y-92077000D02*
X136929000Y-88009000D01*
X136889000Y-92007000D02*
X136889000Y-88079000D01*
X136849000Y-91933000D02*
X136849000Y-88153000D01*
X136809000Y-91856000D02*
X136809000Y-88230000D01*
X136769000Y-91774000D02*
X136769000Y-88312000D01*
X136729000Y-91688000D02*
X136729000Y-88398000D01*
X136689000Y-91595000D02*
X136689000Y-88491000D01*
X136649000Y-91496000D02*
X136649000Y-88590000D01*
X136609000Y-91389000D02*
X136609000Y-88697000D01*
X136569000Y-91272000D02*
X136569000Y-88814000D01*
X136529000Y-91141000D02*
X136529000Y-88945000D01*
X136489000Y-90991000D02*
X136489000Y-89095000D01*
X136449000Y-90811000D02*
X136449000Y-89275000D01*
X136409000Y-90576000D02*
X136409000Y-89510000D01*
X144899698Y-92358000D02*
X144099698Y-92358000D01*
X144499698Y-92758000D02*
X144499698Y-91958000D01*
X144130000Y-99349000D02*
X137890000Y-99349000D01*
X144130000Y-94707000D02*
X137890000Y-94707000D01*
X144130000Y-99349000D02*
X144130000Y-97953000D01*
X144130000Y-96103000D02*
X144130000Y-94707000D01*
X137890000Y-99349000D02*
X137890000Y-97953000D01*
X137890000Y-96103000D02*
X137890000Y-94707000D01*
X132370000Y-101060000D02*
X132815000Y-101060000D01*
X130075000Y-101060000D02*
X130520000Y-101060000D01*
X132370000Y-107300000D02*
X132815000Y-107300000D01*
X130075000Y-107300000D02*
X130520000Y-107300000D01*
X132815000Y-107300000D02*
X132815000Y-101060000D01*
X130075000Y-107300000D02*
X130075000Y-101060000D01*
X144160000Y-111660000D02*
X150400000Y-111660000D01*
X144160000Y-114400000D02*
X150400000Y-114400000D01*
X144160000Y-111660000D02*
X144160000Y-112105000D01*
X144160000Y-113955000D02*
X144160000Y-114400000D01*
X150400000Y-111660000D02*
X150400000Y-112105000D01*
X150400000Y-113955000D02*
X150400000Y-114400000D01*
X150400000Y-119035000D02*
X150400000Y-119480000D01*
X150400000Y-116740000D02*
X150400000Y-117185000D01*
X144160000Y-119035000D02*
X144160000Y-119480000D01*
X144160000Y-116740000D02*
X144160000Y-117185000D01*
X144160000Y-119480000D02*
X150400000Y-119480000D01*
X144160000Y-116740000D02*
X150400000Y-116740000D01*
X175800000Y-114590000D02*
X175800000Y-115986000D01*
X175800000Y-111344000D02*
X175800000Y-112740000D01*
X169560000Y-114590000D02*
X169560000Y-115986000D01*
X169560000Y-111344000D02*
X169560000Y-112740000D01*
X169560000Y-115986000D02*
X175800000Y-115986000D01*
X169560000Y-111344000D02*
X175800000Y-111344000D01*
X169560000Y-107850000D02*
X175800000Y-107850000D01*
X169560000Y-110590000D02*
X175800000Y-110590000D01*
X169560000Y-107850000D02*
X169560000Y-108295000D01*
X169560000Y-110145000D02*
X169560000Y-110590000D01*
X175800000Y-107850000D02*
X175800000Y-108295000D01*
X175800000Y-110145000D02*
X175800000Y-110590000D01*
X169560000Y-102454000D02*
X175800000Y-102454000D01*
X169560000Y-107096000D02*
X175800000Y-107096000D01*
X169560000Y-102454000D02*
X169560000Y-103850000D01*
X169560000Y-105700000D02*
X169560000Y-107096000D01*
X175800000Y-102454000D02*
X175800000Y-103850000D01*
X175800000Y-105700000D02*
X175800000Y-107096000D01*
X176050000Y-97790000D02*
G75*
G03X176050000Y-97790000I-4120000J0D01*
G01*
X171930000Y-93710000D02*
X171930000Y-101870000D01*
X171970000Y-93710000D02*
X171970000Y-101870000D01*
X172010000Y-93710000D02*
X172010000Y-101870000D01*
X172050000Y-93711000D02*
X172050000Y-101869000D01*
X172090000Y-93713000D02*
X172090000Y-101867000D01*
X172130000Y-93714000D02*
X172130000Y-101866000D01*
X172170000Y-93716000D02*
X172170000Y-101864000D01*
X172210000Y-93719000D02*
X172210000Y-101861000D01*
X172250000Y-93722000D02*
X172250000Y-101858000D01*
X172290000Y-93725000D02*
X172290000Y-101855000D01*
X172330000Y-93729000D02*
X172330000Y-101851000D01*
X172370000Y-93733000D02*
X172370000Y-101847000D01*
X172410000Y-93738000D02*
X172410000Y-101842000D01*
X172450000Y-93742000D02*
X172450000Y-101838000D01*
X172490000Y-93748000D02*
X172490000Y-101832000D01*
X172530000Y-93753000D02*
X172530000Y-101827000D01*
X172570000Y-93760000D02*
X172570000Y-101820000D01*
X172610000Y-93766000D02*
X172610000Y-101814000D01*
X172651000Y-93773000D02*
X172651000Y-96750000D01*
X172651000Y-98830000D02*
X172651000Y-101807000D01*
X172691000Y-93780000D02*
X172691000Y-96750000D01*
X172691000Y-98830000D02*
X172691000Y-101800000D01*
X172731000Y-93788000D02*
X172731000Y-96750000D01*
X172731000Y-98830000D02*
X172731000Y-101792000D01*
X172771000Y-93796000D02*
X172771000Y-96750000D01*
X172771000Y-98830000D02*
X172771000Y-101784000D01*
X172811000Y-93805000D02*
X172811000Y-96750000D01*
X172811000Y-98830000D02*
X172811000Y-101775000D01*
X172851000Y-93814000D02*
X172851000Y-96750000D01*
X172851000Y-98830000D02*
X172851000Y-101766000D01*
X172891000Y-93823000D02*
X172891000Y-96750000D01*
X172891000Y-98830000D02*
X172891000Y-101757000D01*
X172931000Y-93833000D02*
X172931000Y-96750000D01*
X172931000Y-98830000D02*
X172931000Y-101747000D01*
X172971000Y-93843000D02*
X172971000Y-96750000D01*
X172971000Y-98830000D02*
X172971000Y-101737000D01*
X173011000Y-93854000D02*
X173011000Y-96750000D01*
X173011000Y-98830000D02*
X173011000Y-101726000D01*
X173051000Y-93865000D02*
X173051000Y-96750000D01*
X173051000Y-98830000D02*
X173051000Y-101715000D01*
X173091000Y-93876000D02*
X173091000Y-96750000D01*
X173091000Y-98830000D02*
X173091000Y-101704000D01*
X173131000Y-93888000D02*
X173131000Y-96750000D01*
X173131000Y-98830000D02*
X173131000Y-101692000D01*
X173171000Y-93901000D02*
X173171000Y-96750000D01*
X173171000Y-98830000D02*
X173171000Y-101679000D01*
X173211000Y-93913000D02*
X173211000Y-96750000D01*
X173211000Y-98830000D02*
X173211000Y-101667000D01*
X173251000Y-93927000D02*
X173251000Y-96750000D01*
X173251000Y-98830000D02*
X173251000Y-101653000D01*
X173291000Y-93940000D02*
X173291000Y-96750000D01*
X173291000Y-98830000D02*
X173291000Y-101640000D01*
X173331000Y-93955000D02*
X173331000Y-96750000D01*
X173331000Y-98830000D02*
X173331000Y-101625000D01*
X173371000Y-93969000D02*
X173371000Y-96750000D01*
X173371000Y-98830000D02*
X173371000Y-101611000D01*
X173411000Y-93985000D02*
X173411000Y-96750000D01*
X173411000Y-98830000D02*
X173411000Y-101595000D01*
X173451000Y-94000000D02*
X173451000Y-96750000D01*
X173451000Y-98830000D02*
X173451000Y-101580000D01*
X173491000Y-94016000D02*
X173491000Y-96750000D01*
X173491000Y-98830000D02*
X173491000Y-101564000D01*
X173531000Y-94033000D02*
X173531000Y-96750000D01*
X173531000Y-98830000D02*
X173531000Y-101547000D01*
X173571000Y-94050000D02*
X173571000Y-96750000D01*
X173571000Y-98830000D02*
X173571000Y-101530000D01*
X173611000Y-94068000D02*
X173611000Y-96750000D01*
X173611000Y-98830000D02*
X173611000Y-101512000D01*
X173651000Y-94086000D02*
X173651000Y-96750000D01*
X173651000Y-98830000D02*
X173651000Y-101494000D01*
X173691000Y-94104000D02*
X173691000Y-96750000D01*
X173691000Y-98830000D02*
X173691000Y-101476000D01*
X173731000Y-94124000D02*
X173731000Y-96750000D01*
X173731000Y-98830000D02*
X173731000Y-101456000D01*
X173771000Y-94143000D02*
X173771000Y-96750000D01*
X173771000Y-98830000D02*
X173771000Y-101437000D01*
X173811000Y-94163000D02*
X173811000Y-96750000D01*
X173811000Y-98830000D02*
X173811000Y-101417000D01*
X173851000Y-94184000D02*
X173851000Y-96750000D01*
X173851000Y-98830000D02*
X173851000Y-101396000D01*
X173891000Y-94206000D02*
X173891000Y-96750000D01*
X173891000Y-98830000D02*
X173891000Y-101374000D01*
X173931000Y-94228000D02*
X173931000Y-96750000D01*
X173931000Y-98830000D02*
X173931000Y-101352000D01*
X173971000Y-94250000D02*
X173971000Y-96750000D01*
X173971000Y-98830000D02*
X173971000Y-101330000D01*
X174011000Y-94273000D02*
X174011000Y-96750000D01*
X174011000Y-98830000D02*
X174011000Y-101307000D01*
X174051000Y-94297000D02*
X174051000Y-96750000D01*
X174051000Y-98830000D02*
X174051000Y-101283000D01*
X174091000Y-94321000D02*
X174091000Y-96750000D01*
X174091000Y-98830000D02*
X174091000Y-101259000D01*
X174131000Y-94346000D02*
X174131000Y-96750000D01*
X174131000Y-98830000D02*
X174131000Y-101234000D01*
X174171000Y-94372000D02*
X174171000Y-96750000D01*
X174171000Y-98830000D02*
X174171000Y-101208000D01*
X174211000Y-94398000D02*
X174211000Y-96750000D01*
X174211000Y-98830000D02*
X174211000Y-101182000D01*
X174251000Y-94425000D02*
X174251000Y-96750000D01*
X174251000Y-98830000D02*
X174251000Y-101155000D01*
X174291000Y-94452000D02*
X174291000Y-96750000D01*
X174291000Y-98830000D02*
X174291000Y-101128000D01*
X174331000Y-94481000D02*
X174331000Y-96750000D01*
X174331000Y-98830000D02*
X174331000Y-101099000D01*
X174371000Y-94510000D02*
X174371000Y-96750000D01*
X174371000Y-98830000D02*
X174371000Y-101070000D01*
X174411000Y-94540000D02*
X174411000Y-96750000D01*
X174411000Y-98830000D02*
X174411000Y-101040000D01*
X174451000Y-94570000D02*
X174451000Y-96750000D01*
X174451000Y-98830000D02*
X174451000Y-101010000D01*
X174491000Y-94601000D02*
X174491000Y-96750000D01*
X174491000Y-98830000D02*
X174491000Y-100979000D01*
X174531000Y-94634000D02*
X174531000Y-96750000D01*
X174531000Y-98830000D02*
X174531000Y-100946000D01*
X174571000Y-94666000D02*
X174571000Y-96750000D01*
X174571000Y-98830000D02*
X174571000Y-100914000D01*
X174611000Y-94700000D02*
X174611000Y-96750000D01*
X174611000Y-98830000D02*
X174611000Y-100880000D01*
X174651000Y-94735000D02*
X174651000Y-96750000D01*
X174651000Y-98830000D02*
X174651000Y-100845000D01*
X174691000Y-94771000D02*
X174691000Y-96750000D01*
X174691000Y-98830000D02*
X174691000Y-100809000D01*
X174731000Y-94807000D02*
X174731000Y-100773000D01*
X174771000Y-94845000D02*
X174771000Y-100735000D01*
X174811000Y-94883000D02*
X174811000Y-100697000D01*
X174851000Y-94923000D02*
X174851000Y-100657000D01*
X174891000Y-94964000D02*
X174891000Y-100616000D01*
X174931000Y-95006000D02*
X174931000Y-100574000D01*
X174971000Y-95049000D02*
X174971000Y-100531000D01*
X175011000Y-95093000D02*
X175011000Y-100487000D01*
X175051000Y-95139000D02*
X175051000Y-100441000D01*
X175091000Y-95186000D02*
X175091000Y-100394000D01*
X175131000Y-95234000D02*
X175131000Y-100346000D01*
X175171000Y-95285000D02*
X175171000Y-100295000D01*
X175211000Y-95336000D02*
X175211000Y-100244000D01*
X175251000Y-95390000D02*
X175251000Y-100190000D01*
X175291000Y-95445000D02*
X175291000Y-100135000D01*
X175331000Y-95503000D02*
X175331000Y-100077000D01*
X175371000Y-95562000D02*
X175371000Y-100018000D01*
X175411000Y-95624000D02*
X175411000Y-99956000D01*
X175451000Y-95688000D02*
X175451000Y-99892000D01*
X175491000Y-95756000D02*
X175491000Y-99824000D01*
X175531000Y-95826000D02*
X175531000Y-99754000D01*
X175571000Y-95900000D02*
X175571000Y-99680000D01*
X175611000Y-95977000D02*
X175611000Y-99603000D01*
X175651000Y-96059000D02*
X175651000Y-99521000D01*
X175691000Y-96145000D02*
X175691000Y-99435000D01*
X175731000Y-96238000D02*
X175731000Y-99342000D01*
X175771000Y-96337000D02*
X175771000Y-99243000D01*
X175811000Y-96444000D02*
X175811000Y-99136000D01*
X175851000Y-96561000D02*
X175851000Y-99019000D01*
X175891000Y-96692000D02*
X175891000Y-98888000D01*
X175931000Y-96842000D02*
X175931000Y-98738000D01*
X175971000Y-97022000D02*
X175971000Y-98558000D01*
X176011000Y-97257000D02*
X176011000Y-98323000D01*
X167520302Y-95475000D02*
X168320302Y-95475000D01*
X167920302Y-95075000D02*
X167920302Y-95875000D01*
X151980000Y-93703000D02*
X151980000Y-91463000D01*
X151980000Y-91463000D02*
X147740000Y-91463000D01*
X147740000Y-91463000D02*
X147740000Y-93703000D01*
X147740000Y-93703000D02*
X151980000Y-93703000D01*
X152630000Y-92583000D02*
X151980000Y-92583000D01*
X147090000Y-92583000D02*
X147740000Y-92583000D01*
X151260000Y-93703000D02*
X151260000Y-91463000D01*
X151140000Y-93703000D02*
X151140000Y-91463000D01*
X151380000Y-93703000D02*
X151380000Y-91463000D01*
X132020000Y-93024000D02*
X134680000Y-93024000D01*
X132020000Y-90424000D02*
X132020000Y-93024000D01*
X134680000Y-90424000D02*
X134680000Y-93024000D01*
X132020000Y-90424000D02*
X134680000Y-90424000D01*
X132020000Y-89154000D02*
X132020000Y-87824000D01*
X132020000Y-87824000D02*
X133350000Y-87824000D01*
X146670000Y-96678000D02*
X150510000Y-96678000D01*
X146670000Y-94838000D02*
X150510000Y-94838000D01*
X146670000Y-99218000D02*
X150510000Y-99218000D01*
X146670000Y-97378000D02*
X150510000Y-97378000D01*
X154290000Y-99918000D02*
X158130000Y-99918000D01*
X154290000Y-101758000D02*
X158130000Y-101758000D01*
X132192000Y-113950000D02*
X136032000Y-113950000D01*
X132192000Y-112110000D02*
X136032000Y-112110000D01*
X132192000Y-117190000D02*
X136032000Y-117190000D01*
X132192000Y-119030000D02*
X136032000Y-119030000D01*
X136032000Y-114650000D02*
X132192000Y-114650000D01*
X136032000Y-116490000D02*
X132192000Y-116490000D01*
X158765000Y-109570000D02*
X154925000Y-109570000D01*
X158765000Y-111410000D02*
X154925000Y-111410000D01*
X167020000Y-106330000D02*
X163180000Y-106330000D01*
X167020000Y-104490000D02*
X163180000Y-104490000D01*
X158765000Y-119030000D02*
X154925000Y-119030000D01*
X158765000Y-117190000D02*
X154925000Y-117190000D01*
X158765000Y-104490000D02*
X154925000Y-104490000D01*
X158765000Y-106330000D02*
X154925000Y-106330000D01*
X163180000Y-100680000D02*
X167020000Y-100680000D01*
X163180000Y-102520000D02*
X167020000Y-102520000D01*
X158765000Y-112110000D02*
X154925000Y-112110000D01*
X158765000Y-113950000D02*
X154925000Y-113950000D01*
X167020000Y-116490000D02*
X163180000Y-116490000D01*
X167020000Y-114650000D02*
X163180000Y-114650000D01*
X158765000Y-116490000D02*
X154925000Y-116490000D01*
X158765000Y-114650000D02*
X154925000Y-114650000D01*
X158765000Y-108870000D02*
X154925000Y-108870000D01*
X158765000Y-107030000D02*
X154925000Y-107030000D01*
X172100000Y-117190000D02*
X168260000Y-117190000D01*
X172100000Y-119030000D02*
X168260000Y-119030000D01*
X142745000Y-112095000D02*
X142745000Y-119045000D01*
X138005000Y-112095000D02*
X138005000Y-119045000D01*
X142745000Y-112095000D02*
X142100000Y-112095000D01*
X141110000Y-112095000D02*
X138005000Y-112095000D01*
X142745000Y-119045000D02*
X142100000Y-119045000D01*
X141110000Y-119045000D02*
X138005000Y-119045000D01*
X145375000Y-86138000D02*
X155615000Y-86138000D01*
X145375000Y-90779000D02*
X155615000Y-90779000D01*
X145375000Y-86138000D02*
X145375000Y-90779000D01*
X155615000Y-86138000D02*
X155615000Y-90779000D01*
X145375000Y-87648000D02*
X155615000Y-87648000D01*
X148645000Y-86138000D02*
X148645000Y-87648000D01*
X152346000Y-86138000D02*
X152346000Y-87648000D01*
X143570000Y-106410000D02*
G75*
G02X143570000Y-104410000I0J1000000D01*
G01*
X143570000Y-104410000D02*
X143570000Y-103160000D01*
X143570000Y-103160000D02*
X133290000Y-103160000D01*
X133290000Y-103160000D02*
X133290000Y-107660000D01*
X133290000Y-107660000D02*
X143570000Y-107660000D01*
X143570000Y-107660000D02*
X143570000Y-106410000D01*
X174050000Y-92770000D02*
X174050000Y-90110000D01*
X171450000Y-92770000D02*
X174050000Y-92770000D01*
X171450000Y-90110000D02*
X174050000Y-90110000D01*
X171450000Y-92770000D02*
X171450000Y-90110000D01*
X170180000Y-92770000D02*
X168850000Y-92770000D01*
X168850000Y-92770000D02*
X168850000Y-91440000D01*
X149760000Y-109840000D02*
X149760000Y-103600000D01*
X152500000Y-109840000D02*
X152500000Y-103600000D01*
X149760000Y-109840000D02*
X150205000Y-109840000D01*
X152055000Y-109840000D02*
X152500000Y-109840000D01*
X149760000Y-103600000D02*
X150205000Y-103600000D01*
X152055000Y-103600000D02*
X152500000Y-103600000D01*
X174050000Y-88960000D02*
X174050000Y-86300000D01*
X171450000Y-88960000D02*
X174050000Y-88960000D01*
X171450000Y-86300000D02*
X174050000Y-86300000D01*
X171450000Y-88960000D02*
X171450000Y-86300000D01*
X170180000Y-88960000D02*
X168850000Y-88960000D01*
X168850000Y-88960000D02*
X168850000Y-87630000D01*
D11*
X165822380Y-111251904D02*
X166631904Y-111251904D01*
X166727142Y-111204285D01*
X166774761Y-111156666D01*
X166822380Y-111061428D01*
X166822380Y-110870952D01*
X166774761Y-110775714D01*
X166727142Y-110728095D01*
X166631904Y-110680476D01*
X165822380Y-110680476D01*
X165822380Y-110299523D02*
X165822380Y-109680476D01*
X166203333Y-110013809D01*
X166203333Y-109870952D01*
X166250952Y-109775714D01*
X166298571Y-109728095D01*
X166393809Y-109680476D01*
X166631904Y-109680476D01*
X166727142Y-109728095D01*
X166774761Y-109775714D01*
X166822380Y-109870952D01*
X166822380Y-110156666D01*
X166774761Y-110251904D01*
X166727142Y-110299523D01*
X163272380Y-113418571D02*
X163272380Y-113228095D01*
X163320000Y-113132857D01*
X163415238Y-113037619D01*
X163605714Y-112990000D01*
X163939047Y-112990000D01*
X164129523Y-113037619D01*
X164224761Y-113132857D01*
X164272380Y-113228095D01*
X164272380Y-113418571D01*
X164224761Y-113513809D01*
X164129523Y-113609047D01*
X163939047Y-113656666D01*
X163605714Y-113656666D01*
X163415238Y-113609047D01*
X163320000Y-113513809D01*
X163272380Y-113418571D01*
X164272380Y-112561428D02*
X163272380Y-112561428D01*
X163272380Y-112180476D01*
X163320000Y-112085238D01*
X163367619Y-112037619D01*
X163462857Y-111990000D01*
X163605714Y-111990000D01*
X163700952Y-112037619D01*
X163748571Y-112085238D01*
X163796190Y-112180476D01*
X163796190Y-112561428D01*
X163986666Y-111609047D02*
X163986666Y-111132857D01*
X164272380Y-111704285D02*
X163272380Y-111370952D01*
X164272380Y-111037619D01*
X163367619Y-110751904D02*
X163320000Y-110704285D01*
X163272380Y-110609047D01*
X163272380Y-110370952D01*
X163320000Y-110275714D01*
X163367619Y-110228095D01*
X163462857Y-110180476D01*
X163558095Y-110180476D01*
X163700952Y-110228095D01*
X164272380Y-110799523D01*
X164272380Y-110180476D01*
X164272380Y-109228095D02*
X164272380Y-109799523D01*
X164272380Y-109513809D02*
X163272380Y-109513809D01*
X163415238Y-109609047D01*
X163510476Y-109704285D01*
X163558095Y-109799523D01*
X163700952Y-108656666D02*
X163653333Y-108751904D01*
X163605714Y-108799523D01*
X163510476Y-108847142D01*
X163462857Y-108847142D01*
X163367619Y-108799523D01*
X163320000Y-108751904D01*
X163272380Y-108656666D01*
X163272380Y-108466190D01*
X163320000Y-108370952D01*
X163367619Y-108323333D01*
X163462857Y-108275714D01*
X163510476Y-108275714D01*
X163605714Y-108323333D01*
X163653333Y-108370952D01*
X163700952Y-108466190D01*
X163700952Y-108656666D01*
X163748571Y-108751904D01*
X163796190Y-108799523D01*
X163891428Y-108847142D01*
X164081904Y-108847142D01*
X164177142Y-108799523D01*
X164224761Y-108751904D01*
X164272380Y-108656666D01*
X164272380Y-108466190D01*
X164224761Y-108370952D01*
X164177142Y-108323333D01*
X164081904Y-108275714D01*
X163891428Y-108275714D01*
X163796190Y-108323333D01*
X163748571Y-108370952D01*
X163700952Y-108466190D01*
X163367619Y-107894761D02*
X163320000Y-107847142D01*
X163272380Y-107751904D01*
X163272380Y-107513809D01*
X163320000Y-107418571D01*
X163367619Y-107370952D01*
X163462857Y-107323333D01*
X163558095Y-107323333D01*
X163700952Y-107370952D01*
X164272380Y-107942380D01*
X164272380Y-107323333D01*
X158583333Y-89765142D02*
X158535714Y-89812761D01*
X158392857Y-89860380D01*
X158297619Y-89860380D01*
X158154761Y-89812761D01*
X158059523Y-89717523D01*
X158011904Y-89622285D01*
X157964285Y-89431809D01*
X157964285Y-89288952D01*
X158011904Y-89098476D01*
X158059523Y-89003238D01*
X158154761Y-88908000D01*
X158297619Y-88860380D01*
X158392857Y-88860380D01*
X158535714Y-88908000D01*
X158583333Y-88955619D01*
X159535714Y-89860380D02*
X158964285Y-89860380D01*
X159250000Y-89860380D02*
X159250000Y-88860380D01*
X159154761Y-89003238D01*
X159059523Y-89098476D01*
X158964285Y-89146095D01*
X156043333Y-96115142D02*
X155995714Y-96162761D01*
X155852857Y-96210380D01*
X155757619Y-96210380D01*
X155614761Y-96162761D01*
X155519523Y-96067523D01*
X155471904Y-95972285D01*
X155424285Y-95781809D01*
X155424285Y-95638952D01*
X155471904Y-95448476D01*
X155519523Y-95353238D01*
X155614761Y-95258000D01*
X155757619Y-95210380D01*
X155852857Y-95210380D01*
X155995714Y-95258000D01*
X156043333Y-95305619D01*
X156424285Y-95305619D02*
X156471904Y-95258000D01*
X156567142Y-95210380D01*
X156805238Y-95210380D01*
X156900476Y-95258000D01*
X156948095Y-95305619D01*
X156995714Y-95400857D01*
X156995714Y-95496095D01*
X156948095Y-95638952D01*
X156376666Y-96210380D01*
X156995714Y-96210380D01*
X155138571Y-98750380D02*
X154567142Y-98750380D01*
X154852857Y-98750380D02*
X154852857Y-97750380D01*
X154757619Y-97893238D01*
X154662380Y-97988476D01*
X154567142Y-98036095D01*
X155757619Y-97750380D02*
X155852857Y-97750380D01*
X155948095Y-97798000D01*
X155995714Y-97845619D01*
X156043333Y-97940857D01*
X156090952Y-98131333D01*
X156090952Y-98369428D01*
X156043333Y-98559904D01*
X155995714Y-98655142D01*
X155948095Y-98702761D01*
X155852857Y-98750380D01*
X155757619Y-98750380D01*
X155662380Y-98702761D01*
X155614761Y-98655142D01*
X155567142Y-98559904D01*
X155519523Y-98369428D01*
X155519523Y-98131333D01*
X155567142Y-97940857D01*
X155614761Y-97845619D01*
X155662380Y-97798000D01*
X155757619Y-97750380D01*
X156948095Y-98083714D02*
X156948095Y-98750380D01*
X156519523Y-98083714D02*
X156519523Y-98607523D01*
X156567142Y-98702761D01*
X156662380Y-98750380D01*
X156805238Y-98750380D01*
X156900476Y-98702761D01*
X156948095Y-98655142D01*
X157757619Y-98226571D02*
X157424285Y-98226571D01*
X157424285Y-98750380D02*
X157424285Y-97750380D01*
X157900476Y-97750380D01*
X163663333Y-96750142D02*
X163615714Y-96797761D01*
X163472857Y-96845380D01*
X163377619Y-96845380D01*
X163234761Y-96797761D01*
X163139523Y-96702523D01*
X163091904Y-96607285D01*
X163044285Y-96416809D01*
X163044285Y-96273952D01*
X163091904Y-96083476D01*
X163139523Y-95988238D01*
X163234761Y-95893000D01*
X163377619Y-95845380D01*
X163472857Y-95845380D01*
X163615714Y-95893000D01*
X163663333Y-95940619D01*
X163996666Y-95845380D02*
X164615714Y-95845380D01*
X164282380Y-96226333D01*
X164425238Y-96226333D01*
X164520476Y-96273952D01*
X164568095Y-96321571D01*
X164615714Y-96416809D01*
X164615714Y-96654904D01*
X164568095Y-96750142D01*
X164520476Y-96797761D01*
X164425238Y-96845380D01*
X164139523Y-96845380D01*
X164044285Y-96797761D01*
X163996666Y-96750142D01*
X162758571Y-99385380D02*
X162187142Y-99385380D01*
X162472857Y-99385380D02*
X162472857Y-98385380D01*
X162377619Y-98528238D01*
X162282380Y-98623476D01*
X162187142Y-98671095D01*
X163377619Y-98385380D02*
X163472857Y-98385380D01*
X163568095Y-98433000D01*
X163615714Y-98480619D01*
X163663333Y-98575857D01*
X163710952Y-98766333D01*
X163710952Y-99004428D01*
X163663333Y-99194904D01*
X163615714Y-99290142D01*
X163568095Y-99337761D01*
X163472857Y-99385380D01*
X163377619Y-99385380D01*
X163282380Y-99337761D01*
X163234761Y-99290142D01*
X163187142Y-99194904D01*
X163139523Y-99004428D01*
X163139523Y-98766333D01*
X163187142Y-98575857D01*
X163234761Y-98480619D01*
X163282380Y-98433000D01*
X163377619Y-98385380D01*
X164568095Y-98718714D02*
X164568095Y-99385380D01*
X164139523Y-98718714D02*
X164139523Y-99242523D01*
X164187142Y-99337761D01*
X164282380Y-99385380D01*
X164425238Y-99385380D01*
X164520476Y-99337761D01*
X164568095Y-99290142D01*
X165377619Y-98861571D02*
X165044285Y-98861571D01*
X165044285Y-99385380D02*
X165044285Y-98385380D01*
X165520476Y-98385380D01*
X146518333Y-105767142D02*
X146470714Y-105814761D01*
X146327857Y-105862380D01*
X146232619Y-105862380D01*
X146089761Y-105814761D01*
X145994523Y-105719523D01*
X145946904Y-105624285D01*
X145899285Y-105433809D01*
X145899285Y-105290952D01*
X145946904Y-105100476D01*
X145994523Y-105005238D01*
X146089761Y-104910000D01*
X146232619Y-104862380D01*
X146327857Y-104862380D01*
X146470714Y-104910000D01*
X146518333Y-104957619D01*
X147375476Y-105195714D02*
X147375476Y-105862380D01*
X147137380Y-104814761D02*
X146899285Y-105529047D01*
X147518333Y-105529047D01*
X145613571Y-107132380D02*
X145042142Y-107132380D01*
X145327857Y-107132380D02*
X145327857Y-106132380D01*
X145232619Y-106275238D01*
X145137380Y-106370476D01*
X145042142Y-106418095D01*
X146232619Y-106132380D02*
X146327857Y-106132380D01*
X146423095Y-106180000D01*
X146470714Y-106227619D01*
X146518333Y-106322857D01*
X146565952Y-106513333D01*
X146565952Y-106751428D01*
X146518333Y-106941904D01*
X146470714Y-107037142D01*
X146423095Y-107084761D01*
X146327857Y-107132380D01*
X146232619Y-107132380D01*
X146137380Y-107084761D01*
X146089761Y-107037142D01*
X146042142Y-106941904D01*
X145994523Y-106751428D01*
X145994523Y-106513333D01*
X146042142Y-106322857D01*
X146089761Y-106227619D01*
X146137380Y-106180000D01*
X146232619Y-106132380D01*
X147423095Y-106465714D02*
X147423095Y-107132380D01*
X146994523Y-106465714D02*
X146994523Y-106989523D01*
X147042142Y-107084761D01*
X147137380Y-107132380D01*
X147280238Y-107132380D01*
X147375476Y-107084761D01*
X147423095Y-107037142D01*
X148232619Y-106608571D02*
X147899285Y-106608571D01*
X147899285Y-107132380D02*
X147899285Y-106132380D01*
X148375476Y-106132380D01*
X141962142Y-87669666D02*
X142009761Y-87717285D01*
X142057380Y-87860142D01*
X142057380Y-87955380D01*
X142009761Y-88098238D01*
X141914523Y-88193476D01*
X141819285Y-88241095D01*
X141628809Y-88288714D01*
X141485952Y-88288714D01*
X141295476Y-88241095D01*
X141200238Y-88193476D01*
X141105000Y-88098238D01*
X141057380Y-87955380D01*
X141057380Y-87860142D01*
X141105000Y-87717285D01*
X141152619Y-87669666D01*
X141057380Y-86764904D02*
X141057380Y-87241095D01*
X141533571Y-87288714D01*
X141485952Y-87241095D01*
X141438333Y-87145857D01*
X141438333Y-86907761D01*
X141485952Y-86812523D01*
X141533571Y-86764904D01*
X141628809Y-86717285D01*
X141866904Y-86717285D01*
X141962142Y-86764904D01*
X142009761Y-86812523D01*
X142057380Y-86907761D01*
X142057380Y-87145857D01*
X142009761Y-87241095D01*
X141962142Y-87288714D01*
X140692142Y-97194666D02*
X140739761Y-97242285D01*
X140787380Y-97385142D01*
X140787380Y-97480380D01*
X140739761Y-97623238D01*
X140644523Y-97718476D01*
X140549285Y-97766095D01*
X140358809Y-97813714D01*
X140215952Y-97813714D01*
X140025476Y-97766095D01*
X139930238Y-97718476D01*
X139835000Y-97623238D01*
X139787380Y-97480380D01*
X139787380Y-97385142D01*
X139835000Y-97242285D01*
X139882619Y-97194666D01*
X139787380Y-96337523D02*
X139787380Y-96528000D01*
X139835000Y-96623238D01*
X139882619Y-96670857D01*
X140025476Y-96766095D01*
X140215952Y-96813714D01*
X140596904Y-96813714D01*
X140692142Y-96766095D01*
X140739761Y-96718476D01*
X140787380Y-96623238D01*
X140787380Y-96432761D01*
X140739761Y-96337523D01*
X140692142Y-96289904D01*
X140596904Y-96242285D01*
X140358809Y-96242285D01*
X140263571Y-96289904D01*
X140215952Y-96337523D01*
X140168333Y-96432761D01*
X140168333Y-96623238D01*
X140215952Y-96718476D01*
X140263571Y-96766095D01*
X140358809Y-96813714D01*
X141057380Y-98670857D02*
X141057380Y-98575619D01*
X141105000Y-98480380D01*
X141152619Y-98432761D01*
X141247857Y-98385142D01*
X141438333Y-98337523D01*
X141676428Y-98337523D01*
X141866904Y-98385142D01*
X141962142Y-98432761D01*
X142009761Y-98480380D01*
X142057380Y-98575619D01*
X142057380Y-98670857D01*
X142009761Y-98766095D01*
X141962142Y-98813714D01*
X141866904Y-98861333D01*
X141676428Y-98908952D01*
X141438333Y-98908952D01*
X141247857Y-98861333D01*
X141152619Y-98813714D01*
X141105000Y-98766095D01*
X141057380Y-98670857D01*
X141962142Y-97908952D02*
X142009761Y-97861333D01*
X142057380Y-97908952D01*
X142009761Y-97956571D01*
X141962142Y-97908952D01*
X142057380Y-97908952D01*
X142057380Y-96908952D02*
X142057380Y-97480380D01*
X142057380Y-97194666D02*
X141057380Y-97194666D01*
X141200238Y-97289904D01*
X141295476Y-97385142D01*
X141343095Y-97480380D01*
X141390714Y-96051809D02*
X142057380Y-96051809D01*
X141390714Y-96480380D02*
X141914523Y-96480380D01*
X142009761Y-96432761D01*
X142057380Y-96337523D01*
X142057380Y-96194666D01*
X142009761Y-96099428D01*
X141962142Y-96051809D01*
X141533571Y-95242285D02*
X141533571Y-95575619D01*
X142057380Y-95575619D02*
X141057380Y-95575619D01*
X141057380Y-95099428D01*
X131897380Y-104735238D02*
X131897380Y-105306666D01*
X131897380Y-105020952D02*
X130897380Y-105020952D01*
X131040238Y-105116190D01*
X131135476Y-105211428D01*
X131183095Y-105306666D01*
X131230714Y-103878095D02*
X131897380Y-103878095D01*
X131230714Y-104306666D02*
X131754523Y-104306666D01*
X131849761Y-104259047D01*
X131897380Y-104163809D01*
X131897380Y-104020952D01*
X131849761Y-103925714D01*
X131802142Y-103878095D01*
X131373571Y-103068571D02*
X131373571Y-103401904D01*
X131897380Y-103401904D02*
X130897380Y-103401904D01*
X130897380Y-102925714D01*
X146724761Y-113482380D02*
X146153333Y-113482380D01*
X146439047Y-113482380D02*
X146439047Y-112482380D01*
X146343809Y-112625238D01*
X146248571Y-112720476D01*
X146153333Y-112768095D01*
X147581904Y-112815714D02*
X147581904Y-113482380D01*
X147153333Y-112815714D02*
X147153333Y-113339523D01*
X147200952Y-113434761D01*
X147296190Y-113482380D01*
X147439047Y-113482380D01*
X147534285Y-113434761D01*
X147581904Y-113387142D01*
X148391428Y-112958571D02*
X148058095Y-112958571D01*
X148058095Y-113482380D02*
X148058095Y-112482380D01*
X148534285Y-112482380D01*
X146724761Y-118562380D02*
X146153333Y-118562380D01*
X146439047Y-118562380D02*
X146439047Y-117562380D01*
X146343809Y-117705238D01*
X146248571Y-117800476D01*
X146153333Y-117848095D01*
X147581904Y-117895714D02*
X147581904Y-118562380D01*
X147153333Y-117895714D02*
X147153333Y-118419523D01*
X147200952Y-118514761D01*
X147296190Y-118562380D01*
X147439047Y-118562380D01*
X147534285Y-118514761D01*
X147581904Y-118467142D01*
X148391428Y-118038571D02*
X148058095Y-118038571D01*
X148058095Y-118562380D02*
X148058095Y-117562380D01*
X148534285Y-117562380D01*
X172037142Y-115292142D02*
X171989523Y-115339761D01*
X171846666Y-115387380D01*
X171751428Y-115387380D01*
X171608571Y-115339761D01*
X171513333Y-115244523D01*
X171465714Y-115149285D01*
X171418095Y-114958809D01*
X171418095Y-114815952D01*
X171465714Y-114625476D01*
X171513333Y-114530238D01*
X171608571Y-114435000D01*
X171751428Y-114387380D01*
X171846666Y-114387380D01*
X171989523Y-114435000D01*
X172037142Y-114482619D01*
X172989523Y-115387380D02*
X172418095Y-115387380D01*
X172703809Y-115387380D02*
X172703809Y-114387380D01*
X172608571Y-114530238D01*
X172513333Y-114625476D01*
X172418095Y-114673095D01*
X173608571Y-114387380D02*
X173703809Y-114387380D01*
X173799047Y-114435000D01*
X173846666Y-114482619D01*
X173894285Y-114577857D01*
X173941904Y-114768333D01*
X173941904Y-115006428D01*
X173894285Y-115196904D01*
X173846666Y-115292142D01*
X173799047Y-115339761D01*
X173703809Y-115387380D01*
X173608571Y-115387380D01*
X173513333Y-115339761D01*
X173465714Y-115292142D01*
X173418095Y-115196904D01*
X173370476Y-115006428D01*
X173370476Y-114768333D01*
X173418095Y-114577857D01*
X173465714Y-114482619D01*
X173513333Y-114435000D01*
X173608571Y-114387380D01*
X171037142Y-111847380D02*
X171132380Y-111847380D01*
X171227619Y-111895000D01*
X171275238Y-111942619D01*
X171322857Y-112037857D01*
X171370476Y-112228333D01*
X171370476Y-112466428D01*
X171322857Y-112656904D01*
X171275238Y-112752142D01*
X171227619Y-112799761D01*
X171132380Y-112847380D01*
X171037142Y-112847380D01*
X170941904Y-112799761D01*
X170894285Y-112752142D01*
X170846666Y-112656904D01*
X170799047Y-112466428D01*
X170799047Y-112228333D01*
X170846666Y-112037857D01*
X170894285Y-111942619D01*
X170941904Y-111895000D01*
X171037142Y-111847380D01*
X171799047Y-112752142D02*
X171846666Y-112799761D01*
X171799047Y-112847380D01*
X171751428Y-112799761D01*
X171799047Y-112752142D01*
X171799047Y-112847380D01*
X172799047Y-112847380D02*
X172227619Y-112847380D01*
X172513333Y-112847380D02*
X172513333Y-111847380D01*
X172418095Y-111990238D01*
X172322857Y-112085476D01*
X172227619Y-112133095D01*
X173656190Y-112180714D02*
X173656190Y-112847380D01*
X173227619Y-112180714D02*
X173227619Y-112704523D01*
X173275238Y-112799761D01*
X173370476Y-112847380D01*
X173513333Y-112847380D01*
X173608571Y-112799761D01*
X173656190Y-112752142D01*
X174465714Y-112323571D02*
X174132380Y-112323571D01*
X174132380Y-112847380D02*
X174132380Y-111847380D01*
X174608571Y-111847380D01*
X172084761Y-109557379D02*
X171513333Y-109557379D01*
X171799047Y-109557379D02*
X171799047Y-108557379D01*
X171703809Y-108700237D01*
X171608571Y-108795475D01*
X171513333Y-108843094D01*
X172941904Y-108890713D02*
X172941904Y-109557379D01*
X172513333Y-108890713D02*
X172513333Y-109414522D01*
X172560952Y-109509760D01*
X172656190Y-109557379D01*
X172799047Y-109557379D01*
X172894285Y-109509760D01*
X172941904Y-109462141D01*
X173751428Y-109033570D02*
X173418095Y-109033570D01*
X173418095Y-109557379D02*
X173418095Y-108557379D01*
X173894285Y-108557379D01*
X172212141Y-104302141D02*
X172164522Y-104349760D01*
X172021665Y-104397379D01*
X171926427Y-104397379D01*
X171783570Y-104349760D01*
X171688332Y-104254522D01*
X171640713Y-104159284D01*
X171593094Y-103968808D01*
X171593094Y-103825951D01*
X171640713Y-103635475D01*
X171688332Y-103540237D01*
X171783570Y-103444999D01*
X171926427Y-103397379D01*
X172021665Y-103397379D01*
X172164522Y-103444999D01*
X172212141Y-103492618D01*
X173164522Y-104397379D02*
X172593094Y-104397379D01*
X172878808Y-104397379D02*
X172878808Y-103397379D01*
X172783570Y-103540237D01*
X172688332Y-103635475D01*
X172593094Y-103683094D01*
X173545475Y-103492618D02*
X173593094Y-103444999D01*
X173688332Y-103397379D01*
X173926427Y-103397379D01*
X174021665Y-103444999D01*
X174069284Y-103492618D01*
X174116903Y-103587856D01*
X174116903Y-103683094D01*
X174069284Y-103825951D01*
X173497856Y-104397379D01*
X174116903Y-104397379D01*
X171608571Y-106302379D02*
X171037142Y-106302379D01*
X171322857Y-106302379D02*
X171322857Y-105302379D01*
X171227619Y-105445237D01*
X171132380Y-105540475D01*
X171037142Y-105588094D01*
X172227619Y-105302379D02*
X172322857Y-105302379D01*
X172418095Y-105349999D01*
X172465714Y-105397618D01*
X172513333Y-105492856D01*
X172560952Y-105683332D01*
X172560952Y-105921427D01*
X172513333Y-106111903D01*
X172465714Y-106207141D01*
X172418095Y-106254760D01*
X172322857Y-106302379D01*
X172227619Y-106302379D01*
X172132380Y-106254760D01*
X172084761Y-106207141D01*
X172037142Y-106111903D01*
X171989523Y-105921427D01*
X171989523Y-105683332D01*
X172037142Y-105492856D01*
X172084761Y-105397618D01*
X172132380Y-105349999D01*
X172227619Y-105302379D01*
X173418095Y-105635713D02*
X173418095Y-106302379D01*
X172989523Y-105635713D02*
X172989523Y-106159522D01*
X173037142Y-106254760D01*
X173132380Y-106302379D01*
X173275238Y-106302379D01*
X173370476Y-106254760D01*
X173418095Y-106207141D01*
X174227619Y-105778570D02*
X173894285Y-105778570D01*
X173894285Y-106302379D02*
X173894285Y-105302379D01*
X174370476Y-105302379D01*
X169537142Y-96242142D02*
X169489523Y-96289761D01*
X169346666Y-96337380D01*
X169251428Y-96337380D01*
X169108571Y-96289761D01*
X169013333Y-96194523D01*
X168965714Y-96099285D01*
X168918095Y-95908809D01*
X168918095Y-95765952D01*
X168965714Y-95575476D01*
X169013333Y-95480238D01*
X169108571Y-95385000D01*
X169251428Y-95337380D01*
X169346666Y-95337380D01*
X169489523Y-95385000D01*
X169537142Y-95432619D01*
X170489523Y-96337380D02*
X169918095Y-96337380D01*
X170203809Y-96337380D02*
X170203809Y-95337380D01*
X170108571Y-95480238D01*
X170013333Y-95575476D01*
X169918095Y-95623095D01*
X171346666Y-95337380D02*
X171156190Y-95337380D01*
X171060952Y-95385000D01*
X171013333Y-95432619D01*
X170918095Y-95575476D01*
X170870476Y-95765952D01*
X170870476Y-96146904D01*
X170918095Y-96242142D01*
X170965714Y-96289761D01*
X171060952Y-96337380D01*
X171251428Y-96337380D01*
X171346666Y-96289761D01*
X171394285Y-96242142D01*
X171441904Y-96146904D01*
X171441904Y-95908809D01*
X171394285Y-95813571D01*
X171346666Y-95765952D01*
X171251428Y-95718333D01*
X171060952Y-95718333D01*
X170965714Y-95765952D01*
X170918095Y-95813571D01*
X170870476Y-95908809D01*
X149121904Y-93035380D02*
X149121904Y-92035380D01*
X149360000Y-92035380D01*
X149502857Y-92083000D01*
X149598095Y-92178238D01*
X149645714Y-92273476D01*
X149693333Y-92463952D01*
X149693333Y-92606809D01*
X149645714Y-92797285D01*
X149598095Y-92892523D01*
X149502857Y-92987761D01*
X149360000Y-93035380D01*
X149121904Y-93035380D01*
X150645714Y-93035380D02*
X150074285Y-93035380D01*
X150360000Y-93035380D02*
X150360000Y-92035380D01*
X150264761Y-92178238D01*
X150169523Y-92273476D01*
X150074285Y-92321095D01*
X147423333Y-95305619D02*
X147470952Y-95258000D01*
X147566190Y-95210380D01*
X147804285Y-95210380D01*
X147899523Y-95258000D01*
X147947142Y-95305619D01*
X147994761Y-95400857D01*
X147994761Y-95496095D01*
X147947142Y-95638952D01*
X147375714Y-96210380D01*
X147994761Y-96210380D01*
X148375714Y-95305619D02*
X148423333Y-95258000D01*
X148518571Y-95210380D01*
X148756666Y-95210380D01*
X148851904Y-95258000D01*
X148899523Y-95305619D01*
X148947142Y-95400857D01*
X148947142Y-95496095D01*
X148899523Y-95638952D01*
X148328095Y-96210380D01*
X148947142Y-96210380D01*
X149375714Y-96210380D02*
X149375714Y-95210380D01*
X149470952Y-95829428D02*
X149756666Y-96210380D01*
X149756666Y-95543714D02*
X149375714Y-95924666D01*
X147423333Y-97845619D02*
X147470952Y-97798000D01*
X147566190Y-97750380D01*
X147804285Y-97750380D01*
X147899523Y-97798000D01*
X147947142Y-97845619D01*
X147994761Y-97940857D01*
X147994761Y-98036095D01*
X147947142Y-98178952D01*
X147375714Y-98750380D01*
X147994761Y-98750380D01*
X148375714Y-97845619D02*
X148423333Y-97798000D01*
X148518571Y-97750380D01*
X148756666Y-97750380D01*
X148851904Y-97798000D01*
X148899523Y-97845619D01*
X148947142Y-97940857D01*
X148947142Y-98036095D01*
X148899523Y-98178952D01*
X148328095Y-98750380D01*
X148947142Y-98750380D01*
X149375714Y-98750380D02*
X149375714Y-97750380D01*
X149470952Y-98369428D02*
X149756666Y-98750380D01*
X149756666Y-98083714D02*
X149375714Y-98464666D01*
X156090952Y-101290380D02*
X155519523Y-101290380D01*
X155805238Y-101290380D02*
X155805238Y-100290380D01*
X155710000Y-100433238D01*
X155614761Y-100528476D01*
X155519523Y-100576095D01*
X156519523Y-101290380D02*
X156519523Y-100290380D01*
X156614761Y-100909428D02*
X156900476Y-101290380D01*
X156900476Y-100623714D02*
X156519523Y-101004666D01*
X133183428Y-112482380D02*
X132992952Y-112482380D01*
X132897714Y-112530000D01*
X132850095Y-112577619D01*
X132754857Y-112720476D01*
X132707238Y-112910952D01*
X132707238Y-113291904D01*
X132754857Y-113387142D01*
X132802476Y-113434761D01*
X132897714Y-113482380D01*
X133088190Y-113482380D01*
X133183428Y-113434761D01*
X133231047Y-113387142D01*
X133278666Y-113291904D01*
X133278666Y-113053809D01*
X133231047Y-112958571D01*
X133183428Y-112910952D01*
X133088190Y-112863333D01*
X132897714Y-112863333D01*
X132802476Y-112910952D01*
X132754857Y-112958571D01*
X132707238Y-113053809D01*
X133707238Y-113387142D02*
X133754857Y-113434761D01*
X133707238Y-113482380D01*
X133659619Y-113434761D01*
X133707238Y-113387142D01*
X133707238Y-113482380D01*
X134135809Y-112577619D02*
X134183428Y-112530000D01*
X134278666Y-112482380D01*
X134516761Y-112482380D01*
X134612000Y-112530000D01*
X134659619Y-112577619D01*
X134707238Y-112672857D01*
X134707238Y-112768095D01*
X134659619Y-112910952D01*
X134088190Y-113482380D01*
X134707238Y-113482380D01*
X135135809Y-113482380D02*
X135135809Y-112482380D01*
X135231047Y-113101428D02*
X135516761Y-113482380D01*
X135516761Y-112815714D02*
X135135809Y-113196666D01*
X133350095Y-117895714D02*
X133350095Y-118562380D01*
X133112000Y-117514761D02*
X132873904Y-118229047D01*
X133492952Y-118229047D01*
X133778666Y-117562380D02*
X134445333Y-117562380D01*
X134016761Y-118562380D01*
X135016761Y-117562380D02*
X135112000Y-117562380D01*
X135207238Y-117610000D01*
X135254857Y-117657619D01*
X135302476Y-117752857D01*
X135350095Y-117943333D01*
X135350095Y-118181428D01*
X135302476Y-118371904D01*
X135254857Y-118467142D01*
X135207238Y-118514761D01*
X135112000Y-118562380D01*
X135016761Y-118562380D01*
X134921523Y-118514761D01*
X134873904Y-118467142D01*
X134826285Y-118371904D01*
X134778666Y-118181428D01*
X134778666Y-117943333D01*
X134826285Y-117752857D01*
X134873904Y-117657619D01*
X134921523Y-117610000D01*
X135016761Y-117562380D01*
X155678333Y-110037619D02*
X155725952Y-109990000D01*
X155821190Y-109942380D01*
X156059285Y-109942380D01*
X156154523Y-109990000D01*
X156202142Y-110037619D01*
X156249761Y-110132857D01*
X156249761Y-110228095D01*
X156202142Y-110370952D01*
X155630714Y-110942380D01*
X156249761Y-110942380D01*
X156630714Y-110037619D02*
X156678333Y-109990000D01*
X156773571Y-109942380D01*
X157011666Y-109942380D01*
X157106904Y-109990000D01*
X157154523Y-110037619D01*
X157202142Y-110132857D01*
X157202142Y-110228095D01*
X157154523Y-110370952D01*
X156583095Y-110942380D01*
X157202142Y-110942380D01*
X157630714Y-110942380D02*
X157630714Y-109942380D01*
X157725952Y-110561428D02*
X158011666Y-110942380D01*
X158011666Y-110275714D02*
X157630714Y-110656666D01*
X163457142Y-104957619D02*
X163504761Y-104910000D01*
X163600000Y-104862380D01*
X163838095Y-104862380D01*
X163933333Y-104910000D01*
X163980952Y-104957619D01*
X164028571Y-105052857D01*
X164028571Y-105148095D01*
X163980952Y-105290952D01*
X163409523Y-105862380D01*
X164028571Y-105862380D01*
X164409523Y-104957619D02*
X164457142Y-104910000D01*
X164552380Y-104862380D01*
X164790476Y-104862380D01*
X164885714Y-104910000D01*
X164933333Y-104957619D01*
X164980952Y-105052857D01*
X164980952Y-105148095D01*
X164933333Y-105290952D01*
X164361904Y-105862380D01*
X164980952Y-105862380D01*
X165600000Y-104862380D02*
X165695238Y-104862380D01*
X165790476Y-104910000D01*
X165838095Y-104957619D01*
X165885714Y-105052857D01*
X165933333Y-105243333D01*
X165933333Y-105481428D01*
X165885714Y-105671904D01*
X165838095Y-105767142D01*
X165790476Y-105814761D01*
X165695238Y-105862380D01*
X165600000Y-105862380D01*
X165504761Y-105814761D01*
X165457142Y-105767142D01*
X165409523Y-105671904D01*
X165361904Y-105481428D01*
X165361904Y-105243333D01*
X165409523Y-105052857D01*
X165457142Y-104957619D01*
X165504761Y-104910000D01*
X165600000Y-104862380D01*
X166361904Y-105862380D02*
X166361904Y-104862380D01*
X166457142Y-105481428D02*
X166742857Y-105862380D01*
X166742857Y-105195714D02*
X166361904Y-105576666D01*
X155678333Y-117657619D02*
X155725952Y-117610000D01*
X155821190Y-117562380D01*
X156059285Y-117562380D01*
X156154523Y-117610000D01*
X156202142Y-117657619D01*
X156249761Y-117752857D01*
X156249761Y-117848095D01*
X156202142Y-117990952D01*
X155630714Y-118562380D01*
X156249761Y-118562380D01*
X156630714Y-117657619D02*
X156678333Y-117610000D01*
X156773571Y-117562380D01*
X157011666Y-117562380D01*
X157106904Y-117610000D01*
X157154523Y-117657619D01*
X157202142Y-117752857D01*
X157202142Y-117848095D01*
X157154523Y-117990952D01*
X156583095Y-118562380D01*
X157202142Y-118562380D01*
X157630714Y-118562380D02*
X157630714Y-117562380D01*
X157725952Y-118181428D02*
X158011666Y-118562380D01*
X158011666Y-117895714D02*
X157630714Y-118276666D01*
X155202142Y-104957619D02*
X155249761Y-104910000D01*
X155345000Y-104862380D01*
X155583095Y-104862380D01*
X155678333Y-104910000D01*
X155725952Y-104957619D01*
X155773571Y-105052857D01*
X155773571Y-105148095D01*
X155725952Y-105290952D01*
X155154523Y-105862380D01*
X155773571Y-105862380D01*
X156154523Y-104957619D02*
X156202142Y-104910000D01*
X156297380Y-104862380D01*
X156535476Y-104862380D01*
X156630714Y-104910000D01*
X156678333Y-104957619D01*
X156725952Y-105052857D01*
X156725952Y-105148095D01*
X156678333Y-105290952D01*
X156106904Y-105862380D01*
X156725952Y-105862380D01*
X157345000Y-104862380D02*
X157440238Y-104862380D01*
X157535476Y-104910000D01*
X157583095Y-104957619D01*
X157630714Y-105052857D01*
X157678333Y-105243333D01*
X157678333Y-105481428D01*
X157630714Y-105671904D01*
X157583095Y-105767142D01*
X157535476Y-105814761D01*
X157440238Y-105862380D01*
X157345000Y-105862380D01*
X157249761Y-105814761D01*
X157202142Y-105767142D01*
X157154523Y-105671904D01*
X157106904Y-105481428D01*
X157106904Y-105243333D01*
X157154523Y-105052857D01*
X157202142Y-104957619D01*
X157249761Y-104910000D01*
X157345000Y-104862380D01*
X158106904Y-105862380D02*
X158106904Y-104862380D01*
X158202142Y-105481428D02*
X158487857Y-105862380D01*
X158487857Y-105195714D02*
X158106904Y-105576666D01*
X164814285Y-101385714D02*
X164814285Y-102052380D01*
X164576190Y-101004761D02*
X164338095Y-101719047D01*
X164957142Y-101719047D01*
X165242857Y-101052380D02*
X165909523Y-101052380D01*
X165480952Y-102052380D01*
X155678333Y-112577619D02*
X155725952Y-112530000D01*
X155821190Y-112482380D01*
X156059285Y-112482380D01*
X156154523Y-112530000D01*
X156202142Y-112577619D01*
X156249761Y-112672857D01*
X156249761Y-112768095D01*
X156202142Y-112910952D01*
X155630714Y-113482380D01*
X156249761Y-113482380D01*
X156630714Y-112577619D02*
X156678333Y-112530000D01*
X156773571Y-112482380D01*
X157011666Y-112482380D01*
X157106904Y-112530000D01*
X157154523Y-112577619D01*
X157202142Y-112672857D01*
X157202142Y-112768095D01*
X157154523Y-112910952D01*
X156583095Y-113482380D01*
X157202142Y-113482380D01*
X157630714Y-113482380D02*
X157630714Y-112482380D01*
X157725952Y-113101428D02*
X158011666Y-113482380D01*
X158011666Y-112815714D02*
X157630714Y-113196666D01*
X163457142Y-115117619D02*
X163504761Y-115070000D01*
X163600000Y-115022380D01*
X163838095Y-115022380D01*
X163933333Y-115070000D01*
X163980952Y-115117619D01*
X164028571Y-115212857D01*
X164028571Y-115308095D01*
X163980952Y-115450952D01*
X163409523Y-116022380D01*
X164028571Y-116022380D01*
X164409523Y-115117619D02*
X164457142Y-115070000D01*
X164552380Y-115022380D01*
X164790476Y-115022380D01*
X164885714Y-115070000D01*
X164933333Y-115117619D01*
X164980952Y-115212857D01*
X164980952Y-115308095D01*
X164933333Y-115450952D01*
X164361904Y-116022380D01*
X164980952Y-116022380D01*
X165600000Y-115022380D02*
X165695238Y-115022380D01*
X165790476Y-115070000D01*
X165838095Y-115117619D01*
X165885714Y-115212857D01*
X165933333Y-115403333D01*
X165933333Y-115641428D01*
X165885714Y-115831904D01*
X165838095Y-115927142D01*
X165790476Y-115974761D01*
X165695238Y-116022380D01*
X165600000Y-116022380D01*
X165504761Y-115974761D01*
X165457142Y-115927142D01*
X165409523Y-115831904D01*
X165361904Y-115641428D01*
X165361904Y-115403333D01*
X165409523Y-115212857D01*
X165457142Y-115117619D01*
X165504761Y-115070000D01*
X165600000Y-115022380D01*
X166361904Y-116022380D02*
X166361904Y-115022380D01*
X166457142Y-115641428D02*
X166742857Y-116022380D01*
X166742857Y-115355714D02*
X166361904Y-115736666D01*
X155678333Y-115117619D02*
X155725952Y-115070000D01*
X155821190Y-115022380D01*
X156059285Y-115022380D01*
X156154523Y-115070000D01*
X156202142Y-115117619D01*
X156249761Y-115212857D01*
X156249761Y-115308095D01*
X156202142Y-115450952D01*
X155630714Y-116022380D01*
X156249761Y-116022380D01*
X156630714Y-115117619D02*
X156678333Y-115070000D01*
X156773571Y-115022380D01*
X157011666Y-115022380D01*
X157106904Y-115070000D01*
X157154523Y-115117619D01*
X157202142Y-115212857D01*
X157202142Y-115308095D01*
X157154523Y-115450952D01*
X156583095Y-116022380D01*
X157202142Y-116022380D01*
X157630714Y-116022380D02*
X157630714Y-115022380D01*
X157725952Y-115641428D02*
X158011666Y-116022380D01*
X158011666Y-115355714D02*
X157630714Y-115736666D01*
X155202142Y-107497619D02*
X155249761Y-107450000D01*
X155345000Y-107402380D01*
X155583095Y-107402380D01*
X155678333Y-107450000D01*
X155725952Y-107497619D01*
X155773571Y-107592857D01*
X155773571Y-107688095D01*
X155725952Y-107830952D01*
X155154523Y-108402380D01*
X155773571Y-108402380D01*
X156154523Y-107497619D02*
X156202142Y-107450000D01*
X156297380Y-107402380D01*
X156535476Y-107402380D01*
X156630714Y-107450000D01*
X156678333Y-107497619D01*
X156725952Y-107592857D01*
X156725952Y-107688095D01*
X156678333Y-107830952D01*
X156106904Y-108402380D01*
X156725952Y-108402380D01*
X157345000Y-107402380D02*
X157440238Y-107402380D01*
X157535476Y-107450000D01*
X157583095Y-107497619D01*
X157630714Y-107592857D01*
X157678333Y-107783333D01*
X157678333Y-108021428D01*
X157630714Y-108211904D01*
X157583095Y-108307142D01*
X157535476Y-108354761D01*
X157440238Y-108402380D01*
X157345000Y-108402380D01*
X157249761Y-108354761D01*
X157202142Y-108307142D01*
X157154523Y-108211904D01*
X157106904Y-108021428D01*
X157106904Y-107783333D01*
X157154523Y-107592857D01*
X157202142Y-107497619D01*
X157249761Y-107450000D01*
X157345000Y-107402380D01*
X158106904Y-108402380D02*
X158106904Y-107402380D01*
X158202142Y-108021428D02*
X158487857Y-108402380D01*
X158487857Y-107735714D02*
X158106904Y-108116666D01*
X169894285Y-117895714D02*
X169894285Y-118562380D01*
X169656190Y-117514761D02*
X169418095Y-118229047D01*
X170037142Y-118229047D01*
X170322857Y-117562380D02*
X170989523Y-117562380D01*
X170560952Y-118562380D01*
X142057380Y-116165238D02*
X141581190Y-116498571D01*
X142057380Y-116736666D02*
X141057380Y-116736666D01*
X141057380Y-116355714D01*
X141105000Y-116260476D01*
X141152619Y-116212857D01*
X141247857Y-116165238D01*
X141390714Y-116165238D01*
X141485952Y-116212857D01*
X141533571Y-116260476D01*
X141581190Y-116355714D01*
X141581190Y-116736666D01*
X141057380Y-115879523D02*
X142057380Y-115546190D01*
X141057380Y-115212857D01*
X142057380Y-114355714D02*
X142057380Y-114927142D01*
X142057380Y-114641428D02*
X141057380Y-114641428D01*
X141200238Y-114736666D01*
X141295476Y-114831904D01*
X141343095Y-114927142D01*
X139517380Y-113784047D02*
X139517380Y-114355476D01*
X139517380Y-114069761D02*
X138517380Y-114069761D01*
X138660238Y-114165000D01*
X138755476Y-114260238D01*
X138803095Y-114355476D01*
X139517380Y-113355476D02*
X138517380Y-113355476D01*
X139136428Y-113260238D02*
X139517380Y-112974523D01*
X138850714Y-112974523D02*
X139231666Y-113355476D01*
X145923095Y-86320380D02*
X145923095Y-87129904D01*
X145970714Y-87225142D01*
X146018333Y-87272761D01*
X146113571Y-87320380D01*
X146304047Y-87320380D01*
X146399285Y-87272761D01*
X146446904Y-87225142D01*
X146494523Y-87129904D01*
X146494523Y-86320380D01*
X147494523Y-87320380D02*
X146923095Y-87320380D01*
X147208809Y-87320380D02*
X147208809Y-86320380D01*
X147113571Y-86463238D01*
X147018333Y-86558476D01*
X146923095Y-86606095D01*
X150931809Y-87320380D02*
X150455619Y-87320380D01*
X150455619Y-86320380D01*
X151122285Y-86320380D02*
X151693714Y-86320380D01*
X151408000Y-87320380D02*
X151408000Y-86320380D01*
X152550857Y-87320380D02*
X151979428Y-87320380D01*
X152265142Y-87320380D02*
X152265142Y-86320380D01*
X152169904Y-86463238D01*
X152074666Y-86558476D01*
X151979428Y-86606095D01*
X153169904Y-86320380D02*
X153265142Y-86320380D01*
X153360380Y-86368000D01*
X153408000Y-86415619D01*
X153455619Y-86510857D01*
X153503238Y-86701333D01*
X153503238Y-86939428D01*
X153455619Y-87129904D01*
X153408000Y-87225142D01*
X153360380Y-87272761D01*
X153265142Y-87320380D01*
X153169904Y-87320380D01*
X153074666Y-87272761D01*
X153027047Y-87225142D01*
X152979428Y-87129904D01*
X152931809Y-86939428D01*
X152931809Y-86701333D01*
X152979428Y-86510857D01*
X153027047Y-86415619D01*
X153074666Y-86368000D01*
X153169904Y-86320380D01*
X154074666Y-86748952D02*
X153979428Y-86701333D01*
X153931809Y-86653714D01*
X153884190Y-86558476D01*
X153884190Y-86510857D01*
X153931809Y-86415619D01*
X153979428Y-86368000D01*
X154074666Y-86320380D01*
X154265142Y-86320380D01*
X154360380Y-86368000D01*
X154408000Y-86415619D01*
X154455619Y-86510857D01*
X154455619Y-86558476D01*
X154408000Y-86653714D01*
X154360380Y-86701333D01*
X154265142Y-86748952D01*
X154074666Y-86748952D01*
X153979428Y-86796571D01*
X153931809Y-86844190D01*
X153884190Y-86939428D01*
X153884190Y-87129904D01*
X153931809Y-87225142D01*
X153979428Y-87272761D01*
X154074666Y-87320380D01*
X154265142Y-87320380D01*
X154360380Y-87272761D01*
X154408000Y-87225142D01*
X154455619Y-87129904D01*
X154455619Y-86939428D01*
X154408000Y-86844190D01*
X154360380Y-86796571D01*
X154265142Y-86748952D01*
X155312761Y-86320380D02*
X155122285Y-86320380D01*
X155027047Y-86368000D01*
X154979428Y-86415619D01*
X154884190Y-86558476D01*
X154836571Y-86748952D01*
X154836571Y-87129904D01*
X154884190Y-87225142D01*
X154931809Y-87272761D01*
X155027047Y-87320380D01*
X155217523Y-87320380D01*
X155312761Y-87272761D01*
X155360380Y-87225142D01*
X155408000Y-87129904D01*
X155408000Y-86891809D01*
X155360380Y-86796571D01*
X155312761Y-86748952D01*
X155217523Y-86701333D01*
X155027047Y-86701333D01*
X154931809Y-86748952D01*
X154884190Y-86796571D01*
X154836571Y-86891809D01*
X141057380Y-106171904D02*
X141866904Y-106171904D01*
X141962142Y-106124285D01*
X142009761Y-106076666D01*
X142057380Y-105981428D01*
X142057380Y-105790952D01*
X142009761Y-105695714D01*
X141962142Y-105648095D01*
X141866904Y-105600476D01*
X141057380Y-105600476D01*
X141152619Y-105171904D02*
X141105000Y-105124285D01*
X141057380Y-105029047D01*
X141057380Y-104790952D01*
X141105000Y-104695714D01*
X141152619Y-104648095D01*
X141247857Y-104600476D01*
X141343095Y-104600476D01*
X141485952Y-104648095D01*
X142057380Y-105219523D01*
X142057380Y-104600476D01*
X134786666Y-107576666D02*
X134786666Y-107100476D01*
X135072380Y-107671904D02*
X134072380Y-107338571D01*
X135072380Y-107005238D01*
X135072380Y-106671904D02*
X134072380Y-106671904D01*
X134072380Y-106433809D01*
X134120000Y-106290952D01*
X134215238Y-106195714D01*
X134310476Y-106148095D01*
X134500952Y-106100476D01*
X134643809Y-106100476D01*
X134834285Y-106148095D01*
X134929523Y-106195714D01*
X135024761Y-106290952D01*
X135072380Y-106433809D01*
X135072380Y-106671904D01*
X134072380Y-105243333D02*
X134072380Y-105433809D01*
X134120000Y-105529047D01*
X134167619Y-105576666D01*
X134310476Y-105671904D01*
X134500952Y-105719523D01*
X134881904Y-105719523D01*
X134977142Y-105671904D01*
X135024761Y-105624285D01*
X135072380Y-105529047D01*
X135072380Y-105338571D01*
X135024761Y-105243333D01*
X134977142Y-105195714D01*
X134881904Y-105148095D01*
X134643809Y-105148095D01*
X134548571Y-105195714D01*
X134500952Y-105243333D01*
X134453333Y-105338571D01*
X134453333Y-105529047D01*
X134500952Y-105624285D01*
X134548571Y-105671904D01*
X134643809Y-105719523D01*
X134500952Y-104576666D02*
X134453333Y-104671904D01*
X134405714Y-104719523D01*
X134310476Y-104767142D01*
X134262857Y-104767142D01*
X134167619Y-104719523D01*
X134120000Y-104671904D01*
X134072380Y-104576666D01*
X134072380Y-104386190D01*
X134120000Y-104290952D01*
X134167619Y-104243333D01*
X134262857Y-104195714D01*
X134310476Y-104195714D01*
X134405714Y-104243333D01*
X134453333Y-104290952D01*
X134500952Y-104386190D01*
X134500952Y-104576666D01*
X134548571Y-104671904D01*
X134596190Y-104719523D01*
X134691428Y-104767142D01*
X134881904Y-104767142D01*
X134977142Y-104719523D01*
X135024761Y-104671904D01*
X135072380Y-104576666D01*
X135072380Y-104386190D01*
X135024761Y-104290952D01*
X134977142Y-104243333D01*
X134881904Y-104195714D01*
X134691428Y-104195714D01*
X134596190Y-104243333D01*
X134548571Y-104290952D01*
X134500952Y-104386190D01*
X134072380Y-103576666D02*
X134072380Y-103481428D01*
X134120000Y-103386190D01*
X134167619Y-103338571D01*
X134262857Y-103290952D01*
X134453333Y-103243333D01*
X134691428Y-103243333D01*
X134881904Y-103290952D01*
X134977142Y-103338571D01*
X135024761Y-103386190D01*
X135072380Y-103481428D01*
X135072380Y-103576666D01*
X135024761Y-103671904D01*
X134977142Y-103719523D01*
X134881904Y-103767142D01*
X134691428Y-103814761D01*
X134453333Y-103814761D01*
X134262857Y-103767142D01*
X134167619Y-103719523D01*
X134120000Y-103671904D01*
X134072380Y-103576666D01*
X151582380Y-107315238D02*
X151582380Y-107886666D01*
X151582380Y-107600952D02*
X150582380Y-107600952D01*
X150725238Y-107696190D01*
X150820476Y-107791428D01*
X150868095Y-107886666D01*
X150915714Y-106458095D02*
X151582380Y-106458095D01*
X150915714Y-106886666D02*
X151439523Y-106886666D01*
X151534761Y-106839047D01*
X151582380Y-106743809D01*
X151582380Y-106600952D01*
X151534761Y-106505714D01*
X151487142Y-106458095D01*
X151058571Y-105648571D02*
X151058571Y-105981904D01*
X151582380Y-105981904D02*
X150582380Y-105981904D01*
X150582380Y-105505714D01*
M02*
