G04 #@! TF.GenerationSoftware,KiCad,Pcbnew,(5.1.5)-3*
G04 #@! TF.CreationDate,2021-03-29T22:58:55-05:00*
G04 #@! TF.ProjectId,Sable_Bias_Voltage,5361626c-655f-4426-9961-735f566f6c74,rev?*
G04 #@! TF.SameCoordinates,Original*
G04 #@! TF.FileFunction,Copper,L1,Top*
G04 #@! TF.FilePolarity,Positive*
%FSLAX46Y46*%
G04 Gerber Fmt 4.6, Leading zero omitted, Abs format (unit mm)*
G04 Created by KiCad (PCBNEW (5.1.5)-3) date 2021-03-29 22:58:55*
%MOMM*%
%LPD*%
G04 APERTURE LIST*
%ADD10R,0.400000X1.100000*%
%ADD11C,1.600000*%
%ADD12R,1.600000X1.600000*%
%ADD13O,1.600000X1.600000*%
%ADD14R,1.700000X1.700000*%
%ADD15O,1.700000X1.700000*%
%ADD16O,1.400000X1.400000*%
%ADD17C,1.400000*%
%ADD18C,1.440000*%
%ADD19R,1.905000X2.000000*%
%ADD20O,1.905000X2.000000*%
%ADD21R,1.600000X2.400000*%
%ADD22O,1.600000X2.400000*%
%ADD23C,0.800000*%
%ADD24C,0.400000*%
%ADD25C,1.000000*%
%ADD26C,0.500000*%
%ADD27C,0.254000*%
G04 APERTURE END LIST*
D10*
X167345000Y-108340000D03*
X166695000Y-108340000D03*
X166045000Y-108340000D03*
X165395000Y-108340000D03*
X165395000Y-112640000D03*
X166045000Y-112640000D03*
X166695000Y-112640000D03*
X167345000Y-112640000D03*
D11*
X160655000Y-92273000D03*
D12*
X160655000Y-88773000D03*
D11*
X158670000Y-97028000D03*
X153670000Y-97028000D03*
X166290000Y-97663000D03*
X161290000Y-97663000D03*
X146685000Y-103505000D03*
X146685000Y-108505000D03*
D12*
X142240000Y-90043000D03*
D11*
X138740000Y-90043000D03*
X143510000Y-97028000D03*
X138510000Y-97028000D03*
X131445000Y-101680000D03*
X131445000Y-106680000D03*
X144780000Y-113030000D03*
X149780000Y-113030000D03*
X149780000Y-118110000D03*
X144780000Y-118110000D03*
X175180000Y-113665000D03*
X170180000Y-113665000D03*
X170180000Y-109220000D03*
X175180000Y-109220000D03*
X170180000Y-104775000D03*
X175180000Y-104775000D03*
D12*
X170180000Y-97790000D03*
D11*
X173680000Y-97790000D03*
D12*
X153670000Y-92583000D03*
D13*
X146050000Y-92583000D03*
D14*
X133350000Y-89154000D03*
D15*
X133350000Y-91694000D03*
D16*
X151130000Y-95758000D03*
D17*
X146050000Y-95758000D03*
D16*
X151130000Y-98298000D03*
D17*
X146050000Y-98298000D03*
X153670000Y-100838000D03*
D16*
X158750000Y-100838000D03*
X136652000Y-113030000D03*
D17*
X131572000Y-113030000D03*
X131572000Y-118110000D03*
D16*
X136652000Y-118110000D03*
X131572000Y-115570000D03*
D17*
X136652000Y-115570000D03*
D16*
X154305000Y-110490000D03*
D17*
X159385000Y-110490000D03*
X167640000Y-105410000D03*
D16*
X162560000Y-105410000D03*
D17*
X159385000Y-118110000D03*
D16*
X154305000Y-118110000D03*
X154305000Y-105410000D03*
D17*
X159385000Y-105410000D03*
X162560000Y-101600000D03*
D16*
X167640000Y-101600000D03*
X154305000Y-113030000D03*
D17*
X159385000Y-113030000D03*
X167640000Y-115570000D03*
D16*
X162560000Y-115570000D03*
D17*
X159385000Y-115570000D03*
D16*
X154305000Y-115570000D03*
D17*
X159385000Y-107950000D03*
D16*
X154305000Y-107950000D03*
X167640000Y-118110000D03*
D17*
X172720000Y-118110000D03*
D18*
X141605000Y-118110000D03*
X139065000Y-115570000D03*
X141605000Y-113030000D03*
D19*
X147955000Y-89408000D03*
D20*
X150495000Y-89408000D03*
X153035000Y-89408000D03*
D21*
X142240000Y-101600000D03*
D22*
X134620000Y-109220000D03*
X139700000Y-101600000D03*
X137160000Y-109220000D03*
X137160000Y-101600000D03*
X139700000Y-109220000D03*
X134620000Y-101600000D03*
X142240000Y-109220000D03*
D14*
X170180000Y-91440000D03*
D15*
X172720000Y-91440000D03*
D11*
X151130000Y-109220000D03*
X151130000Y-104220000D03*
D14*
X170180000Y-87630000D03*
D15*
X172720000Y-87630000D03*
D23*
X162860001Y-109220000D03*
X163830000Y-108585000D03*
X162560000Y-110490000D03*
D24*
X164795000Y-108340000D02*
X164550000Y-108585000D01*
X165395000Y-108340000D02*
X164795000Y-108340000D01*
X164550000Y-108585000D02*
X164465000Y-108585000D01*
D25*
X163495001Y-108585000D02*
X162860001Y-109220000D01*
X164550000Y-108585000D02*
X163830000Y-108585000D01*
X163830000Y-108585000D02*
X163495001Y-108585000D01*
X162560000Y-109520001D02*
X162860001Y-109220000D01*
X162560000Y-110490000D02*
X162560000Y-109520001D01*
X164949990Y-108585000D02*
X165194990Y-108340000D01*
X163830000Y-108585000D02*
X164949990Y-108585000D01*
X153670000Y-92583000D02*
X153670000Y-96393000D01*
X153670000Y-90043000D02*
X153035000Y-89408000D01*
X153670000Y-96393000D02*
X153670000Y-90043000D01*
X160020000Y-89408000D02*
X160655000Y-88773000D01*
X153035000Y-89408000D02*
X160020000Y-89408000D01*
X135200000Y-89154000D02*
X137232000Y-87122000D01*
X133350000Y-89154000D02*
X135200000Y-89154000D01*
X152749000Y-87122000D02*
X153035000Y-87408000D01*
X153035000Y-87408000D02*
X153035000Y-89408000D01*
X137232000Y-87122000D02*
X152749000Y-87122000D01*
X151130000Y-95758000D02*
X151130000Y-98298000D01*
X151969999Y-99137999D02*
X151765000Y-98933000D01*
X161290000Y-97663000D02*
X159815001Y-99137999D01*
X146050000Y-100330000D02*
X144145000Y-98425000D01*
X151765000Y-98933000D02*
X151130000Y-98298000D01*
X159815001Y-99137999D02*
X151969999Y-99137999D01*
X145415000Y-99695000D02*
X143510000Y-97790000D01*
X146050000Y-100330000D02*
X146050000Y-99060000D01*
X147955000Y-92583000D02*
X147955000Y-89408000D01*
X151130000Y-95758000D02*
X147955000Y-92583000D01*
X153670000Y-100838000D02*
X151130000Y-98298000D01*
X146050000Y-92583000D02*
X146050000Y-95758000D01*
X146050000Y-95758000D02*
X146050000Y-98298000D01*
X146050000Y-98298000D02*
X145415000Y-98933000D01*
X143510000Y-97028000D02*
X145415000Y-98933000D01*
X144780000Y-95758000D02*
X143510000Y-97028000D01*
X146050000Y-95758000D02*
X144780000Y-95758000D01*
X170180000Y-104775000D02*
X170180000Y-109220000D01*
X170180000Y-109220000D02*
X170180000Y-113665000D01*
X148901371Y-102419999D02*
X152584999Y-102419999D01*
X146685000Y-103505000D02*
X147816370Y-103505000D01*
X147816370Y-103505000D02*
X148901371Y-102419999D01*
X152584999Y-102419999D02*
X153874999Y-103709999D01*
X169114999Y-103709999D02*
X170180000Y-104775000D01*
X153874999Y-103709999D02*
X169114999Y-103709999D01*
X169155000Y-112640000D02*
X167545010Y-112640000D01*
X170180000Y-113665000D02*
X169155000Y-112640000D01*
X146050000Y-102870000D02*
X146685000Y-103505000D01*
X146050000Y-98298000D02*
X146050000Y-102870000D01*
X139700000Y-100838000D02*
X143510000Y-97028000D01*
X139700000Y-101600000D02*
X139700000Y-100838000D01*
X136820000Y-106680000D02*
X137160000Y-107020000D01*
X137160000Y-107020000D02*
X137500000Y-106680000D01*
X137160000Y-109220000D02*
X137160000Y-107020000D01*
X154305000Y-105410000D02*
X154305000Y-106680000D01*
X154305000Y-106680000D02*
X154305000Y-107950000D01*
X134620000Y-106680000D02*
X136820000Y-106680000D01*
X139065000Y-106680000D02*
X134620000Y-106680000D01*
X131445000Y-106680000D02*
X134620000Y-106680000D01*
X137500000Y-106680000D02*
X139065000Y-106680000D01*
X151130000Y-109220000D02*
X148590000Y-106680000D01*
X148590000Y-106680000D02*
X146685000Y-106680000D01*
X139065000Y-106680000D02*
X146685000Y-106680000D01*
X153035000Y-109220000D02*
X154305000Y-107950000D01*
X151130000Y-109220000D02*
X153035000Y-109220000D01*
X131445000Y-112903000D02*
X131572000Y-113030000D01*
X131445000Y-106680000D02*
X131445000Y-112903000D01*
X131572000Y-115570000D02*
X132842000Y-115570000D01*
X135382000Y-113030000D02*
X136652000Y-113030000D01*
X132842000Y-115570000D02*
X135382000Y-113030000D01*
X141605000Y-113030000D02*
X144780000Y-113030000D01*
X147115998Y-113030000D02*
X149020998Y-111125000D01*
X144780000Y-113030000D02*
X147115998Y-113030000D01*
X149020998Y-111125000D02*
X154305000Y-111125000D01*
X154305000Y-113030000D02*
X154305000Y-111125000D01*
X154305000Y-111125000D02*
X154305000Y-110490000D01*
X136652000Y-113030000D02*
X141605000Y-113030000D01*
X136652000Y-115570000D02*
X136652000Y-118110000D01*
X141605000Y-118110000D02*
X144780000Y-118110000D01*
X154305000Y-115570000D02*
X154305000Y-118110000D01*
X147320000Y-115570000D02*
X144780000Y-118110000D01*
X154305000Y-115570000D02*
X147320000Y-115570000D01*
X136652000Y-118110000D02*
X141605000Y-118110000D01*
X172720000Y-100330000D02*
X170180000Y-97790000D01*
X172720000Y-118110000D02*
X172720000Y-100330000D01*
X170180000Y-97790000D02*
X170180000Y-87630000D01*
X162560000Y-101600000D02*
X163576000Y-101600000D01*
X163576000Y-101600000D02*
X165354000Y-99822000D01*
X165354000Y-99822000D02*
X167640000Y-99822000D01*
X169926000Y-97790000D02*
X168402000Y-99314000D01*
X170180000Y-97790000D02*
X169926000Y-97790000D01*
X167640000Y-99822000D02*
X168402000Y-99314000D01*
X167640000Y-105732281D02*
X167894000Y-105986281D01*
X167640000Y-105410000D02*
X167640000Y-105732281D01*
X167545010Y-107200990D02*
X167545010Y-108340000D01*
X167894000Y-105986281D02*
X167894000Y-106852000D01*
X167894000Y-106852000D02*
X167545010Y-107200990D01*
X167640000Y-118110000D02*
X167640000Y-115570000D01*
X167640000Y-115570000D02*
X167005000Y-114935000D01*
D24*
X167005000Y-114935000D02*
X166695000Y-114625000D01*
D26*
X166695000Y-114625000D02*
X167640000Y-115570000D01*
X166695000Y-112640000D02*
X166695000Y-114625000D01*
D25*
X165762070Y-105410000D02*
X165939999Y-105587929D01*
X162560000Y-105410000D02*
X165762070Y-105410000D01*
D26*
X166695000Y-106342930D02*
X165762070Y-105410000D01*
X166695000Y-108340000D02*
X166695000Y-106342930D01*
D25*
X166544990Y-106192920D02*
X166544990Y-106234341D01*
X165762070Y-105410000D02*
X166544990Y-106192920D01*
X158685001Y-106109999D02*
X159385000Y-105410000D01*
X156184989Y-108610011D02*
X158685001Y-106109999D01*
X156184989Y-114909989D02*
X156184989Y-108610011D01*
X159385000Y-118110000D02*
X156184989Y-114909989D01*
X159385000Y-105410000D02*
X161085001Y-107110001D01*
X162848666Y-107110001D02*
X162873677Y-107084990D01*
X161085001Y-107110001D02*
X162848666Y-107110001D01*
X162873677Y-107084990D02*
X164465000Y-107084990D01*
D26*
X166045000Y-107290000D02*
X166045000Y-108340000D01*
X165839990Y-107084990D02*
X166045000Y-107290000D01*
D25*
X164465000Y-107084990D02*
X165839990Y-107084990D01*
X162560000Y-115570000D02*
X164869991Y-115570000D01*
X164869991Y-115570000D02*
X165494990Y-114945001D01*
D26*
X166045000Y-114394991D02*
X165494990Y-114945001D01*
X166045000Y-112640000D02*
X166045000Y-114394991D01*
D25*
X158685001Y-108649999D02*
X159385000Y-107950000D01*
X157684999Y-113869999D02*
X157684999Y-109650001D01*
X157684999Y-109650001D02*
X158685001Y-108649999D01*
X159385000Y-115570000D02*
X157684999Y-113869999D01*
X159385000Y-115570000D02*
X161925000Y-113030000D01*
D26*
X162315000Y-112640000D02*
X165395000Y-112640000D01*
D25*
X161925000Y-113030000D02*
X162315000Y-112640000D01*
X162315000Y-112640000D02*
X165194990Y-112640000D01*
D27*
G36*
X175616000Y-103404895D02*
G01*
X175391816Y-103348700D01*
X175109488Y-103334783D01*
X174829870Y-103376213D01*
X174563708Y-103471397D01*
X174438486Y-103538329D01*
X174366903Y-103782298D01*
X175180000Y-104595395D01*
X175194143Y-104581253D01*
X175373748Y-104760858D01*
X175359605Y-104775000D01*
X175373748Y-104789143D01*
X175194143Y-104968748D01*
X175180000Y-104954605D01*
X174366903Y-105767702D01*
X174438486Y-106011671D01*
X174693996Y-106132571D01*
X174968184Y-106201300D01*
X175250512Y-106215217D01*
X175530130Y-106173787D01*
X175616000Y-106143078D01*
X175616000Y-107849895D01*
X175391816Y-107793700D01*
X175109488Y-107779783D01*
X174829870Y-107821213D01*
X174563708Y-107916397D01*
X174438486Y-107983329D01*
X174366903Y-108227298D01*
X175180000Y-109040395D01*
X175194143Y-109026253D01*
X175373748Y-109205858D01*
X175359605Y-109220000D01*
X175373748Y-109234143D01*
X175194143Y-109413748D01*
X175180000Y-109399605D01*
X174366903Y-110212702D01*
X174438486Y-110456671D01*
X174693996Y-110577571D01*
X174968184Y-110646300D01*
X175250512Y-110660217D01*
X175530130Y-110618787D01*
X175616000Y-110588078D01*
X175616000Y-112294895D01*
X175391816Y-112238700D01*
X175109488Y-112224783D01*
X174829870Y-112266213D01*
X174563708Y-112361397D01*
X174438486Y-112428329D01*
X174366903Y-112672298D01*
X175180000Y-113485395D01*
X175194143Y-113471253D01*
X175373748Y-113650858D01*
X175359605Y-113665000D01*
X175373748Y-113679143D01*
X175194143Y-113858748D01*
X175180000Y-113844605D01*
X174366903Y-114657702D01*
X174438486Y-114901671D01*
X174693996Y-115022571D01*
X174968184Y-115091300D01*
X175250512Y-115105217D01*
X175530130Y-115063787D01*
X175616000Y-115033078D01*
X175616000Y-118720000D01*
X173912322Y-118720000D01*
X174003696Y-118499405D01*
X174055000Y-118241486D01*
X174055000Y-117978514D01*
X174003696Y-117720595D01*
X173903061Y-117477641D01*
X173855000Y-117405712D01*
X173855000Y-114221460D01*
X173876397Y-114281292D01*
X173943329Y-114406514D01*
X174187298Y-114478097D01*
X175000395Y-113665000D01*
X174187298Y-112851903D01*
X173943329Y-112923486D01*
X173855000Y-113110160D01*
X173855000Y-109776460D01*
X173876397Y-109836292D01*
X173943329Y-109961514D01*
X174187298Y-110033097D01*
X175000395Y-109220000D01*
X174187298Y-108406903D01*
X173943329Y-108478486D01*
X173855000Y-108665160D01*
X173855000Y-105331460D01*
X173876397Y-105391292D01*
X173943329Y-105516514D01*
X174187298Y-105588097D01*
X175000395Y-104775000D01*
X174187298Y-103961903D01*
X173943329Y-104033486D01*
X173855000Y-104220160D01*
X173855000Y-100385741D01*
X173860490Y-100329999D01*
X173855000Y-100274257D01*
X173855000Y-100274248D01*
X173838577Y-100107501D01*
X173773676Y-99893553D01*
X173668284Y-99696377D01*
X173526449Y-99523551D01*
X173483141Y-99488009D01*
X173096634Y-99101502D01*
X173193996Y-99147571D01*
X173468184Y-99216300D01*
X173750512Y-99230217D01*
X174030130Y-99188787D01*
X174296292Y-99093603D01*
X174421514Y-99026671D01*
X174493097Y-98782702D01*
X173680000Y-97969605D01*
X173665858Y-97983748D01*
X173486253Y-97804143D01*
X173500395Y-97790000D01*
X173859605Y-97790000D01*
X174672702Y-98603097D01*
X174916671Y-98531514D01*
X175037571Y-98276004D01*
X175106300Y-98001816D01*
X175120217Y-97719488D01*
X175078787Y-97439870D01*
X174983603Y-97173708D01*
X174916671Y-97048486D01*
X174672702Y-96976903D01*
X173859605Y-97790000D01*
X173500395Y-97790000D01*
X172687298Y-96976903D01*
X172443329Y-97048486D01*
X172322429Y-97303996D01*
X172253700Y-97578184D01*
X172239783Y-97860512D01*
X172281213Y-98140130D01*
X172362465Y-98367333D01*
X171618072Y-97622941D01*
X171618072Y-96990000D01*
X171605812Y-96865518D01*
X171585118Y-96797298D01*
X172866903Y-96797298D01*
X173680000Y-97610395D01*
X174493097Y-96797298D01*
X174421514Y-96553329D01*
X174166004Y-96432429D01*
X173891816Y-96363700D01*
X173609488Y-96349783D01*
X173329870Y-96391213D01*
X173063708Y-96486397D01*
X172938486Y-96553329D01*
X172866903Y-96797298D01*
X171585118Y-96797298D01*
X171569502Y-96745820D01*
X171510537Y-96635506D01*
X171431185Y-96538815D01*
X171334494Y-96459463D01*
X171315000Y-96449043D01*
X171315000Y-92857683D01*
X171384494Y-92820537D01*
X171481185Y-92741185D01*
X171560537Y-92644494D01*
X171619502Y-92534180D01*
X171643966Y-92453534D01*
X171719731Y-92537588D01*
X171953080Y-92711641D01*
X172215901Y-92836825D01*
X172363110Y-92881476D01*
X172593000Y-92760155D01*
X172593000Y-91567000D01*
X172847000Y-91567000D01*
X172847000Y-92760155D01*
X173076890Y-92881476D01*
X173224099Y-92836825D01*
X173486920Y-92711641D01*
X173720269Y-92537588D01*
X173915178Y-92321355D01*
X174064157Y-92071252D01*
X174161481Y-91796891D01*
X174040814Y-91567000D01*
X172847000Y-91567000D01*
X172593000Y-91567000D01*
X172573000Y-91567000D01*
X172573000Y-91313000D01*
X172593000Y-91313000D01*
X172593000Y-90119845D01*
X172847000Y-90119845D01*
X172847000Y-91313000D01*
X174040814Y-91313000D01*
X174161481Y-91083109D01*
X174064157Y-90808748D01*
X173915178Y-90558645D01*
X173720269Y-90342412D01*
X173486920Y-90168359D01*
X173224099Y-90043175D01*
X173076890Y-89998524D01*
X172847000Y-90119845D01*
X172593000Y-90119845D01*
X172363110Y-89998524D01*
X172215901Y-90043175D01*
X171953080Y-90168359D01*
X171719731Y-90342412D01*
X171643966Y-90426466D01*
X171619502Y-90345820D01*
X171560537Y-90235506D01*
X171481185Y-90138815D01*
X171384494Y-90059463D01*
X171315000Y-90022317D01*
X171315000Y-89047683D01*
X171384494Y-89010537D01*
X171481185Y-88931185D01*
X171560537Y-88834494D01*
X171619502Y-88724180D01*
X171643966Y-88643534D01*
X171719731Y-88727588D01*
X171953080Y-88901641D01*
X172215901Y-89026825D01*
X172363110Y-89071476D01*
X172593000Y-88950155D01*
X172593000Y-87757000D01*
X172847000Y-87757000D01*
X172847000Y-88950155D01*
X173076890Y-89071476D01*
X173224099Y-89026825D01*
X173486920Y-88901641D01*
X173720269Y-88727588D01*
X173915178Y-88511355D01*
X174064157Y-88261252D01*
X174161481Y-87986891D01*
X174040814Y-87757000D01*
X172847000Y-87757000D01*
X172593000Y-87757000D01*
X172573000Y-87757000D01*
X172573000Y-87503000D01*
X172593000Y-87503000D01*
X172593000Y-87483000D01*
X172847000Y-87483000D01*
X172847000Y-87503000D01*
X174040814Y-87503000D01*
X174161481Y-87273109D01*
X174071696Y-87020000D01*
X175616001Y-87020000D01*
X175616000Y-103404895D01*
G37*
X175616000Y-103404895D02*
X175391816Y-103348700D01*
X175109488Y-103334783D01*
X174829870Y-103376213D01*
X174563708Y-103471397D01*
X174438486Y-103538329D01*
X174366903Y-103782298D01*
X175180000Y-104595395D01*
X175194143Y-104581253D01*
X175373748Y-104760858D01*
X175359605Y-104775000D01*
X175373748Y-104789143D01*
X175194143Y-104968748D01*
X175180000Y-104954605D01*
X174366903Y-105767702D01*
X174438486Y-106011671D01*
X174693996Y-106132571D01*
X174968184Y-106201300D01*
X175250512Y-106215217D01*
X175530130Y-106173787D01*
X175616000Y-106143078D01*
X175616000Y-107849895D01*
X175391816Y-107793700D01*
X175109488Y-107779783D01*
X174829870Y-107821213D01*
X174563708Y-107916397D01*
X174438486Y-107983329D01*
X174366903Y-108227298D01*
X175180000Y-109040395D01*
X175194143Y-109026253D01*
X175373748Y-109205858D01*
X175359605Y-109220000D01*
X175373748Y-109234143D01*
X175194143Y-109413748D01*
X175180000Y-109399605D01*
X174366903Y-110212702D01*
X174438486Y-110456671D01*
X174693996Y-110577571D01*
X174968184Y-110646300D01*
X175250512Y-110660217D01*
X175530130Y-110618787D01*
X175616000Y-110588078D01*
X175616000Y-112294895D01*
X175391816Y-112238700D01*
X175109488Y-112224783D01*
X174829870Y-112266213D01*
X174563708Y-112361397D01*
X174438486Y-112428329D01*
X174366903Y-112672298D01*
X175180000Y-113485395D01*
X175194143Y-113471253D01*
X175373748Y-113650858D01*
X175359605Y-113665000D01*
X175373748Y-113679143D01*
X175194143Y-113858748D01*
X175180000Y-113844605D01*
X174366903Y-114657702D01*
X174438486Y-114901671D01*
X174693996Y-115022571D01*
X174968184Y-115091300D01*
X175250512Y-115105217D01*
X175530130Y-115063787D01*
X175616000Y-115033078D01*
X175616000Y-118720000D01*
X173912322Y-118720000D01*
X174003696Y-118499405D01*
X174055000Y-118241486D01*
X174055000Y-117978514D01*
X174003696Y-117720595D01*
X173903061Y-117477641D01*
X173855000Y-117405712D01*
X173855000Y-114221460D01*
X173876397Y-114281292D01*
X173943329Y-114406514D01*
X174187298Y-114478097D01*
X175000395Y-113665000D01*
X174187298Y-112851903D01*
X173943329Y-112923486D01*
X173855000Y-113110160D01*
X173855000Y-109776460D01*
X173876397Y-109836292D01*
X173943329Y-109961514D01*
X174187298Y-110033097D01*
X175000395Y-109220000D01*
X174187298Y-108406903D01*
X173943329Y-108478486D01*
X173855000Y-108665160D01*
X173855000Y-105331460D01*
X173876397Y-105391292D01*
X173943329Y-105516514D01*
X174187298Y-105588097D01*
X175000395Y-104775000D01*
X174187298Y-103961903D01*
X173943329Y-104033486D01*
X173855000Y-104220160D01*
X173855000Y-100385741D01*
X173860490Y-100329999D01*
X173855000Y-100274257D01*
X173855000Y-100274248D01*
X173838577Y-100107501D01*
X173773676Y-99893553D01*
X173668284Y-99696377D01*
X173526449Y-99523551D01*
X173483141Y-99488009D01*
X173096634Y-99101502D01*
X173193996Y-99147571D01*
X173468184Y-99216300D01*
X173750512Y-99230217D01*
X174030130Y-99188787D01*
X174296292Y-99093603D01*
X174421514Y-99026671D01*
X174493097Y-98782702D01*
X173680000Y-97969605D01*
X173665858Y-97983748D01*
X173486253Y-97804143D01*
X173500395Y-97790000D01*
X173859605Y-97790000D01*
X174672702Y-98603097D01*
X174916671Y-98531514D01*
X175037571Y-98276004D01*
X175106300Y-98001816D01*
X175120217Y-97719488D01*
X175078787Y-97439870D01*
X174983603Y-97173708D01*
X174916671Y-97048486D01*
X174672702Y-96976903D01*
X173859605Y-97790000D01*
X173500395Y-97790000D01*
X172687298Y-96976903D01*
X172443329Y-97048486D01*
X172322429Y-97303996D01*
X172253700Y-97578184D01*
X172239783Y-97860512D01*
X172281213Y-98140130D01*
X172362465Y-98367333D01*
X171618072Y-97622941D01*
X171618072Y-96990000D01*
X171605812Y-96865518D01*
X171585118Y-96797298D01*
X172866903Y-96797298D01*
X173680000Y-97610395D01*
X174493097Y-96797298D01*
X174421514Y-96553329D01*
X174166004Y-96432429D01*
X173891816Y-96363700D01*
X173609488Y-96349783D01*
X173329870Y-96391213D01*
X173063708Y-96486397D01*
X172938486Y-96553329D01*
X172866903Y-96797298D01*
X171585118Y-96797298D01*
X171569502Y-96745820D01*
X171510537Y-96635506D01*
X171431185Y-96538815D01*
X171334494Y-96459463D01*
X171315000Y-96449043D01*
X171315000Y-92857683D01*
X171384494Y-92820537D01*
X171481185Y-92741185D01*
X171560537Y-92644494D01*
X171619502Y-92534180D01*
X171643966Y-92453534D01*
X171719731Y-92537588D01*
X171953080Y-92711641D01*
X172215901Y-92836825D01*
X172363110Y-92881476D01*
X172593000Y-92760155D01*
X172593000Y-91567000D01*
X172847000Y-91567000D01*
X172847000Y-92760155D01*
X173076890Y-92881476D01*
X173224099Y-92836825D01*
X173486920Y-92711641D01*
X173720269Y-92537588D01*
X173915178Y-92321355D01*
X174064157Y-92071252D01*
X174161481Y-91796891D01*
X174040814Y-91567000D01*
X172847000Y-91567000D01*
X172593000Y-91567000D01*
X172573000Y-91567000D01*
X172573000Y-91313000D01*
X172593000Y-91313000D01*
X172593000Y-90119845D01*
X172847000Y-90119845D01*
X172847000Y-91313000D01*
X174040814Y-91313000D01*
X174161481Y-91083109D01*
X174064157Y-90808748D01*
X173915178Y-90558645D01*
X173720269Y-90342412D01*
X173486920Y-90168359D01*
X173224099Y-90043175D01*
X173076890Y-89998524D01*
X172847000Y-90119845D01*
X172593000Y-90119845D01*
X172363110Y-89998524D01*
X172215901Y-90043175D01*
X171953080Y-90168359D01*
X171719731Y-90342412D01*
X171643966Y-90426466D01*
X171619502Y-90345820D01*
X171560537Y-90235506D01*
X171481185Y-90138815D01*
X171384494Y-90059463D01*
X171315000Y-90022317D01*
X171315000Y-89047683D01*
X171384494Y-89010537D01*
X171481185Y-88931185D01*
X171560537Y-88834494D01*
X171619502Y-88724180D01*
X171643966Y-88643534D01*
X171719731Y-88727588D01*
X171953080Y-88901641D01*
X172215901Y-89026825D01*
X172363110Y-89071476D01*
X172593000Y-88950155D01*
X172593000Y-87757000D01*
X172847000Y-87757000D01*
X172847000Y-88950155D01*
X173076890Y-89071476D01*
X173224099Y-89026825D01*
X173486920Y-88901641D01*
X173720269Y-88727588D01*
X173915178Y-88511355D01*
X174064157Y-88261252D01*
X174161481Y-87986891D01*
X174040814Y-87757000D01*
X172847000Y-87757000D01*
X172593000Y-87757000D01*
X172573000Y-87757000D01*
X172573000Y-87503000D01*
X172593000Y-87503000D01*
X172593000Y-87483000D01*
X172847000Y-87483000D01*
X172847000Y-87503000D01*
X174040814Y-87503000D01*
X174161481Y-87273109D01*
X174071696Y-87020000D01*
X175616001Y-87020000D01*
X175616000Y-103404895D01*
G36*
X149429870Y-116711213D02*
G01*
X149163708Y-116806397D01*
X149038486Y-116873329D01*
X148966903Y-117117298D01*
X149780000Y-117930395D01*
X150593097Y-117117298D01*
X150521514Y-116873329D01*
X150266004Y-116752429D01*
X150076790Y-116705000D01*
X153170000Y-116705000D01*
X153170001Y-117405711D01*
X153121939Y-117477641D01*
X153021304Y-117720595D01*
X152970000Y-117978514D01*
X152970000Y-118241486D01*
X153021304Y-118499405D01*
X153112678Y-118720000D01*
X151078900Y-118720000D01*
X151137571Y-118596004D01*
X151206300Y-118321816D01*
X151220217Y-118039488D01*
X151178787Y-117759870D01*
X151083603Y-117493708D01*
X151016671Y-117368486D01*
X150772702Y-117296903D01*
X149959605Y-118110000D01*
X149973748Y-118124143D01*
X149794143Y-118303748D01*
X149780000Y-118289605D01*
X149765858Y-118303748D01*
X149586253Y-118124143D01*
X149600395Y-118110000D01*
X148787298Y-117296903D01*
X148543329Y-117368486D01*
X148422429Y-117623996D01*
X148353700Y-117898184D01*
X148339783Y-118180512D01*
X148381213Y-118460130D01*
X148474147Y-118720000D01*
X146080562Y-118720000D01*
X146159853Y-118528574D01*
X146207850Y-118287282D01*
X147790132Y-116705000D01*
X149471803Y-116705000D01*
X149429870Y-116711213D01*
G37*
X149429870Y-116711213D02*
X149163708Y-116806397D01*
X149038486Y-116873329D01*
X148966903Y-117117298D01*
X149780000Y-117930395D01*
X150593097Y-117117298D01*
X150521514Y-116873329D01*
X150266004Y-116752429D01*
X150076790Y-116705000D01*
X153170000Y-116705000D01*
X153170001Y-117405711D01*
X153121939Y-117477641D01*
X153021304Y-117720595D01*
X152970000Y-117978514D01*
X152970000Y-118241486D01*
X153021304Y-118499405D01*
X153112678Y-118720000D01*
X151078900Y-118720000D01*
X151137571Y-118596004D01*
X151206300Y-118321816D01*
X151220217Y-118039488D01*
X151178787Y-117759870D01*
X151083603Y-117493708D01*
X151016671Y-117368486D01*
X150772702Y-117296903D01*
X149959605Y-118110000D01*
X149973748Y-118124143D01*
X149794143Y-118303748D01*
X149780000Y-118289605D01*
X149765858Y-118303748D01*
X149586253Y-118124143D01*
X149600395Y-118110000D01*
X148787298Y-117296903D01*
X148543329Y-117368486D01*
X148422429Y-117623996D01*
X148353700Y-117898184D01*
X148339783Y-118180512D01*
X148381213Y-118460130D01*
X148474147Y-118720000D01*
X146080562Y-118720000D01*
X146159853Y-118528574D01*
X146207850Y-118287282D01*
X147790132Y-116705000D01*
X149471803Y-116705000D01*
X149429870Y-116711213D01*
G36*
X153170000Y-112325712D02*
G01*
X153121939Y-112397641D01*
X153021304Y-112640595D01*
X152970000Y-112898514D01*
X152970000Y-113161486D01*
X153021304Y-113419405D01*
X153121939Y-113662359D01*
X153268038Y-113881013D01*
X153453987Y-114066962D01*
X153672641Y-114213061D01*
X153882530Y-114300000D01*
X153672641Y-114386939D01*
X153600712Y-114435000D01*
X150088197Y-114435000D01*
X150130130Y-114428787D01*
X150396292Y-114333603D01*
X150521514Y-114266671D01*
X150593097Y-114022702D01*
X149780000Y-113209605D01*
X148966903Y-114022702D01*
X149038486Y-114266671D01*
X149293996Y-114387571D01*
X149483210Y-114435000D01*
X147375741Y-114435000D01*
X147319999Y-114429510D01*
X147264257Y-114435000D01*
X147264248Y-114435000D01*
X147097501Y-114451423D01*
X146883553Y-114516324D01*
X146686377Y-114621716D01*
X146513551Y-114763551D01*
X146478011Y-114806857D01*
X144602718Y-116682150D01*
X144361426Y-116730147D01*
X144100273Y-116838320D01*
X143895716Y-116975000D01*
X142345287Y-116975000D01*
X142246833Y-116909215D01*
X142000239Y-116807072D01*
X141738456Y-116755000D01*
X141471544Y-116755000D01*
X141209761Y-116807072D01*
X140963167Y-116909215D01*
X140864713Y-116975000D01*
X137787000Y-116975000D01*
X137787000Y-116505560D01*
X138309045Y-116505560D01*
X138370932Y-116741368D01*
X138612790Y-116854266D01*
X138872027Y-116917811D01*
X139138680Y-116929561D01*
X139402501Y-116889063D01*
X139653353Y-116797875D01*
X139759068Y-116741368D01*
X139820955Y-116505560D01*
X139065000Y-115749605D01*
X138309045Y-116505560D01*
X137787000Y-116505560D01*
X137787000Y-116274288D01*
X137835061Y-116202359D01*
X137846232Y-116175390D01*
X137893632Y-116264068D01*
X138129440Y-116325955D01*
X138885395Y-115570000D01*
X139244605Y-115570000D01*
X140000560Y-116325955D01*
X140236368Y-116264068D01*
X140349266Y-116022210D01*
X140412811Y-115762973D01*
X140424561Y-115496320D01*
X140384063Y-115232499D01*
X140292875Y-114981647D01*
X140236368Y-114875932D01*
X140000560Y-114814045D01*
X139244605Y-115570000D01*
X138885395Y-115570000D01*
X138129440Y-114814045D01*
X137893632Y-114875932D01*
X137849056Y-114971427D01*
X137835061Y-114937641D01*
X137688962Y-114718987D01*
X137604415Y-114634440D01*
X138309045Y-114634440D01*
X139065000Y-115390395D01*
X139820955Y-114634440D01*
X139759068Y-114398632D01*
X139517210Y-114285734D01*
X139257973Y-114222189D01*
X138991320Y-114210439D01*
X138727499Y-114250937D01*
X138476647Y-114342125D01*
X138370932Y-114398632D01*
X138309045Y-114634440D01*
X137604415Y-114634440D01*
X137503013Y-114533038D01*
X137284359Y-114386939D01*
X137074470Y-114300000D01*
X137284359Y-114213061D01*
X137356288Y-114165000D01*
X140864713Y-114165000D01*
X140963167Y-114230785D01*
X141209761Y-114332928D01*
X141471544Y-114385000D01*
X141738456Y-114385000D01*
X142000239Y-114332928D01*
X142246833Y-114230785D01*
X142345287Y-114165000D01*
X143895716Y-114165000D01*
X144100273Y-114301680D01*
X144361426Y-114409853D01*
X144638665Y-114465000D01*
X144921335Y-114465000D01*
X145198574Y-114409853D01*
X145459727Y-114301680D01*
X145664284Y-114165000D01*
X147060247Y-114165000D01*
X147115998Y-114170491D01*
X147171749Y-114165000D01*
X147171750Y-114165000D01*
X147338497Y-114148577D01*
X147552445Y-114083676D01*
X147749621Y-113978284D01*
X147922447Y-113836449D01*
X147957994Y-113793135D01*
X148379895Y-113371234D01*
X148381213Y-113380130D01*
X148476397Y-113646292D01*
X148543329Y-113771514D01*
X148787298Y-113843097D01*
X149600395Y-113030000D01*
X149586253Y-113015858D01*
X149765858Y-112836253D01*
X149780000Y-112850395D01*
X149794143Y-112836253D01*
X149973748Y-113015858D01*
X149959605Y-113030000D01*
X150772702Y-113843097D01*
X151016671Y-113771514D01*
X151137571Y-113516004D01*
X151206300Y-113241816D01*
X151220217Y-112959488D01*
X151178787Y-112679870D01*
X151083603Y-112413708D01*
X151016671Y-112288486D01*
X150919585Y-112260000D01*
X153170000Y-112260000D01*
X153170000Y-112325712D01*
G37*
X153170000Y-112325712D02*
X153121939Y-112397641D01*
X153021304Y-112640595D01*
X152970000Y-112898514D01*
X152970000Y-113161486D01*
X153021304Y-113419405D01*
X153121939Y-113662359D01*
X153268038Y-113881013D01*
X153453987Y-114066962D01*
X153672641Y-114213061D01*
X153882530Y-114300000D01*
X153672641Y-114386939D01*
X153600712Y-114435000D01*
X150088197Y-114435000D01*
X150130130Y-114428787D01*
X150396292Y-114333603D01*
X150521514Y-114266671D01*
X150593097Y-114022702D01*
X149780000Y-113209605D01*
X148966903Y-114022702D01*
X149038486Y-114266671D01*
X149293996Y-114387571D01*
X149483210Y-114435000D01*
X147375741Y-114435000D01*
X147319999Y-114429510D01*
X147264257Y-114435000D01*
X147264248Y-114435000D01*
X147097501Y-114451423D01*
X146883553Y-114516324D01*
X146686377Y-114621716D01*
X146513551Y-114763551D01*
X146478011Y-114806857D01*
X144602718Y-116682150D01*
X144361426Y-116730147D01*
X144100273Y-116838320D01*
X143895716Y-116975000D01*
X142345287Y-116975000D01*
X142246833Y-116909215D01*
X142000239Y-116807072D01*
X141738456Y-116755000D01*
X141471544Y-116755000D01*
X141209761Y-116807072D01*
X140963167Y-116909215D01*
X140864713Y-116975000D01*
X137787000Y-116975000D01*
X137787000Y-116505560D01*
X138309045Y-116505560D01*
X138370932Y-116741368D01*
X138612790Y-116854266D01*
X138872027Y-116917811D01*
X139138680Y-116929561D01*
X139402501Y-116889063D01*
X139653353Y-116797875D01*
X139759068Y-116741368D01*
X139820955Y-116505560D01*
X139065000Y-115749605D01*
X138309045Y-116505560D01*
X137787000Y-116505560D01*
X137787000Y-116274288D01*
X137835061Y-116202359D01*
X137846232Y-116175390D01*
X137893632Y-116264068D01*
X138129440Y-116325955D01*
X138885395Y-115570000D01*
X139244605Y-115570000D01*
X140000560Y-116325955D01*
X140236368Y-116264068D01*
X140349266Y-116022210D01*
X140412811Y-115762973D01*
X140424561Y-115496320D01*
X140384063Y-115232499D01*
X140292875Y-114981647D01*
X140236368Y-114875932D01*
X140000560Y-114814045D01*
X139244605Y-115570000D01*
X138885395Y-115570000D01*
X138129440Y-114814045D01*
X137893632Y-114875932D01*
X137849056Y-114971427D01*
X137835061Y-114937641D01*
X137688962Y-114718987D01*
X137604415Y-114634440D01*
X138309045Y-114634440D01*
X139065000Y-115390395D01*
X139820955Y-114634440D01*
X139759068Y-114398632D01*
X139517210Y-114285734D01*
X139257973Y-114222189D01*
X138991320Y-114210439D01*
X138727499Y-114250937D01*
X138476647Y-114342125D01*
X138370932Y-114398632D01*
X138309045Y-114634440D01*
X137604415Y-114634440D01*
X137503013Y-114533038D01*
X137284359Y-114386939D01*
X137074470Y-114300000D01*
X137284359Y-114213061D01*
X137356288Y-114165000D01*
X140864713Y-114165000D01*
X140963167Y-114230785D01*
X141209761Y-114332928D01*
X141471544Y-114385000D01*
X141738456Y-114385000D01*
X142000239Y-114332928D01*
X142246833Y-114230785D01*
X142345287Y-114165000D01*
X143895716Y-114165000D01*
X144100273Y-114301680D01*
X144361426Y-114409853D01*
X144638665Y-114465000D01*
X144921335Y-114465000D01*
X145198574Y-114409853D01*
X145459727Y-114301680D01*
X145664284Y-114165000D01*
X147060247Y-114165000D01*
X147115998Y-114170491D01*
X147171749Y-114165000D01*
X147171750Y-114165000D01*
X147338497Y-114148577D01*
X147552445Y-114083676D01*
X147749621Y-113978284D01*
X147922447Y-113836449D01*
X147957994Y-113793135D01*
X148379895Y-113371234D01*
X148381213Y-113380130D01*
X148476397Y-113646292D01*
X148543329Y-113771514D01*
X148787298Y-113843097D01*
X149600395Y-113030000D01*
X149586253Y-113015858D01*
X149765858Y-112836253D01*
X149780000Y-112850395D01*
X149794143Y-112836253D01*
X149973748Y-113015858D01*
X149959605Y-113030000D01*
X150772702Y-113843097D01*
X151016671Y-113771514D01*
X151137571Y-113516004D01*
X151206300Y-113241816D01*
X151220217Y-112959488D01*
X151178787Y-112679870D01*
X151083603Y-112413708D01*
X151016671Y-112288486D01*
X150919585Y-112260000D01*
X153170000Y-112260000D01*
X153170000Y-112325712D01*
G36*
X160862502Y-108228578D02*
G01*
X161029249Y-108245001D01*
X161029258Y-108245001D01*
X161085000Y-108250491D01*
X161140742Y-108245001D01*
X162792915Y-108245001D01*
X162848666Y-108250492D01*
X162904417Y-108245001D01*
X162904418Y-108245001D01*
X163071165Y-108228578D01*
X163099476Y-108219990D01*
X165160001Y-108219990D01*
X165160001Y-108383477D01*
X165168227Y-108467000D01*
X164718750Y-108467000D01*
X164560000Y-108625750D01*
X164557035Y-108878325D01*
X164567016Y-109003011D01*
X164601129Y-109123353D01*
X164658065Y-109234727D01*
X164735635Y-109332854D01*
X164830858Y-109413963D01*
X164940075Y-109474935D01*
X165059089Y-109513429D01*
X165163250Y-109525000D01*
X165322000Y-109366250D01*
X165322000Y-109253678D01*
X165393815Y-109341185D01*
X165490506Y-109420537D01*
X165558782Y-109457032D01*
X165626750Y-109525000D01*
X165717554Y-109514913D01*
X165720518Y-109515812D01*
X165845000Y-109528072D01*
X166245000Y-109528072D01*
X166369482Y-109515812D01*
X166370000Y-109515655D01*
X166370518Y-109515812D01*
X166495000Y-109528072D01*
X166895000Y-109528072D01*
X167019482Y-109515812D01*
X167020000Y-109515655D01*
X167020518Y-109515812D01*
X167145000Y-109528072D01*
X167545000Y-109528072D01*
X167669482Y-109515812D01*
X167789180Y-109479502D01*
X167899494Y-109420537D01*
X167903355Y-109417368D01*
X167981457Y-109393676D01*
X168068782Y-109347000D01*
X168745000Y-109347000D01*
X168745000Y-109361335D01*
X168800147Y-109638574D01*
X168908320Y-109899727D01*
X169045000Y-110104284D01*
X169045001Y-111505000D01*
X167797603Y-111505000D01*
X167789180Y-111500498D01*
X167669482Y-111464188D01*
X167545000Y-111451928D01*
X167145000Y-111451928D01*
X167020518Y-111464188D01*
X167020000Y-111464345D01*
X167019482Y-111464188D01*
X166895000Y-111451928D01*
X166495000Y-111451928D01*
X166370518Y-111464188D01*
X166370000Y-111464345D01*
X166369482Y-111464188D01*
X166245000Y-111451928D01*
X165845000Y-111451928D01*
X165720518Y-111464188D01*
X165720000Y-111464345D01*
X165719482Y-111464188D01*
X165595000Y-111451928D01*
X165195000Y-111451928D01*
X165070518Y-111464188D01*
X164950820Y-111500498D01*
X164942397Y-111505000D01*
X162370741Y-111505000D01*
X162314999Y-111499510D01*
X162259257Y-111505000D01*
X162259248Y-111505000D01*
X162092501Y-111521423D01*
X161878553Y-111586324D01*
X161681377Y-111691716D01*
X161508551Y-111833551D01*
X161473004Y-111876865D01*
X161161862Y-112188007D01*
X161161856Y-112188012D01*
X160675428Y-112674440D01*
X160668696Y-112640595D01*
X160568061Y-112397641D01*
X160421962Y-112178987D01*
X160236013Y-111993038D01*
X160017359Y-111846939D01*
X159807470Y-111760000D01*
X160017359Y-111673061D01*
X160236013Y-111526962D01*
X160421962Y-111341013D01*
X160568061Y-111122359D01*
X160668696Y-110879405D01*
X160720000Y-110621486D01*
X160720000Y-110358514D01*
X160668696Y-110100595D01*
X160568061Y-109857641D01*
X160421962Y-109638987D01*
X160236013Y-109453038D01*
X160017359Y-109306939D01*
X159807470Y-109220000D01*
X160017359Y-109133061D01*
X160236013Y-108986962D01*
X160421962Y-108801013D01*
X160568061Y-108582359D01*
X160668696Y-108339405D01*
X160700516Y-108179440D01*
X160862502Y-108228578D01*
G37*
X160862502Y-108228578D02*
X161029249Y-108245001D01*
X161029258Y-108245001D01*
X161085000Y-108250491D01*
X161140742Y-108245001D01*
X162792915Y-108245001D01*
X162848666Y-108250492D01*
X162904417Y-108245001D01*
X162904418Y-108245001D01*
X163071165Y-108228578D01*
X163099476Y-108219990D01*
X165160001Y-108219990D01*
X165160001Y-108383477D01*
X165168227Y-108467000D01*
X164718750Y-108467000D01*
X164560000Y-108625750D01*
X164557035Y-108878325D01*
X164567016Y-109003011D01*
X164601129Y-109123353D01*
X164658065Y-109234727D01*
X164735635Y-109332854D01*
X164830858Y-109413963D01*
X164940075Y-109474935D01*
X165059089Y-109513429D01*
X165163250Y-109525000D01*
X165322000Y-109366250D01*
X165322000Y-109253678D01*
X165393815Y-109341185D01*
X165490506Y-109420537D01*
X165558782Y-109457032D01*
X165626750Y-109525000D01*
X165717554Y-109514913D01*
X165720518Y-109515812D01*
X165845000Y-109528072D01*
X166245000Y-109528072D01*
X166369482Y-109515812D01*
X166370000Y-109515655D01*
X166370518Y-109515812D01*
X166495000Y-109528072D01*
X166895000Y-109528072D01*
X167019482Y-109515812D01*
X167020000Y-109515655D01*
X167020518Y-109515812D01*
X167145000Y-109528072D01*
X167545000Y-109528072D01*
X167669482Y-109515812D01*
X167789180Y-109479502D01*
X167899494Y-109420537D01*
X167903355Y-109417368D01*
X167981457Y-109393676D01*
X168068782Y-109347000D01*
X168745000Y-109347000D01*
X168745000Y-109361335D01*
X168800147Y-109638574D01*
X168908320Y-109899727D01*
X169045000Y-110104284D01*
X169045001Y-111505000D01*
X167797603Y-111505000D01*
X167789180Y-111500498D01*
X167669482Y-111464188D01*
X167545000Y-111451928D01*
X167145000Y-111451928D01*
X167020518Y-111464188D01*
X167020000Y-111464345D01*
X167019482Y-111464188D01*
X166895000Y-111451928D01*
X166495000Y-111451928D01*
X166370518Y-111464188D01*
X166370000Y-111464345D01*
X166369482Y-111464188D01*
X166245000Y-111451928D01*
X165845000Y-111451928D01*
X165720518Y-111464188D01*
X165720000Y-111464345D01*
X165719482Y-111464188D01*
X165595000Y-111451928D01*
X165195000Y-111451928D01*
X165070518Y-111464188D01*
X164950820Y-111500498D01*
X164942397Y-111505000D01*
X162370741Y-111505000D01*
X162314999Y-111499510D01*
X162259257Y-111505000D01*
X162259248Y-111505000D01*
X162092501Y-111521423D01*
X161878553Y-111586324D01*
X161681377Y-111691716D01*
X161508551Y-111833551D01*
X161473004Y-111876865D01*
X161161862Y-112188007D01*
X161161856Y-112188012D01*
X160675428Y-112674440D01*
X160668696Y-112640595D01*
X160568061Y-112397641D01*
X160421962Y-112178987D01*
X160236013Y-111993038D01*
X160017359Y-111846939D01*
X159807470Y-111760000D01*
X160017359Y-111673061D01*
X160236013Y-111526962D01*
X160421962Y-111341013D01*
X160568061Y-111122359D01*
X160668696Y-110879405D01*
X160720000Y-110621486D01*
X160720000Y-110358514D01*
X160668696Y-110100595D01*
X160568061Y-109857641D01*
X160421962Y-109638987D01*
X160236013Y-109453038D01*
X160017359Y-109306939D01*
X159807470Y-109220000D01*
X160017359Y-109133061D01*
X160236013Y-108986962D01*
X160421962Y-108801013D01*
X160568061Y-108582359D01*
X160668696Y-108339405D01*
X160700516Y-108179440D01*
X160862502Y-108228578D01*
G36*
X133421068Y-108018899D02*
G01*
X133287818Y-108268192D01*
X133205764Y-108538691D01*
X133185000Y-108749508D01*
X133185000Y-109690491D01*
X133205764Y-109901308D01*
X133287818Y-110171807D01*
X133421068Y-110421100D01*
X133600392Y-110639607D01*
X133818899Y-110818932D01*
X134068192Y-110952182D01*
X134338691Y-111034236D01*
X134620000Y-111061943D01*
X134901308Y-111034236D01*
X135171807Y-110952182D01*
X135421100Y-110818932D01*
X135639607Y-110639608D01*
X135818932Y-110421101D01*
X135890000Y-110288142D01*
X135961068Y-110421100D01*
X136140392Y-110639607D01*
X136358899Y-110818932D01*
X136608192Y-110952182D01*
X136878691Y-111034236D01*
X137160000Y-111061943D01*
X137441308Y-111034236D01*
X137711807Y-110952182D01*
X137961100Y-110818932D01*
X138179607Y-110639608D01*
X138358932Y-110421101D01*
X138430000Y-110288142D01*
X138501068Y-110421100D01*
X138680392Y-110639607D01*
X138898899Y-110818932D01*
X139148192Y-110952182D01*
X139418691Y-111034236D01*
X139700000Y-111061943D01*
X139981308Y-111034236D01*
X140251807Y-110952182D01*
X140501100Y-110818932D01*
X140719607Y-110639608D01*
X140898932Y-110421101D01*
X140970000Y-110288142D01*
X141041068Y-110421100D01*
X141220392Y-110639607D01*
X141438899Y-110818932D01*
X141688192Y-110952182D01*
X141958691Y-111034236D01*
X142240000Y-111061943D01*
X142521308Y-111034236D01*
X142791807Y-110952182D01*
X143041100Y-110818932D01*
X143259607Y-110639608D01*
X143438932Y-110421101D01*
X143572182Y-110171808D01*
X143654236Y-109901309D01*
X143675000Y-109690492D01*
X143675000Y-109497702D01*
X145871903Y-109497702D01*
X145943486Y-109741671D01*
X146198996Y-109862571D01*
X146473184Y-109931300D01*
X146755512Y-109945217D01*
X147035130Y-109903787D01*
X147301292Y-109808603D01*
X147426514Y-109741671D01*
X147498097Y-109497702D01*
X146685000Y-108684605D01*
X145871903Y-109497702D01*
X143675000Y-109497702D01*
X143675000Y-108749509D01*
X143654236Y-108538691D01*
X143572182Y-108268192D01*
X143438932Y-108018899D01*
X143271596Y-107815000D01*
X145423954Y-107815000D01*
X145327429Y-108018996D01*
X145258700Y-108293184D01*
X145244783Y-108575512D01*
X145286213Y-108855130D01*
X145381397Y-109121292D01*
X145448329Y-109246514D01*
X145692298Y-109318097D01*
X146505395Y-108505000D01*
X146491253Y-108490858D01*
X146670858Y-108311253D01*
X146685000Y-108325395D01*
X146699143Y-108311253D01*
X146878748Y-108490858D01*
X146864605Y-108505000D01*
X147677702Y-109318097D01*
X147921671Y-109246514D01*
X148042571Y-108991004D01*
X148111300Y-108716816D01*
X148125217Y-108434488D01*
X148083787Y-108154870D01*
X147988603Y-107888708D01*
X147949206Y-107815000D01*
X148119869Y-107815000D01*
X149702150Y-109397282D01*
X149750147Y-109638574D01*
X149858320Y-109899727D01*
X149918638Y-109990000D01*
X149076750Y-109990000D01*
X149020998Y-109984509D01*
X148965246Y-109990000D01*
X148798499Y-110006423D01*
X148584551Y-110071324D01*
X148387375Y-110176716D01*
X148214549Y-110318551D01*
X148179007Y-110361859D01*
X146645867Y-111895000D01*
X145664284Y-111895000D01*
X145459727Y-111758320D01*
X145198574Y-111650147D01*
X144921335Y-111595000D01*
X144638665Y-111595000D01*
X144361426Y-111650147D01*
X144100273Y-111758320D01*
X143895716Y-111895000D01*
X142345287Y-111895000D01*
X142246833Y-111829215D01*
X142000239Y-111727072D01*
X141738456Y-111675000D01*
X141471544Y-111675000D01*
X141209761Y-111727072D01*
X140963167Y-111829215D01*
X140864713Y-111895000D01*
X137356288Y-111895000D01*
X137284359Y-111846939D01*
X137041405Y-111746304D01*
X136783486Y-111695000D01*
X136520514Y-111695000D01*
X136262595Y-111746304D01*
X136019641Y-111846939D01*
X135947712Y-111895000D01*
X135679105Y-111895000D01*
X135660776Y-111889440D01*
X135636000Y-111887000D01*
X132580000Y-111887000D01*
X132580000Y-107815000D01*
X133588404Y-107815000D01*
X133421068Y-108018899D01*
G37*
X133421068Y-108018899D02*
X133287818Y-108268192D01*
X133205764Y-108538691D01*
X133185000Y-108749508D01*
X133185000Y-109690491D01*
X133205764Y-109901308D01*
X133287818Y-110171807D01*
X133421068Y-110421100D01*
X133600392Y-110639607D01*
X133818899Y-110818932D01*
X134068192Y-110952182D01*
X134338691Y-111034236D01*
X134620000Y-111061943D01*
X134901308Y-111034236D01*
X135171807Y-110952182D01*
X135421100Y-110818932D01*
X135639607Y-110639608D01*
X135818932Y-110421101D01*
X135890000Y-110288142D01*
X135961068Y-110421100D01*
X136140392Y-110639607D01*
X136358899Y-110818932D01*
X136608192Y-110952182D01*
X136878691Y-111034236D01*
X137160000Y-111061943D01*
X137441308Y-111034236D01*
X137711807Y-110952182D01*
X137961100Y-110818932D01*
X138179607Y-110639608D01*
X138358932Y-110421101D01*
X138430000Y-110288142D01*
X138501068Y-110421100D01*
X138680392Y-110639607D01*
X138898899Y-110818932D01*
X139148192Y-110952182D01*
X139418691Y-111034236D01*
X139700000Y-111061943D01*
X139981308Y-111034236D01*
X140251807Y-110952182D01*
X140501100Y-110818932D01*
X140719607Y-110639608D01*
X140898932Y-110421101D01*
X140970000Y-110288142D01*
X141041068Y-110421100D01*
X141220392Y-110639607D01*
X141438899Y-110818932D01*
X141688192Y-110952182D01*
X141958691Y-111034236D01*
X142240000Y-111061943D01*
X142521308Y-111034236D01*
X142791807Y-110952182D01*
X143041100Y-110818932D01*
X143259607Y-110639608D01*
X143438932Y-110421101D01*
X143572182Y-110171808D01*
X143654236Y-109901309D01*
X143675000Y-109690492D01*
X143675000Y-109497702D01*
X145871903Y-109497702D01*
X145943486Y-109741671D01*
X146198996Y-109862571D01*
X146473184Y-109931300D01*
X146755512Y-109945217D01*
X147035130Y-109903787D01*
X147301292Y-109808603D01*
X147426514Y-109741671D01*
X147498097Y-109497702D01*
X146685000Y-108684605D01*
X145871903Y-109497702D01*
X143675000Y-109497702D01*
X143675000Y-108749509D01*
X143654236Y-108538691D01*
X143572182Y-108268192D01*
X143438932Y-108018899D01*
X143271596Y-107815000D01*
X145423954Y-107815000D01*
X145327429Y-108018996D01*
X145258700Y-108293184D01*
X145244783Y-108575512D01*
X145286213Y-108855130D01*
X145381397Y-109121292D01*
X145448329Y-109246514D01*
X145692298Y-109318097D01*
X146505395Y-108505000D01*
X146491253Y-108490858D01*
X146670858Y-108311253D01*
X146685000Y-108325395D01*
X146699143Y-108311253D01*
X146878748Y-108490858D01*
X146864605Y-108505000D01*
X147677702Y-109318097D01*
X147921671Y-109246514D01*
X148042571Y-108991004D01*
X148111300Y-108716816D01*
X148125217Y-108434488D01*
X148083787Y-108154870D01*
X147988603Y-107888708D01*
X147949206Y-107815000D01*
X148119869Y-107815000D01*
X149702150Y-109397282D01*
X149750147Y-109638574D01*
X149858320Y-109899727D01*
X149918638Y-109990000D01*
X149076750Y-109990000D01*
X149020998Y-109984509D01*
X148965246Y-109990000D01*
X148798499Y-110006423D01*
X148584551Y-110071324D01*
X148387375Y-110176716D01*
X148214549Y-110318551D01*
X148179007Y-110361859D01*
X146645867Y-111895000D01*
X145664284Y-111895000D01*
X145459727Y-111758320D01*
X145198574Y-111650147D01*
X144921335Y-111595000D01*
X144638665Y-111595000D01*
X144361426Y-111650147D01*
X144100273Y-111758320D01*
X143895716Y-111895000D01*
X142345287Y-111895000D01*
X142246833Y-111829215D01*
X142000239Y-111727072D01*
X141738456Y-111675000D01*
X141471544Y-111675000D01*
X141209761Y-111727072D01*
X140963167Y-111829215D01*
X140864713Y-111895000D01*
X137356288Y-111895000D01*
X137284359Y-111846939D01*
X137041405Y-111746304D01*
X136783486Y-111695000D01*
X136520514Y-111695000D01*
X136262595Y-111746304D01*
X136019641Y-111846939D01*
X135947712Y-111895000D01*
X135679105Y-111895000D01*
X135660776Y-111889440D01*
X135636000Y-111887000D01*
X132580000Y-111887000D01*
X132580000Y-107815000D01*
X133588404Y-107815000D01*
X133421068Y-108018899D01*
G36*
X134754511Y-87994358D02*
G01*
X134730537Y-87949506D01*
X134651185Y-87852815D01*
X134554494Y-87773463D01*
X134444180Y-87714498D01*
X134324482Y-87678188D01*
X134200000Y-87665928D01*
X132500000Y-87665928D01*
X132375518Y-87678188D01*
X132255820Y-87714498D01*
X132145506Y-87773463D01*
X132048815Y-87852815D01*
X131969463Y-87949506D01*
X131910498Y-88059820D01*
X131874188Y-88179518D01*
X131861928Y-88304000D01*
X131861928Y-90004000D01*
X131874188Y-90128482D01*
X131910498Y-90248180D01*
X131969463Y-90358494D01*
X132048815Y-90455185D01*
X132145506Y-90534537D01*
X132255820Y-90593502D01*
X132336466Y-90617966D01*
X132252412Y-90693731D01*
X132078359Y-90927080D01*
X131953175Y-91189901D01*
X131908524Y-91337110D01*
X132029845Y-91567000D01*
X133223000Y-91567000D01*
X133223000Y-91547000D01*
X133477000Y-91547000D01*
X133477000Y-91567000D01*
X134670155Y-91567000D01*
X134791476Y-91337110D01*
X134746825Y-91189901D01*
X134673379Y-91035702D01*
X137926903Y-91035702D01*
X137998486Y-91279671D01*
X138253996Y-91400571D01*
X138528184Y-91469300D01*
X138810512Y-91483217D01*
X139090130Y-91441787D01*
X139356292Y-91346603D01*
X139481514Y-91279671D01*
X139553097Y-91035702D01*
X138740000Y-90222605D01*
X137926903Y-91035702D01*
X134673379Y-91035702D01*
X134621641Y-90927080D01*
X134447588Y-90693731D01*
X134363534Y-90617966D01*
X134444180Y-90593502D01*
X134554494Y-90534537D01*
X134651185Y-90455185D01*
X134730537Y-90358494D01*
X134767683Y-90289000D01*
X135144249Y-90289000D01*
X135200000Y-90294491D01*
X135255751Y-90289000D01*
X135255752Y-90289000D01*
X135422499Y-90272577D01*
X135636447Y-90207676D01*
X135812616Y-90113512D01*
X137299783Y-90113512D01*
X137341213Y-90393130D01*
X137436397Y-90659292D01*
X137503329Y-90784514D01*
X137747298Y-90856097D01*
X138560395Y-90043000D01*
X138919605Y-90043000D01*
X139732702Y-90856097D01*
X139976671Y-90784514D01*
X140097571Y-90529004D01*
X140166300Y-90254816D01*
X140180217Y-89972488D01*
X140138787Y-89692870D01*
X140043603Y-89426708D01*
X139976671Y-89301486D01*
X139777340Y-89243000D01*
X140801928Y-89243000D01*
X140801928Y-90843000D01*
X140814188Y-90967482D01*
X140850498Y-91087180D01*
X140909463Y-91197494D01*
X140988815Y-91294185D01*
X141085506Y-91373537D01*
X141195820Y-91432502D01*
X141315518Y-91468812D01*
X141440000Y-91481072D01*
X143040000Y-91481072D01*
X143164482Y-91468812D01*
X143284180Y-91432502D01*
X143394494Y-91373537D01*
X143491185Y-91294185D01*
X143570537Y-91197494D01*
X143629502Y-91087180D01*
X143665812Y-90967482D01*
X143678072Y-90843000D01*
X143678072Y-89243000D01*
X143665812Y-89118518D01*
X143629502Y-88998820D01*
X143570537Y-88888506D01*
X143491185Y-88791815D01*
X143394494Y-88712463D01*
X143284180Y-88653498D01*
X143164482Y-88617188D01*
X143040000Y-88604928D01*
X141440000Y-88604928D01*
X141315518Y-88617188D01*
X141195820Y-88653498D01*
X141085506Y-88712463D01*
X140988815Y-88791815D01*
X140909463Y-88888506D01*
X140850498Y-88998820D01*
X140814188Y-89118518D01*
X140801928Y-89243000D01*
X139777340Y-89243000D01*
X139732702Y-89229903D01*
X138919605Y-90043000D01*
X138560395Y-90043000D01*
X137747298Y-89229903D01*
X137503329Y-89301486D01*
X137382429Y-89556996D01*
X137313700Y-89831184D01*
X137299783Y-90113512D01*
X135812616Y-90113512D01*
X135833623Y-90102284D01*
X136006449Y-89960449D01*
X136041996Y-89917135D01*
X136908833Y-89050298D01*
X137926903Y-89050298D01*
X138740000Y-89863395D01*
X139553097Y-89050298D01*
X139481514Y-88806329D01*
X139226004Y-88685429D01*
X138951816Y-88616700D01*
X138669488Y-88602783D01*
X138389870Y-88644213D01*
X138123708Y-88739397D01*
X137998486Y-88806329D01*
X137926903Y-89050298D01*
X136908833Y-89050298D01*
X137702132Y-88257000D01*
X146384732Y-88257000D01*
X146376688Y-88283518D01*
X146364428Y-88408000D01*
X146364428Y-90408000D01*
X146376688Y-90532482D01*
X146412998Y-90652180D01*
X146471963Y-90762494D01*
X146551315Y-90859185D01*
X146648006Y-90938537D01*
X146758320Y-90997502D01*
X146820000Y-91016213D01*
X146820000Y-91371639D01*
X146729727Y-91311320D01*
X146468574Y-91203147D01*
X146191335Y-91148000D01*
X145908665Y-91148000D01*
X145631426Y-91203147D01*
X145370273Y-91311320D01*
X145135241Y-91468363D01*
X144935363Y-91668241D01*
X144778320Y-91903273D01*
X144670147Y-92164426D01*
X144615000Y-92441665D01*
X144615000Y-92724335D01*
X144670147Y-93001574D01*
X144778320Y-93262727D01*
X144915000Y-93467284D01*
X144915001Y-94623000D01*
X144835743Y-94623000D01*
X144779999Y-94617510D01*
X144724255Y-94623000D01*
X144724248Y-94623000D01*
X144578493Y-94637356D01*
X144557500Y-94639423D01*
X144507705Y-94654529D01*
X144343553Y-94704324D01*
X144146377Y-94809716D01*
X143973551Y-94951551D01*
X143938008Y-94994860D01*
X143332718Y-95600150D01*
X143091426Y-95648147D01*
X142830273Y-95756320D01*
X142595241Y-95913363D01*
X142395363Y-96113241D01*
X142238320Y-96348273D01*
X142130147Y-96609426D01*
X142082151Y-96850717D01*
X138969580Y-99963288D01*
X138898900Y-100001068D01*
X138680393Y-100180392D01*
X138501068Y-100398899D01*
X138430000Y-100531858D01*
X138358932Y-100398899D01*
X138179608Y-100180392D01*
X137961101Y-100001068D01*
X137711808Y-99867818D01*
X137441309Y-99785764D01*
X137160000Y-99758057D01*
X136878692Y-99785764D01*
X136608193Y-99867818D01*
X136358900Y-100001068D01*
X136140393Y-100180392D01*
X135961068Y-100398899D01*
X135892735Y-100526741D01*
X135742601Y-100297161D01*
X135544895Y-100095500D01*
X135311646Y-99936285D01*
X135051818Y-99825633D01*
X134969039Y-99808096D01*
X134747000Y-99930085D01*
X134747000Y-101473000D01*
X134767000Y-101473000D01*
X134767000Y-101727000D01*
X134747000Y-101727000D01*
X134747000Y-103269915D01*
X134969039Y-103391904D01*
X135051818Y-103374367D01*
X135311646Y-103263715D01*
X135544895Y-103104500D01*
X135742601Y-102902839D01*
X135892735Y-102673258D01*
X135961068Y-102801100D01*
X136140392Y-103019607D01*
X136358899Y-103198932D01*
X136608192Y-103332182D01*
X136878691Y-103414236D01*
X137160000Y-103441943D01*
X137441308Y-103414236D01*
X137711807Y-103332182D01*
X137961100Y-103198932D01*
X138179607Y-103019608D01*
X138358932Y-102801101D01*
X138430000Y-102668142D01*
X138501068Y-102801100D01*
X138680392Y-103019607D01*
X138898899Y-103198932D01*
X139148192Y-103332182D01*
X139418691Y-103414236D01*
X139700000Y-103441943D01*
X139981308Y-103414236D01*
X140251807Y-103332182D01*
X140501100Y-103198932D01*
X140719607Y-103019608D01*
X140812419Y-102906517D01*
X140814188Y-102924482D01*
X140850498Y-103044180D01*
X140909463Y-103154494D01*
X140988815Y-103251185D01*
X141085506Y-103330537D01*
X141195820Y-103389502D01*
X141315518Y-103425812D01*
X141440000Y-103438072D01*
X143040000Y-103438072D01*
X143164482Y-103425812D01*
X143284180Y-103389502D01*
X143394494Y-103330537D01*
X143491185Y-103251185D01*
X143570537Y-103154494D01*
X143629502Y-103044180D01*
X143665812Y-102924482D01*
X143678072Y-102800000D01*
X143678072Y-100400000D01*
X143665812Y-100275518D01*
X143629502Y-100155820D01*
X143570537Y-100045506D01*
X143491185Y-99948815D01*
X143394494Y-99869463D01*
X143284180Y-99810498D01*
X143164482Y-99774188D01*
X143040000Y-99761928D01*
X142381204Y-99761928D01*
X143129001Y-99014132D01*
X144295260Y-100180392D01*
X144915001Y-100800132D01*
X144915001Y-102814239D01*
X144909509Y-102870000D01*
X144931423Y-103092498D01*
X144996324Y-103306446D01*
X145026908Y-103363665D01*
X145101717Y-103503623D01*
X145243552Y-103676449D01*
X145258417Y-103688648D01*
X145305147Y-103923574D01*
X145413320Y-104184727D01*
X145570363Y-104419759D01*
X145770241Y-104619637D01*
X146005273Y-104776680D01*
X146266426Y-104884853D01*
X146543665Y-104940000D01*
X146826335Y-104940000D01*
X147103574Y-104884853D01*
X147364727Y-104776680D01*
X147569284Y-104640000D01*
X147760619Y-104640000D01*
X147816370Y-104645491D01*
X147872121Y-104640000D01*
X147872122Y-104640000D01*
X148038869Y-104623577D01*
X148252817Y-104558676D01*
X148449993Y-104453284D01*
X148622819Y-104311449D01*
X148658366Y-104268136D01*
X149371503Y-103554999D01*
X149857125Y-103554999D01*
X149772429Y-103733996D01*
X149703700Y-104008184D01*
X149689783Y-104290512D01*
X149731213Y-104570130D01*
X149826397Y-104836292D01*
X149893329Y-104961514D01*
X150137298Y-105033097D01*
X150950395Y-104220000D01*
X150936253Y-104205858D01*
X151115858Y-104026253D01*
X151130000Y-104040395D01*
X151144143Y-104026253D01*
X151323748Y-104205858D01*
X151309605Y-104220000D01*
X152122702Y-105033097D01*
X152366671Y-104961514D01*
X152487571Y-104706004D01*
X152556300Y-104431816D01*
X152570217Y-104149488D01*
X152546015Y-103986147D01*
X153033007Y-104473139D01*
X153068550Y-104516448D01*
X153215746Y-104637249D01*
X153121939Y-104777641D01*
X153021304Y-105020595D01*
X152970000Y-105278514D01*
X152970000Y-105541486D01*
X153021304Y-105799405D01*
X153121939Y-106042359D01*
X153170000Y-106114288D01*
X153170000Y-107245712D01*
X153121939Y-107317641D01*
X153021304Y-107560595D01*
X153004427Y-107645442D01*
X152564869Y-108085000D01*
X152014284Y-108085000D01*
X151809727Y-107948320D01*
X151548574Y-107840147D01*
X151307282Y-107792150D01*
X149431996Y-105916865D01*
X149396449Y-105873551D01*
X149223623Y-105731716D01*
X149026447Y-105626324D01*
X148812499Y-105561423D01*
X148645752Y-105545000D01*
X148645751Y-105545000D01*
X148590000Y-105539509D01*
X148534249Y-105545000D01*
X137555752Y-105545000D01*
X137500000Y-105539509D01*
X137444248Y-105545000D01*
X136875751Y-105545000D01*
X136820000Y-105539509D01*
X136764249Y-105545000D01*
X132329284Y-105545000D01*
X132124727Y-105408320D01*
X131863574Y-105300147D01*
X131586335Y-105245000D01*
X131303665Y-105245000D01*
X131026426Y-105300147D01*
X130962000Y-105326833D01*
X130962000Y-105212702D01*
X150316903Y-105212702D01*
X150388486Y-105456671D01*
X150643996Y-105577571D01*
X150918184Y-105646300D01*
X151200512Y-105660217D01*
X151480130Y-105618787D01*
X151746292Y-105523603D01*
X151871514Y-105456671D01*
X151943097Y-105212702D01*
X151130000Y-104399605D01*
X150316903Y-105212702D01*
X130962000Y-105212702D01*
X130962000Y-103038324D01*
X131233184Y-103106300D01*
X131515512Y-103120217D01*
X131795130Y-103078787D01*
X132061292Y-102983603D01*
X132186514Y-102916671D01*
X132258097Y-102672702D01*
X131445000Y-101859605D01*
X131430858Y-101873748D01*
X131251253Y-101694143D01*
X131265395Y-101680000D01*
X131624605Y-101680000D01*
X132437702Y-102493097D01*
X132681671Y-102421514D01*
X132802571Y-102166004D01*
X132871300Y-101891816D01*
X132879424Y-101727000D01*
X133185000Y-101727000D01*
X133185000Y-102127000D01*
X133237350Y-102404514D01*
X133342834Y-102666483D01*
X133497399Y-102902839D01*
X133695105Y-103104500D01*
X133928354Y-103263715D01*
X134188182Y-103374367D01*
X134270961Y-103391904D01*
X134493000Y-103269915D01*
X134493000Y-101727000D01*
X133185000Y-101727000D01*
X132879424Y-101727000D01*
X132885217Y-101609488D01*
X132843787Y-101329870D01*
X132751926Y-101073000D01*
X133185000Y-101073000D01*
X133185000Y-101473000D01*
X134493000Y-101473000D01*
X134493000Y-99930085D01*
X134270961Y-99808096D01*
X134188182Y-99825633D01*
X133928354Y-99936285D01*
X133695105Y-100095500D01*
X133497399Y-100297161D01*
X133342834Y-100533517D01*
X133237350Y-100795486D01*
X133185000Y-101073000D01*
X132751926Y-101073000D01*
X132748603Y-101063708D01*
X132681671Y-100938486D01*
X132437702Y-100866903D01*
X131624605Y-101680000D01*
X131265395Y-101680000D01*
X131251253Y-101665858D01*
X131430858Y-101486253D01*
X131445000Y-101500395D01*
X132258097Y-100687298D01*
X132186514Y-100443329D01*
X131931004Y-100322429D01*
X131656816Y-100253700D01*
X131374488Y-100239783D01*
X131094870Y-100281213D01*
X130962000Y-100328730D01*
X130962000Y-98020702D01*
X137696903Y-98020702D01*
X137768486Y-98264671D01*
X138023996Y-98385571D01*
X138298184Y-98454300D01*
X138580512Y-98468217D01*
X138860130Y-98426787D01*
X139126292Y-98331603D01*
X139251514Y-98264671D01*
X139323097Y-98020702D01*
X138510000Y-97207605D01*
X137696903Y-98020702D01*
X130962000Y-98020702D01*
X130962000Y-97098512D01*
X137069783Y-97098512D01*
X137111213Y-97378130D01*
X137206397Y-97644292D01*
X137273329Y-97769514D01*
X137517298Y-97841097D01*
X138330395Y-97028000D01*
X138689605Y-97028000D01*
X139502702Y-97841097D01*
X139746671Y-97769514D01*
X139867571Y-97514004D01*
X139936300Y-97239816D01*
X139950217Y-96957488D01*
X139908787Y-96677870D01*
X139813603Y-96411708D01*
X139746671Y-96286486D01*
X139502702Y-96214903D01*
X138689605Y-97028000D01*
X138330395Y-97028000D01*
X137517298Y-96214903D01*
X137273329Y-96286486D01*
X137152429Y-96541996D01*
X137083700Y-96816184D01*
X137069783Y-97098512D01*
X130962000Y-97098512D01*
X130962000Y-96035298D01*
X137696903Y-96035298D01*
X138510000Y-96848395D01*
X139323097Y-96035298D01*
X139251514Y-95791329D01*
X138996004Y-95670429D01*
X138721816Y-95601700D01*
X138439488Y-95587783D01*
X138159870Y-95629213D01*
X137893708Y-95724397D01*
X137768486Y-95791329D01*
X137696903Y-96035298D01*
X130962000Y-96035298D01*
X130962000Y-92050890D01*
X131908524Y-92050890D01*
X131953175Y-92198099D01*
X132078359Y-92460920D01*
X132252412Y-92694269D01*
X132468645Y-92889178D01*
X132718748Y-93038157D01*
X132993109Y-93135481D01*
X133223000Y-93014814D01*
X133223000Y-91821000D01*
X133477000Y-91821000D01*
X133477000Y-93014814D01*
X133706891Y-93135481D01*
X133981252Y-93038157D01*
X134231355Y-92889178D01*
X134447588Y-92694269D01*
X134621641Y-92460920D01*
X134746825Y-92198099D01*
X134791476Y-92050890D01*
X134670155Y-91821000D01*
X133477000Y-91821000D01*
X133223000Y-91821000D01*
X132029845Y-91821000D01*
X131908524Y-92050890D01*
X130962000Y-92050890D01*
X130962000Y-87020000D01*
X135728868Y-87020000D01*
X134754511Y-87994358D01*
G37*
X134754511Y-87994358D02*
X134730537Y-87949506D01*
X134651185Y-87852815D01*
X134554494Y-87773463D01*
X134444180Y-87714498D01*
X134324482Y-87678188D01*
X134200000Y-87665928D01*
X132500000Y-87665928D01*
X132375518Y-87678188D01*
X132255820Y-87714498D01*
X132145506Y-87773463D01*
X132048815Y-87852815D01*
X131969463Y-87949506D01*
X131910498Y-88059820D01*
X131874188Y-88179518D01*
X131861928Y-88304000D01*
X131861928Y-90004000D01*
X131874188Y-90128482D01*
X131910498Y-90248180D01*
X131969463Y-90358494D01*
X132048815Y-90455185D01*
X132145506Y-90534537D01*
X132255820Y-90593502D01*
X132336466Y-90617966D01*
X132252412Y-90693731D01*
X132078359Y-90927080D01*
X131953175Y-91189901D01*
X131908524Y-91337110D01*
X132029845Y-91567000D01*
X133223000Y-91567000D01*
X133223000Y-91547000D01*
X133477000Y-91547000D01*
X133477000Y-91567000D01*
X134670155Y-91567000D01*
X134791476Y-91337110D01*
X134746825Y-91189901D01*
X134673379Y-91035702D01*
X137926903Y-91035702D01*
X137998486Y-91279671D01*
X138253996Y-91400571D01*
X138528184Y-91469300D01*
X138810512Y-91483217D01*
X139090130Y-91441787D01*
X139356292Y-91346603D01*
X139481514Y-91279671D01*
X139553097Y-91035702D01*
X138740000Y-90222605D01*
X137926903Y-91035702D01*
X134673379Y-91035702D01*
X134621641Y-90927080D01*
X134447588Y-90693731D01*
X134363534Y-90617966D01*
X134444180Y-90593502D01*
X134554494Y-90534537D01*
X134651185Y-90455185D01*
X134730537Y-90358494D01*
X134767683Y-90289000D01*
X135144249Y-90289000D01*
X135200000Y-90294491D01*
X135255751Y-90289000D01*
X135255752Y-90289000D01*
X135422499Y-90272577D01*
X135636447Y-90207676D01*
X135812616Y-90113512D01*
X137299783Y-90113512D01*
X137341213Y-90393130D01*
X137436397Y-90659292D01*
X137503329Y-90784514D01*
X137747298Y-90856097D01*
X138560395Y-90043000D01*
X138919605Y-90043000D01*
X139732702Y-90856097D01*
X139976671Y-90784514D01*
X140097571Y-90529004D01*
X140166300Y-90254816D01*
X140180217Y-89972488D01*
X140138787Y-89692870D01*
X140043603Y-89426708D01*
X139976671Y-89301486D01*
X139777340Y-89243000D01*
X140801928Y-89243000D01*
X140801928Y-90843000D01*
X140814188Y-90967482D01*
X140850498Y-91087180D01*
X140909463Y-91197494D01*
X140988815Y-91294185D01*
X141085506Y-91373537D01*
X141195820Y-91432502D01*
X141315518Y-91468812D01*
X141440000Y-91481072D01*
X143040000Y-91481072D01*
X143164482Y-91468812D01*
X143284180Y-91432502D01*
X143394494Y-91373537D01*
X143491185Y-91294185D01*
X143570537Y-91197494D01*
X143629502Y-91087180D01*
X143665812Y-90967482D01*
X143678072Y-90843000D01*
X143678072Y-89243000D01*
X143665812Y-89118518D01*
X143629502Y-88998820D01*
X143570537Y-88888506D01*
X143491185Y-88791815D01*
X143394494Y-88712463D01*
X143284180Y-88653498D01*
X143164482Y-88617188D01*
X143040000Y-88604928D01*
X141440000Y-88604928D01*
X141315518Y-88617188D01*
X141195820Y-88653498D01*
X141085506Y-88712463D01*
X140988815Y-88791815D01*
X140909463Y-88888506D01*
X140850498Y-88998820D01*
X140814188Y-89118518D01*
X140801928Y-89243000D01*
X139777340Y-89243000D01*
X139732702Y-89229903D01*
X138919605Y-90043000D01*
X138560395Y-90043000D01*
X137747298Y-89229903D01*
X137503329Y-89301486D01*
X137382429Y-89556996D01*
X137313700Y-89831184D01*
X137299783Y-90113512D01*
X135812616Y-90113512D01*
X135833623Y-90102284D01*
X136006449Y-89960449D01*
X136041996Y-89917135D01*
X136908833Y-89050298D01*
X137926903Y-89050298D01*
X138740000Y-89863395D01*
X139553097Y-89050298D01*
X139481514Y-88806329D01*
X139226004Y-88685429D01*
X138951816Y-88616700D01*
X138669488Y-88602783D01*
X138389870Y-88644213D01*
X138123708Y-88739397D01*
X137998486Y-88806329D01*
X137926903Y-89050298D01*
X136908833Y-89050298D01*
X137702132Y-88257000D01*
X146384732Y-88257000D01*
X146376688Y-88283518D01*
X146364428Y-88408000D01*
X146364428Y-90408000D01*
X146376688Y-90532482D01*
X146412998Y-90652180D01*
X146471963Y-90762494D01*
X146551315Y-90859185D01*
X146648006Y-90938537D01*
X146758320Y-90997502D01*
X146820000Y-91016213D01*
X146820000Y-91371639D01*
X146729727Y-91311320D01*
X146468574Y-91203147D01*
X146191335Y-91148000D01*
X145908665Y-91148000D01*
X145631426Y-91203147D01*
X145370273Y-91311320D01*
X145135241Y-91468363D01*
X144935363Y-91668241D01*
X144778320Y-91903273D01*
X144670147Y-92164426D01*
X144615000Y-92441665D01*
X144615000Y-92724335D01*
X144670147Y-93001574D01*
X144778320Y-93262727D01*
X144915000Y-93467284D01*
X144915001Y-94623000D01*
X144835743Y-94623000D01*
X144779999Y-94617510D01*
X144724255Y-94623000D01*
X144724248Y-94623000D01*
X144578493Y-94637356D01*
X144557500Y-94639423D01*
X144507705Y-94654529D01*
X144343553Y-94704324D01*
X144146377Y-94809716D01*
X143973551Y-94951551D01*
X143938008Y-94994860D01*
X143332718Y-95600150D01*
X143091426Y-95648147D01*
X142830273Y-95756320D01*
X142595241Y-95913363D01*
X142395363Y-96113241D01*
X142238320Y-96348273D01*
X142130147Y-96609426D01*
X142082151Y-96850717D01*
X138969580Y-99963288D01*
X138898900Y-100001068D01*
X138680393Y-100180392D01*
X138501068Y-100398899D01*
X138430000Y-100531858D01*
X138358932Y-100398899D01*
X138179608Y-100180392D01*
X137961101Y-100001068D01*
X137711808Y-99867818D01*
X137441309Y-99785764D01*
X137160000Y-99758057D01*
X136878692Y-99785764D01*
X136608193Y-99867818D01*
X136358900Y-100001068D01*
X136140393Y-100180392D01*
X135961068Y-100398899D01*
X135892735Y-100526741D01*
X135742601Y-100297161D01*
X135544895Y-100095500D01*
X135311646Y-99936285D01*
X135051818Y-99825633D01*
X134969039Y-99808096D01*
X134747000Y-99930085D01*
X134747000Y-101473000D01*
X134767000Y-101473000D01*
X134767000Y-101727000D01*
X134747000Y-101727000D01*
X134747000Y-103269915D01*
X134969039Y-103391904D01*
X135051818Y-103374367D01*
X135311646Y-103263715D01*
X135544895Y-103104500D01*
X135742601Y-102902839D01*
X135892735Y-102673258D01*
X135961068Y-102801100D01*
X136140392Y-103019607D01*
X136358899Y-103198932D01*
X136608192Y-103332182D01*
X136878691Y-103414236D01*
X137160000Y-103441943D01*
X137441308Y-103414236D01*
X137711807Y-103332182D01*
X137961100Y-103198932D01*
X138179607Y-103019608D01*
X138358932Y-102801101D01*
X138430000Y-102668142D01*
X138501068Y-102801100D01*
X138680392Y-103019607D01*
X138898899Y-103198932D01*
X139148192Y-103332182D01*
X139418691Y-103414236D01*
X139700000Y-103441943D01*
X139981308Y-103414236D01*
X140251807Y-103332182D01*
X140501100Y-103198932D01*
X140719607Y-103019608D01*
X140812419Y-102906517D01*
X140814188Y-102924482D01*
X140850498Y-103044180D01*
X140909463Y-103154494D01*
X140988815Y-103251185D01*
X141085506Y-103330537D01*
X141195820Y-103389502D01*
X141315518Y-103425812D01*
X141440000Y-103438072D01*
X143040000Y-103438072D01*
X143164482Y-103425812D01*
X143284180Y-103389502D01*
X143394494Y-103330537D01*
X143491185Y-103251185D01*
X143570537Y-103154494D01*
X143629502Y-103044180D01*
X143665812Y-102924482D01*
X143678072Y-102800000D01*
X143678072Y-100400000D01*
X143665812Y-100275518D01*
X143629502Y-100155820D01*
X143570537Y-100045506D01*
X143491185Y-99948815D01*
X143394494Y-99869463D01*
X143284180Y-99810498D01*
X143164482Y-99774188D01*
X143040000Y-99761928D01*
X142381204Y-99761928D01*
X143129001Y-99014132D01*
X144295260Y-100180392D01*
X144915001Y-100800132D01*
X144915001Y-102814239D01*
X144909509Y-102870000D01*
X144931423Y-103092498D01*
X144996324Y-103306446D01*
X145026908Y-103363665D01*
X145101717Y-103503623D01*
X145243552Y-103676449D01*
X145258417Y-103688648D01*
X145305147Y-103923574D01*
X145413320Y-104184727D01*
X145570363Y-104419759D01*
X145770241Y-104619637D01*
X146005273Y-104776680D01*
X146266426Y-104884853D01*
X146543665Y-104940000D01*
X146826335Y-104940000D01*
X147103574Y-104884853D01*
X147364727Y-104776680D01*
X147569284Y-104640000D01*
X147760619Y-104640000D01*
X147816370Y-104645491D01*
X147872121Y-104640000D01*
X147872122Y-104640000D01*
X148038869Y-104623577D01*
X148252817Y-104558676D01*
X148449993Y-104453284D01*
X148622819Y-104311449D01*
X148658366Y-104268136D01*
X149371503Y-103554999D01*
X149857125Y-103554999D01*
X149772429Y-103733996D01*
X149703700Y-104008184D01*
X149689783Y-104290512D01*
X149731213Y-104570130D01*
X149826397Y-104836292D01*
X149893329Y-104961514D01*
X150137298Y-105033097D01*
X150950395Y-104220000D01*
X150936253Y-104205858D01*
X151115858Y-104026253D01*
X151130000Y-104040395D01*
X151144143Y-104026253D01*
X151323748Y-104205858D01*
X151309605Y-104220000D01*
X152122702Y-105033097D01*
X152366671Y-104961514D01*
X152487571Y-104706004D01*
X152556300Y-104431816D01*
X152570217Y-104149488D01*
X152546015Y-103986147D01*
X153033007Y-104473139D01*
X153068550Y-104516448D01*
X153215746Y-104637249D01*
X153121939Y-104777641D01*
X153021304Y-105020595D01*
X152970000Y-105278514D01*
X152970000Y-105541486D01*
X153021304Y-105799405D01*
X153121939Y-106042359D01*
X153170000Y-106114288D01*
X153170000Y-107245712D01*
X153121939Y-107317641D01*
X153021304Y-107560595D01*
X153004427Y-107645442D01*
X152564869Y-108085000D01*
X152014284Y-108085000D01*
X151809727Y-107948320D01*
X151548574Y-107840147D01*
X151307282Y-107792150D01*
X149431996Y-105916865D01*
X149396449Y-105873551D01*
X149223623Y-105731716D01*
X149026447Y-105626324D01*
X148812499Y-105561423D01*
X148645752Y-105545000D01*
X148645751Y-105545000D01*
X148590000Y-105539509D01*
X148534249Y-105545000D01*
X137555752Y-105545000D01*
X137500000Y-105539509D01*
X137444248Y-105545000D01*
X136875751Y-105545000D01*
X136820000Y-105539509D01*
X136764249Y-105545000D01*
X132329284Y-105545000D01*
X132124727Y-105408320D01*
X131863574Y-105300147D01*
X131586335Y-105245000D01*
X131303665Y-105245000D01*
X131026426Y-105300147D01*
X130962000Y-105326833D01*
X130962000Y-105212702D01*
X150316903Y-105212702D01*
X150388486Y-105456671D01*
X150643996Y-105577571D01*
X150918184Y-105646300D01*
X151200512Y-105660217D01*
X151480130Y-105618787D01*
X151746292Y-105523603D01*
X151871514Y-105456671D01*
X151943097Y-105212702D01*
X151130000Y-104399605D01*
X150316903Y-105212702D01*
X130962000Y-105212702D01*
X130962000Y-103038324D01*
X131233184Y-103106300D01*
X131515512Y-103120217D01*
X131795130Y-103078787D01*
X132061292Y-102983603D01*
X132186514Y-102916671D01*
X132258097Y-102672702D01*
X131445000Y-101859605D01*
X131430858Y-101873748D01*
X131251253Y-101694143D01*
X131265395Y-101680000D01*
X131624605Y-101680000D01*
X132437702Y-102493097D01*
X132681671Y-102421514D01*
X132802571Y-102166004D01*
X132871300Y-101891816D01*
X132879424Y-101727000D01*
X133185000Y-101727000D01*
X133185000Y-102127000D01*
X133237350Y-102404514D01*
X133342834Y-102666483D01*
X133497399Y-102902839D01*
X133695105Y-103104500D01*
X133928354Y-103263715D01*
X134188182Y-103374367D01*
X134270961Y-103391904D01*
X134493000Y-103269915D01*
X134493000Y-101727000D01*
X133185000Y-101727000D01*
X132879424Y-101727000D01*
X132885217Y-101609488D01*
X132843787Y-101329870D01*
X132751926Y-101073000D01*
X133185000Y-101073000D01*
X133185000Y-101473000D01*
X134493000Y-101473000D01*
X134493000Y-99930085D01*
X134270961Y-99808096D01*
X134188182Y-99825633D01*
X133928354Y-99936285D01*
X133695105Y-100095500D01*
X133497399Y-100297161D01*
X133342834Y-100533517D01*
X133237350Y-100795486D01*
X133185000Y-101073000D01*
X132751926Y-101073000D01*
X132748603Y-101063708D01*
X132681671Y-100938486D01*
X132437702Y-100866903D01*
X131624605Y-101680000D01*
X131265395Y-101680000D01*
X131251253Y-101665858D01*
X131430858Y-101486253D01*
X131445000Y-101500395D01*
X132258097Y-100687298D01*
X132186514Y-100443329D01*
X131931004Y-100322429D01*
X131656816Y-100253700D01*
X131374488Y-100239783D01*
X131094870Y-100281213D01*
X130962000Y-100328730D01*
X130962000Y-98020702D01*
X137696903Y-98020702D01*
X137768486Y-98264671D01*
X138023996Y-98385571D01*
X138298184Y-98454300D01*
X138580512Y-98468217D01*
X138860130Y-98426787D01*
X139126292Y-98331603D01*
X139251514Y-98264671D01*
X139323097Y-98020702D01*
X138510000Y-97207605D01*
X137696903Y-98020702D01*
X130962000Y-98020702D01*
X130962000Y-97098512D01*
X137069783Y-97098512D01*
X137111213Y-97378130D01*
X137206397Y-97644292D01*
X137273329Y-97769514D01*
X137517298Y-97841097D01*
X138330395Y-97028000D01*
X138689605Y-97028000D01*
X139502702Y-97841097D01*
X139746671Y-97769514D01*
X139867571Y-97514004D01*
X139936300Y-97239816D01*
X139950217Y-96957488D01*
X139908787Y-96677870D01*
X139813603Y-96411708D01*
X139746671Y-96286486D01*
X139502702Y-96214903D01*
X138689605Y-97028000D01*
X138330395Y-97028000D01*
X137517298Y-96214903D01*
X137273329Y-96286486D01*
X137152429Y-96541996D01*
X137083700Y-96816184D01*
X137069783Y-97098512D01*
X130962000Y-97098512D01*
X130962000Y-96035298D01*
X137696903Y-96035298D01*
X138510000Y-96848395D01*
X139323097Y-96035298D01*
X139251514Y-95791329D01*
X138996004Y-95670429D01*
X138721816Y-95601700D01*
X138439488Y-95587783D01*
X138159870Y-95629213D01*
X137893708Y-95724397D01*
X137768486Y-95791329D01*
X137696903Y-96035298D01*
X130962000Y-96035298D01*
X130962000Y-92050890D01*
X131908524Y-92050890D01*
X131953175Y-92198099D01*
X132078359Y-92460920D01*
X132252412Y-92694269D01*
X132468645Y-92889178D01*
X132718748Y-93038157D01*
X132993109Y-93135481D01*
X133223000Y-93014814D01*
X133223000Y-91821000D01*
X133477000Y-91821000D01*
X133477000Y-93014814D01*
X133706891Y-93135481D01*
X133981252Y-93038157D01*
X134231355Y-92889178D01*
X134447588Y-92694269D01*
X134621641Y-92460920D01*
X134746825Y-92198099D01*
X134791476Y-92050890D01*
X134670155Y-91821000D01*
X133477000Y-91821000D01*
X133223000Y-91821000D01*
X132029845Y-91821000D01*
X131908524Y-92050890D01*
X130962000Y-92050890D01*
X130962000Y-87020000D01*
X135728868Y-87020000D01*
X134754511Y-87994358D01*
G36*
X168691928Y-88480000D02*
G01*
X168704188Y-88604482D01*
X168740498Y-88724180D01*
X168799463Y-88834494D01*
X168878815Y-88931185D01*
X168975506Y-89010537D01*
X169045001Y-89047683D01*
X169045001Y-90022317D01*
X168975506Y-90059463D01*
X168878815Y-90138815D01*
X168799463Y-90235506D01*
X168740498Y-90345820D01*
X168704188Y-90465518D01*
X168691928Y-90590000D01*
X168691928Y-92290000D01*
X168704188Y-92414482D01*
X168740498Y-92534180D01*
X168799463Y-92644494D01*
X168878815Y-92741185D01*
X168975506Y-92820537D01*
X169045000Y-92857683D01*
X169045000Y-96449043D01*
X169025506Y-96459463D01*
X168928815Y-96538815D01*
X168849463Y-96635506D01*
X168790498Y-96745820D01*
X168754188Y-96865518D01*
X168741928Y-96990000D01*
X168741928Y-97368940D01*
X167678907Y-98431962D01*
X167320341Y-98671006D01*
X167398977Y-98592370D01*
X167282704Y-98476097D01*
X167526671Y-98404514D01*
X167647571Y-98149004D01*
X167716300Y-97874816D01*
X167730217Y-97592488D01*
X167688787Y-97312870D01*
X167593603Y-97046708D01*
X167526671Y-96921486D01*
X167282702Y-96849903D01*
X166469605Y-97663000D01*
X166483748Y-97677143D01*
X166304143Y-97856748D01*
X166290000Y-97842605D01*
X165476903Y-98655702D01*
X165486086Y-98687000D01*
X165409752Y-98687000D01*
X165354000Y-98681509D01*
X165131501Y-98703423D01*
X164917553Y-98768324D01*
X164720377Y-98873716D01*
X164590856Y-98980011D01*
X164590854Y-98980013D01*
X164547551Y-99015551D01*
X164512013Y-99058854D01*
X163165185Y-100405683D01*
X162949405Y-100316304D01*
X162691486Y-100265000D01*
X162428514Y-100265000D01*
X162170595Y-100316304D01*
X161927641Y-100416939D01*
X161708987Y-100563038D01*
X161523038Y-100748987D01*
X161376939Y-100967641D01*
X161276304Y-101210595D01*
X161225000Y-101468514D01*
X161225000Y-101731486D01*
X161276304Y-101989405D01*
X161376939Y-102232359D01*
X161523038Y-102451013D01*
X161647024Y-102574999D01*
X154345131Y-102574999D01*
X153919631Y-102149499D01*
X154059405Y-102121696D01*
X154302359Y-102021061D01*
X154521013Y-101874962D01*
X154706962Y-101689013D01*
X154853061Y-101470359D01*
X154953696Y-101227405D01*
X154964850Y-101171329D01*
X157457284Y-101171329D01*
X157489953Y-101279044D01*
X157600208Y-101516392D01*
X157754649Y-101727670D01*
X157947340Y-101904759D01*
X158170877Y-102040853D01*
X158416670Y-102130722D01*
X158623000Y-102008201D01*
X158623000Y-100965000D01*
X158877000Y-100965000D01*
X158877000Y-102008201D01*
X159083330Y-102130722D01*
X159329123Y-102040853D01*
X159552660Y-101904759D01*
X159745351Y-101727670D01*
X159899792Y-101516392D01*
X160010047Y-101279044D01*
X160042716Y-101171329D01*
X159919374Y-100965000D01*
X158877000Y-100965000D01*
X158623000Y-100965000D01*
X157580626Y-100965000D01*
X157457284Y-101171329D01*
X154964850Y-101171329D01*
X155005000Y-100969486D01*
X155005000Y-100706514D01*
X154953696Y-100448595D01*
X154880962Y-100272999D01*
X157547535Y-100272999D01*
X157489953Y-100396956D01*
X157457284Y-100504671D01*
X157580626Y-100711000D01*
X158623000Y-100711000D01*
X158623000Y-100691000D01*
X158877000Y-100691000D01*
X158877000Y-100711000D01*
X159919374Y-100711000D01*
X160042716Y-100504671D01*
X160010047Y-100396956D01*
X159948890Y-100265303D01*
X160037500Y-100256576D01*
X160251448Y-100191675D01*
X160448624Y-100086283D01*
X160621450Y-99944448D01*
X160656996Y-99901135D01*
X161467283Y-99090849D01*
X161708574Y-99042853D01*
X161969727Y-98934680D01*
X162204759Y-98777637D01*
X162404637Y-98577759D01*
X162561680Y-98342727D01*
X162669853Y-98081574D01*
X162725000Y-97804335D01*
X162725000Y-97733512D01*
X164849783Y-97733512D01*
X164891213Y-98013130D01*
X164986397Y-98279292D01*
X165053329Y-98404514D01*
X165297298Y-98476097D01*
X166110395Y-97663000D01*
X165297298Y-96849903D01*
X165053329Y-96921486D01*
X164932429Y-97176996D01*
X164863700Y-97451184D01*
X164849783Y-97733512D01*
X162725000Y-97733512D01*
X162725000Y-97521665D01*
X162669853Y-97244426D01*
X162561680Y-96983273D01*
X162404637Y-96748241D01*
X162326694Y-96670298D01*
X165476903Y-96670298D01*
X166290000Y-97483395D01*
X167103097Y-96670298D01*
X167031514Y-96426329D01*
X166776004Y-96305429D01*
X166501816Y-96236700D01*
X166219488Y-96222783D01*
X165939870Y-96264213D01*
X165673708Y-96359397D01*
X165548486Y-96426329D01*
X165476903Y-96670298D01*
X162326694Y-96670298D01*
X162204759Y-96548363D01*
X161969727Y-96391320D01*
X161708574Y-96283147D01*
X161431335Y-96228000D01*
X161148665Y-96228000D01*
X160871426Y-96283147D01*
X160610273Y-96391320D01*
X160375241Y-96548363D01*
X160175363Y-96748241D01*
X160096665Y-96866022D01*
X160068787Y-96677870D01*
X159973603Y-96411708D01*
X159906671Y-96286486D01*
X159662702Y-96214903D01*
X158849605Y-97028000D01*
X158863748Y-97042143D01*
X158684143Y-97221748D01*
X158670000Y-97207605D01*
X158655858Y-97221748D01*
X158476253Y-97042143D01*
X158490395Y-97028000D01*
X157677298Y-96214903D01*
X157433329Y-96286486D01*
X157312429Y-96541996D01*
X157243700Y-96816184D01*
X157229783Y-97098512D01*
X157271213Y-97378130D01*
X157366397Y-97644292D01*
X157433329Y-97769514D01*
X157677296Y-97841097D01*
X157561023Y-97957370D01*
X157606652Y-98002999D01*
X154724397Y-98002999D01*
X154784637Y-97942759D01*
X154941680Y-97707727D01*
X155049853Y-97446574D01*
X155105000Y-97169335D01*
X155105000Y-96886665D01*
X155049853Y-96609426D01*
X154941680Y-96348273D01*
X154805000Y-96143716D01*
X154805000Y-96035298D01*
X157856903Y-96035298D01*
X158670000Y-96848395D01*
X159483097Y-96035298D01*
X159411514Y-95791329D01*
X159156004Y-95670429D01*
X158881816Y-95601700D01*
X158599488Y-95587783D01*
X158319870Y-95629213D01*
X158053708Y-95724397D01*
X157928486Y-95791329D01*
X157856903Y-96035298D01*
X154805000Y-96035298D01*
X154805000Y-93923957D01*
X154824494Y-93913537D01*
X154921185Y-93834185D01*
X155000537Y-93737494D01*
X155059502Y-93627180D01*
X155095812Y-93507482D01*
X155108072Y-93383000D01*
X155108072Y-93265702D01*
X159841903Y-93265702D01*
X159913486Y-93509671D01*
X160168996Y-93630571D01*
X160443184Y-93699300D01*
X160725512Y-93713217D01*
X161005130Y-93671787D01*
X161271292Y-93576603D01*
X161396514Y-93509671D01*
X161468097Y-93265702D01*
X160655000Y-92452605D01*
X159841903Y-93265702D01*
X155108072Y-93265702D01*
X155108072Y-92343512D01*
X159214783Y-92343512D01*
X159256213Y-92623130D01*
X159351397Y-92889292D01*
X159418329Y-93014514D01*
X159662298Y-93086097D01*
X160475395Y-92273000D01*
X160834605Y-92273000D01*
X161647702Y-93086097D01*
X161891671Y-93014514D01*
X162012571Y-92759004D01*
X162081300Y-92484816D01*
X162095217Y-92202488D01*
X162053787Y-91922870D01*
X161958603Y-91656708D01*
X161891671Y-91531486D01*
X161647702Y-91459903D01*
X160834605Y-92273000D01*
X160475395Y-92273000D01*
X159662298Y-91459903D01*
X159418329Y-91531486D01*
X159297429Y-91786996D01*
X159228700Y-92061184D01*
X159214783Y-92343512D01*
X155108072Y-92343512D01*
X155108072Y-91783000D01*
X155095812Y-91658518D01*
X155059502Y-91538820D01*
X155000537Y-91428506D01*
X154921185Y-91331815D01*
X154858412Y-91280298D01*
X159841903Y-91280298D01*
X160655000Y-92093395D01*
X161468097Y-91280298D01*
X161396514Y-91036329D01*
X161141004Y-90915429D01*
X160866816Y-90846700D01*
X160584488Y-90832783D01*
X160304870Y-90874213D01*
X160038708Y-90969397D01*
X159913486Y-91036329D01*
X159841903Y-91280298D01*
X154858412Y-91280298D01*
X154824494Y-91252463D01*
X154805000Y-91242043D01*
X154805000Y-90543000D01*
X159964249Y-90543000D01*
X160020000Y-90548491D01*
X160075751Y-90543000D01*
X160075752Y-90543000D01*
X160242499Y-90526577D01*
X160456447Y-90461676D01*
X160653623Y-90356284D01*
X160826449Y-90214449D01*
X160829220Y-90211072D01*
X161455000Y-90211072D01*
X161579482Y-90198812D01*
X161699180Y-90162502D01*
X161809494Y-90103537D01*
X161906185Y-90024185D01*
X161985537Y-89927494D01*
X162044502Y-89817180D01*
X162080812Y-89697482D01*
X162093072Y-89573000D01*
X162093072Y-87973000D01*
X162080812Y-87848518D01*
X162044502Y-87728820D01*
X161985537Y-87618506D01*
X161906185Y-87521815D01*
X161809494Y-87442463D01*
X161699180Y-87383498D01*
X161579482Y-87347188D01*
X161455000Y-87334928D01*
X159855000Y-87334928D01*
X159730518Y-87347188D01*
X159610820Y-87383498D01*
X159500506Y-87442463D01*
X159403815Y-87521815D01*
X159324463Y-87618506D01*
X159265498Y-87728820D01*
X159229188Y-87848518D01*
X159216928Y-87973000D01*
X159216928Y-88273000D01*
X154196170Y-88273000D01*
X154170000Y-88241112D01*
X154170000Y-87463751D01*
X154175491Y-87407999D01*
X154153577Y-87185501D01*
X154103372Y-87020000D01*
X168691928Y-87020000D01*
X168691928Y-88480000D01*
G37*
X168691928Y-88480000D02*
X168704188Y-88604482D01*
X168740498Y-88724180D01*
X168799463Y-88834494D01*
X168878815Y-88931185D01*
X168975506Y-89010537D01*
X169045001Y-89047683D01*
X169045001Y-90022317D01*
X168975506Y-90059463D01*
X168878815Y-90138815D01*
X168799463Y-90235506D01*
X168740498Y-90345820D01*
X168704188Y-90465518D01*
X168691928Y-90590000D01*
X168691928Y-92290000D01*
X168704188Y-92414482D01*
X168740498Y-92534180D01*
X168799463Y-92644494D01*
X168878815Y-92741185D01*
X168975506Y-92820537D01*
X169045000Y-92857683D01*
X169045000Y-96449043D01*
X169025506Y-96459463D01*
X168928815Y-96538815D01*
X168849463Y-96635506D01*
X168790498Y-96745820D01*
X168754188Y-96865518D01*
X168741928Y-96990000D01*
X168741928Y-97368940D01*
X167678907Y-98431962D01*
X167320341Y-98671006D01*
X167398977Y-98592370D01*
X167282704Y-98476097D01*
X167526671Y-98404514D01*
X167647571Y-98149004D01*
X167716300Y-97874816D01*
X167730217Y-97592488D01*
X167688787Y-97312870D01*
X167593603Y-97046708D01*
X167526671Y-96921486D01*
X167282702Y-96849903D01*
X166469605Y-97663000D01*
X166483748Y-97677143D01*
X166304143Y-97856748D01*
X166290000Y-97842605D01*
X165476903Y-98655702D01*
X165486086Y-98687000D01*
X165409752Y-98687000D01*
X165354000Y-98681509D01*
X165131501Y-98703423D01*
X164917553Y-98768324D01*
X164720377Y-98873716D01*
X164590856Y-98980011D01*
X164590854Y-98980013D01*
X164547551Y-99015551D01*
X164512013Y-99058854D01*
X163165185Y-100405683D01*
X162949405Y-100316304D01*
X162691486Y-100265000D01*
X162428514Y-100265000D01*
X162170595Y-100316304D01*
X161927641Y-100416939D01*
X161708987Y-100563038D01*
X161523038Y-100748987D01*
X161376939Y-100967641D01*
X161276304Y-101210595D01*
X161225000Y-101468514D01*
X161225000Y-101731486D01*
X161276304Y-101989405D01*
X161376939Y-102232359D01*
X161523038Y-102451013D01*
X161647024Y-102574999D01*
X154345131Y-102574999D01*
X153919631Y-102149499D01*
X154059405Y-102121696D01*
X154302359Y-102021061D01*
X154521013Y-101874962D01*
X154706962Y-101689013D01*
X154853061Y-101470359D01*
X154953696Y-101227405D01*
X154964850Y-101171329D01*
X157457284Y-101171329D01*
X157489953Y-101279044D01*
X157600208Y-101516392D01*
X157754649Y-101727670D01*
X157947340Y-101904759D01*
X158170877Y-102040853D01*
X158416670Y-102130722D01*
X158623000Y-102008201D01*
X158623000Y-100965000D01*
X158877000Y-100965000D01*
X158877000Y-102008201D01*
X159083330Y-102130722D01*
X159329123Y-102040853D01*
X159552660Y-101904759D01*
X159745351Y-101727670D01*
X159899792Y-101516392D01*
X160010047Y-101279044D01*
X160042716Y-101171329D01*
X159919374Y-100965000D01*
X158877000Y-100965000D01*
X158623000Y-100965000D01*
X157580626Y-100965000D01*
X157457284Y-101171329D01*
X154964850Y-101171329D01*
X155005000Y-100969486D01*
X155005000Y-100706514D01*
X154953696Y-100448595D01*
X154880962Y-100272999D01*
X157547535Y-100272999D01*
X157489953Y-100396956D01*
X157457284Y-100504671D01*
X157580626Y-100711000D01*
X158623000Y-100711000D01*
X158623000Y-100691000D01*
X158877000Y-100691000D01*
X158877000Y-100711000D01*
X159919374Y-100711000D01*
X160042716Y-100504671D01*
X160010047Y-100396956D01*
X159948890Y-100265303D01*
X160037500Y-100256576D01*
X160251448Y-100191675D01*
X160448624Y-100086283D01*
X160621450Y-99944448D01*
X160656996Y-99901135D01*
X161467283Y-99090849D01*
X161708574Y-99042853D01*
X161969727Y-98934680D01*
X162204759Y-98777637D01*
X162404637Y-98577759D01*
X162561680Y-98342727D01*
X162669853Y-98081574D01*
X162725000Y-97804335D01*
X162725000Y-97733512D01*
X164849783Y-97733512D01*
X164891213Y-98013130D01*
X164986397Y-98279292D01*
X165053329Y-98404514D01*
X165297298Y-98476097D01*
X166110395Y-97663000D01*
X165297298Y-96849903D01*
X165053329Y-96921486D01*
X164932429Y-97176996D01*
X164863700Y-97451184D01*
X164849783Y-97733512D01*
X162725000Y-97733512D01*
X162725000Y-97521665D01*
X162669853Y-97244426D01*
X162561680Y-96983273D01*
X162404637Y-96748241D01*
X162326694Y-96670298D01*
X165476903Y-96670298D01*
X166290000Y-97483395D01*
X167103097Y-96670298D01*
X167031514Y-96426329D01*
X166776004Y-96305429D01*
X166501816Y-96236700D01*
X166219488Y-96222783D01*
X165939870Y-96264213D01*
X165673708Y-96359397D01*
X165548486Y-96426329D01*
X165476903Y-96670298D01*
X162326694Y-96670298D01*
X162204759Y-96548363D01*
X161969727Y-96391320D01*
X161708574Y-96283147D01*
X161431335Y-96228000D01*
X161148665Y-96228000D01*
X160871426Y-96283147D01*
X160610273Y-96391320D01*
X160375241Y-96548363D01*
X160175363Y-96748241D01*
X160096665Y-96866022D01*
X160068787Y-96677870D01*
X159973603Y-96411708D01*
X159906671Y-96286486D01*
X159662702Y-96214903D01*
X158849605Y-97028000D01*
X158863748Y-97042143D01*
X158684143Y-97221748D01*
X158670000Y-97207605D01*
X158655858Y-97221748D01*
X158476253Y-97042143D01*
X158490395Y-97028000D01*
X157677298Y-96214903D01*
X157433329Y-96286486D01*
X157312429Y-96541996D01*
X157243700Y-96816184D01*
X157229783Y-97098512D01*
X157271213Y-97378130D01*
X157366397Y-97644292D01*
X157433329Y-97769514D01*
X157677296Y-97841097D01*
X157561023Y-97957370D01*
X157606652Y-98002999D01*
X154724397Y-98002999D01*
X154784637Y-97942759D01*
X154941680Y-97707727D01*
X155049853Y-97446574D01*
X155105000Y-97169335D01*
X155105000Y-96886665D01*
X155049853Y-96609426D01*
X154941680Y-96348273D01*
X154805000Y-96143716D01*
X154805000Y-96035298D01*
X157856903Y-96035298D01*
X158670000Y-96848395D01*
X159483097Y-96035298D01*
X159411514Y-95791329D01*
X159156004Y-95670429D01*
X158881816Y-95601700D01*
X158599488Y-95587783D01*
X158319870Y-95629213D01*
X158053708Y-95724397D01*
X157928486Y-95791329D01*
X157856903Y-96035298D01*
X154805000Y-96035298D01*
X154805000Y-93923957D01*
X154824494Y-93913537D01*
X154921185Y-93834185D01*
X155000537Y-93737494D01*
X155059502Y-93627180D01*
X155095812Y-93507482D01*
X155108072Y-93383000D01*
X155108072Y-93265702D01*
X159841903Y-93265702D01*
X159913486Y-93509671D01*
X160168996Y-93630571D01*
X160443184Y-93699300D01*
X160725512Y-93713217D01*
X161005130Y-93671787D01*
X161271292Y-93576603D01*
X161396514Y-93509671D01*
X161468097Y-93265702D01*
X160655000Y-92452605D01*
X159841903Y-93265702D01*
X155108072Y-93265702D01*
X155108072Y-92343512D01*
X159214783Y-92343512D01*
X159256213Y-92623130D01*
X159351397Y-92889292D01*
X159418329Y-93014514D01*
X159662298Y-93086097D01*
X160475395Y-92273000D01*
X160834605Y-92273000D01*
X161647702Y-93086097D01*
X161891671Y-93014514D01*
X162012571Y-92759004D01*
X162081300Y-92484816D01*
X162095217Y-92202488D01*
X162053787Y-91922870D01*
X161958603Y-91656708D01*
X161891671Y-91531486D01*
X161647702Y-91459903D01*
X160834605Y-92273000D01*
X160475395Y-92273000D01*
X159662298Y-91459903D01*
X159418329Y-91531486D01*
X159297429Y-91786996D01*
X159228700Y-92061184D01*
X159214783Y-92343512D01*
X155108072Y-92343512D01*
X155108072Y-91783000D01*
X155095812Y-91658518D01*
X155059502Y-91538820D01*
X155000537Y-91428506D01*
X154921185Y-91331815D01*
X154858412Y-91280298D01*
X159841903Y-91280298D01*
X160655000Y-92093395D01*
X161468097Y-91280298D01*
X161396514Y-91036329D01*
X161141004Y-90915429D01*
X160866816Y-90846700D01*
X160584488Y-90832783D01*
X160304870Y-90874213D01*
X160038708Y-90969397D01*
X159913486Y-91036329D01*
X159841903Y-91280298D01*
X154858412Y-91280298D01*
X154824494Y-91252463D01*
X154805000Y-91242043D01*
X154805000Y-90543000D01*
X159964249Y-90543000D01*
X160020000Y-90548491D01*
X160075751Y-90543000D01*
X160075752Y-90543000D01*
X160242499Y-90526577D01*
X160456447Y-90461676D01*
X160653623Y-90356284D01*
X160826449Y-90214449D01*
X160829220Y-90211072D01*
X161455000Y-90211072D01*
X161579482Y-90198812D01*
X161699180Y-90162502D01*
X161809494Y-90103537D01*
X161906185Y-90024185D01*
X161985537Y-89927494D01*
X162044502Y-89817180D01*
X162080812Y-89697482D01*
X162093072Y-89573000D01*
X162093072Y-87973000D01*
X162080812Y-87848518D01*
X162044502Y-87728820D01*
X161985537Y-87618506D01*
X161906185Y-87521815D01*
X161809494Y-87442463D01*
X161699180Y-87383498D01*
X161579482Y-87347188D01*
X161455000Y-87334928D01*
X159855000Y-87334928D01*
X159730518Y-87347188D01*
X159610820Y-87383498D01*
X159500506Y-87442463D01*
X159403815Y-87521815D01*
X159324463Y-87618506D01*
X159265498Y-87728820D01*
X159229188Y-87848518D01*
X159216928Y-87973000D01*
X159216928Y-88273000D01*
X154196170Y-88273000D01*
X154170000Y-88241112D01*
X154170000Y-87463751D01*
X154175491Y-87407999D01*
X154153577Y-87185501D01*
X154103372Y-87020000D01*
X168691928Y-87020000D01*
X168691928Y-88480000D01*
M02*
